<?xml version="1.0" encoding="UTF-8" standalone="no"?>
<!DOCTYPE svg PUBLIC "-//W3C//DTD SVG 1.1//EN" "http://www.w3.org/Graphics/SVG/1.1/DTD/svg11.dtd">
<svg width="100%" height="100%" viewBox="0 0 101 60" version="1.1" xmlns="http://www.w3.org/2000/svg" xmlns:xlink="http://www.w3.org/1999/xlink" xml:space="preserve" xmlns:serif="http://www.serif.com/" style="fill-rule:evenodd;clip-rule:evenodd;stroke-linejoin:round;stroke-miterlimit:2;">
    <g transform="matrix(1,0,0,1,-280,-124)">
        <g id="Amiga" transform="matrix(1,0,0,0.6,280.4,124)">
            <rect x="0" y="0" width="100" height="100" style="fill:none;"/>
            <g id="Group-129" serif:id="Group 129" transform="matrix(1,0,0,1.66667,-27,12.5)">
                <path id="Oval--Stroke-" serif:id="Oval (Stroke)" d="M77,34C80.866,34 84,30.866 84,27C84,23.134 80.866,20 77,20C73.134,20 70,23.134 70,27C70,30.866 73.134,34 77,34ZM85,27C85,31.418 81.418,35 77,35C72.582,35 69,31.418 69,27C69,22.582 72.582,19 77,19C81.418,19 85,22.582 85,27Z" style="fill:white;"/>
                <path id="Oval--Stroke-_2" serif:id="Oval (Stroke)_2" d="M77,31C79.761,31 82,28.761 82,26C82,23.239 79.761,21 77,21C74.239,21 72,23.239 72,26C72,28.761 74.239,31 77,31ZM83,26C83,29.314 80.314,32 77,32C73.686,32 71,29.314 71,26C71,22.686 73.686,20 77,20C80.314,20 83,22.686 83,26Z" style="fill:white;"/>
                <g id="Vector">
                    <path d="M87.5,13C89.36,13 91.005,12.077 92,10.663C92.63,9.768 93,8.677 93,7.5C93,4.462 90.538,2 87.5,2C86.323,2 85.232,2.37 84.337,3C82.923,3.995 82,5.64 82,7.5C82,10.538 84.462,13 87.5,13ZM87.5,15C91.642,15 95,11.642 95,7.5C95,3.358 91.642,0 87.5,0C83.358,0 80,3.358 80,7.5C80,11.642 83.358,15 87.5,15Z" style="fill:white;"/>
                    <path d="M66.5,13C69.538,13 72,10.538 72,7.5C72,5.64 71.077,3.995 69.663,3C68.768,2.37 67.677,2 66.5,2C63.462,2 61,4.462 61,7.5C61,8.677 61.37,9.768 62,10.663C62.995,12.077 64.64,13 66.5,13ZM66.5,15C70.642,15 74,11.642 74,7.5C74,3.358 70.642,0 66.5,0C62.358,0 59,3.358 59,7.5C59,11.642 62.358,15 66.5,15Z" style="fill:white;"/>
                    <path d="M84.337,3L69.663,3C68.768,2.37 67.677,2 66.5,2C63.462,2 61,4.462 61,7.5C61,8.677 61.37,9.768 62,10.663L62,36C62,39.314 64.686,42 68,42L86,42C89.314,42 92,39.314 92,36L92,10.663C92.63,9.768 93,8.677 93,7.5C93,4.462 90.538,2 87.5,2C86.323,2 85.232,2.37 84.337,3ZM68,0C63.029,0 59,4.029 59,9L59,36C59,40.971 63.029,45 68,45L86,45C90.971,45 95,40.971 95,36L95,9C95,4.029 90.971,0 86,0L68,0Z" style="fill:white;"/>
                </g>
                <path id="Rectangle-118--Stroke-" serif:id="Rectangle 118 (Stroke)" d="M85,17L69,17C67.895,17 67,17.895 67,19L67,35C67,36.105 67.895,37 69,37L85,37C86.105,37 87,36.105 87,35L87,19C87,17.895 86.105,17 85,17ZM69,16C67.343,16 66,17.343 66,19L66,35C66,36.657 67.343,38 69,38L85,38C86.657,38 88,36.657 88,35L88,19C88,17.343 86.657,16 85,16L69,16Z" style="fill:white;"/>
                <path id="Oval--Stroke-_3" serif:id="Oval (Stroke)_3" d="M66.5,11C68.433,11 70,9.433 70,7.5C70,5.567 68.433,4 66.5,4C64.567,4 63,5.567 63,7.5C63,9.433 64.567,11 66.5,11ZM71,7.5C71,9.985 68.985,12 66.5,12C64.015,12 62,9.985 62,7.5C62,5.015 64.015,3 66.5,3C68.985,3 71,5.015 71,7.5Z" style="fill:white;"/>
                <path id="Oval--Stroke-_4" serif:id="Oval (Stroke)_4" d="M87.5,11C89.433,11 91,9.433 91,7.5C91,5.567 89.433,4 87.5,4C85.567,4 84,5.567 84,7.5C84,9.433 85.567,11 87.5,11ZM92,7.5C92,9.985 89.985,12 87.5,12C85.015,12 83,9.985 83,7.5C83,5.015 85.015,3 87.5,3C89.985,3 92,5.015 92,7.5Z" style="fill:white;"/>
            </g>
        </g>
    </g>
</svg>
