<?xml version="1.0" encoding="UTF-8" standalone="no"?>
<!DOCTYPE svg PUBLIC "-//W3C//DTD SVG 1.1//EN" "http://www.w3.org/Graphics/SVG/1.1/DTD/svg11.dtd">
<svg width="100%" height="100%" viewBox="0 0 101 60" version="1.1" xmlns="http://www.w3.org/2000/svg" xmlns:xlink="http://www.w3.org/1999/xlink" xml:space="preserve" xmlns:serif="http://www.serif.com/" style="fill-rule:evenodd;clip-rule:evenodd;stroke-linejoin:round;stroke-miterlimit:2;">
    <g transform="matrix(1,0,0,1,-560,-744)">
        <g id="Dreamcast" transform="matrix(1,0,0,0.6,560.8,744)">
            <rect x="0" y="0" width="100" height="100" style="fill:none;"/>
            <g id="Group-282" serif:id="Group 282" transform="matrix(1,0,0,1.66667,-24.6607,3.39085)">
                <path id="Rectangle-263" serif:id="Rectangle 263" d="M57.743,25.999C57.743,25.868 57.818,25.749 57.945,25.712C58.15,25.653 58.514,25.578 59.054,25.578C59.594,25.578 59.959,25.653 60.164,25.712C60.291,25.749 60.366,25.868 60.366,25.999L60.366,33.881C60.366,34.013 60.291,34.132 60.164,34.169C59.959,34.228 59.594,34.303 59.054,34.303C58.514,34.303 58.15,34.228 57.945,34.169C57.818,34.132 57.743,34.013 57.743,33.881L57.743,25.999Z" style="fill:white;fill-rule:nonzero;"/>
                <path id="Rectangle-264" serif:id="Rectangle 264" d="M55.113,31.252C54.981,31.252 54.862,31.176 54.826,31.05C54.766,30.845 54.692,30.48 54.692,29.94C54.692,29.4 54.766,29.035 54.826,28.83C54.862,28.704 54.981,28.629 55.113,28.629L62.995,28.629C63.127,28.629 63.246,28.704 63.282,28.83C63.342,29.035 63.416,29.4 63.416,29.94C63.416,30.48 63.342,30.845 63.282,31.05C63.246,31.176 63.127,31.252 62.995,31.252L55.113,31.252Z" style="fill:white;fill-rule:nonzero;"/>
                <path id="Ellipse-167--Stroke-" serif:id="Ellipse 167 (Stroke)" d="M56.556,21.19C58.01,21.19 59.189,20.011 59.189,18.557C59.189,17.103 58.01,15.925 56.556,15.925C55.102,15.925 53.923,17.103 53.923,18.557C53.923,20.011 55.102,21.19 56.556,21.19ZM56.556,22.19C58.562,22.19 60.189,20.564 60.189,18.557C60.189,16.551 58.562,14.925 56.556,14.925C54.55,14.925 52.923,16.551 52.923,18.557C52.923,20.564 54.55,22.19 56.556,22.19Z" style="fill:white;"/>
                <path id="Ellipse-168--Stroke-" serif:id="Ellipse 168 (Stroke)" d="M56.556,23.128C59.08,23.128 61.127,21.081 61.127,18.557C61.127,16.033 59.08,13.987 56.556,13.987C54.032,13.987 51.985,16.033 51.985,18.557C51.985,21.081 54.032,23.128 56.556,23.128ZM56.556,24.128C59.633,24.128 62.127,21.634 62.127,18.557C62.127,15.481 59.633,12.987 56.556,12.987C53.479,12.987 50.985,15.481 50.985,18.557C50.985,21.634 53.479,24.128 56.556,24.128Z" style="fill:white;"/>
                <path id="Vector" d="M76.866,41.487C77.022,41.424 77.11,41.31 77.07,41.133C77.07,41.133 76.751,40.138 76.261,39.221C75.771,38.304 74.862,37.309 74.862,37.309C74.793,37.236 74.737,37.191 74.658,37.191C74.579,37.191 74.524,37.236 74.454,37.309C74.454,37.309 73.545,38.304 73.055,39.221C72.565,40.138 72.246,41.133 72.246,41.133C72.206,41.31 72.295,41.424 72.45,41.487C72.45,41.487 73.173,41.782 74.658,41.782C76.143,41.782 76.866,41.487 76.866,41.487Z" style="fill:white;fill-rule:nonzero;"/>
                <path id="Vector--Stroke-" serif:id="Vector (Stroke)" d="M74.661,2.615C68.517,2.615 63.023,5.664 59.764,10.359L59.543,10.678L52.274,12.335C52.102,12.71 51.903,13.288 51.701,14.085C51.433,15.139 51.181,16.487 50.972,18.059C50.553,21.203 50.312,25.198 50.44,29.46C50.699,38.041 52.451,47.463 57.035,53.306C57.035,53.307 57.036,53.308 57.04,53.31C57.045,53.312 57.054,53.315 57.069,53.315C57.102,53.315 57.131,53.294 57.141,53.263L59.068,47.067C60.301,43.282 62.261,38.678 63.608,36.045L65.388,36.956C64.09,39.494 62.172,43.998 60.972,47.68L59.05,53.857C58.78,54.724 57.978,55.315 57.069,55.315C56.459,55.315 55.858,55.047 55.461,54.541C50.465,48.172 48.703,38.199 48.441,29.52C48.31,25.152 48.556,21.049 48.989,17.796C49.206,16.169 49.47,14.742 49.762,13.592C50.046,12.474 50.379,11.52 50.774,10.914L50.995,10.575L58.348,8.899C61.996,3.859 67.987,0.615 74.661,0.615C81.366,0.615 87.318,3.835 90.965,8.897L98.327,10.575L98.548,10.914C98.942,11.52 99.275,12.474 99.559,13.592C99.851,14.742 100.116,16.169 100.332,17.796C100.766,21.05 101.012,25.152 100.88,29.52C100.618,38.199 98.856,48.172 93.86,54.541C93.463,55.048 92.863,55.316 92.252,55.316C91.344,55.316 90.541,54.725 90.271,53.857L88.349,47.68C87.15,43.997 85.231,39.494 83.933,36.957L85.714,36.046C87.06,38.678 89.021,43.282 90.253,47.067L90.257,47.08L92.181,53.263C92.191,53.294 92.22,53.316 92.252,53.316C92.267,53.316 92.277,53.312 92.281,53.31C92.284,53.309 92.285,53.308 92.286,53.307C92.287,53.307 92.287,53.307 92.287,53.307C96.87,47.463 98.622,38.041 98.881,29.46C99.01,25.198 98.768,21.203 98.35,18.059C98.141,16.487 97.888,15.139 97.621,14.085C97.418,13.288 97.219,12.71 97.047,12.335L89.767,10.675L89.546,10.355C86.289,5.639 80.839,2.615 74.661,2.615Z" style="fill:white;"/>
                <path id="Line-58--Stroke-" serif:id="Line 58 (Stroke)" d="M64.284,44.474C66.882,44.01 70.513,43.545 74.646,43.545C78.778,43.545 82.409,44.01 85.007,44.474C86.307,44.707 87.351,44.939 88.073,45.115C88.434,45.203 88.715,45.277 88.907,45.329C89.003,45.355 89.077,45.375 89.128,45.39L89.187,45.407L89.21,45.413C89.21,45.413 89.21,45.414 88.926,46.372C88.642,47.331 88.642,47.331 88.642,47.331L88.629,47.327L88.582,47.314C88.538,47.301 88.472,47.283 88.384,47.259C88.208,47.211 87.944,47.142 87.6,47.058C86.914,46.891 85.91,46.667 84.655,46.443C82.143,45.994 78.633,45.545 74.646,45.545C70.658,45.545 67.149,45.994 64.637,46.443C63.381,46.667 62.378,46.891 61.691,47.058C61.348,47.142 61.084,47.211 60.908,47.259C60.82,47.283 60.753,47.301 60.71,47.314L60.662,47.327L60.65,47.331C60.65,47.331 60.65,47.331 60.365,46.372C60.081,45.414 60.081,45.414 60.082,45.413L60.104,45.407L60.163,45.39C60.214,45.375 60.288,45.355 60.384,45.329C60.577,45.277 60.857,45.203 61.219,45.115C61.941,44.939 62.985,44.707 64.284,44.474Z" style="fill:white;"/>
                <path id="Ellipse-166--Stroke-" serif:id="Ellipse 166 (Stroke)" d="M59.661,9.836C58.825,10.99 58.118,12.242 57.559,13.57L56.637,13.182C57.226,11.783 57.971,10.465 58.852,9.249L59.661,9.836ZM93.231,20.685C93.231,16.634 91.934,12.887 89.733,9.835L90.544,9.25C92.864,12.467 94.231,16.417 94.231,20.685C94.231,31.494 85.469,40.255 74.661,40.255C64.959,40.255 56.832,33.003 55.28,23.752L56.267,23.587C57.741,32.373 65.465,39.255 74.661,39.255C84.917,39.255 93.231,30.941 93.231,20.685Z" style="fill:white;"/>
                <path id="Rectangle-262--Stroke-" serif:id="Rectangle 262 (Stroke)" d="M66.318,4.091L66.318,20.243C66.318,24.851 70.053,28.586 74.661,28.586C79.268,28.586 83.003,24.851 83.003,20.243L83.003,4.091L84.003,4.091L84.003,20.243C84.003,25.403 79.82,29.586 74.661,29.586C69.501,29.586 65.318,25.403 65.318,20.243L65.318,4.091L66.318,4.091Z" style="fill:white;"/>
                <g id="Group-279" serif:id="Group 279">
                    <path id="Rectangle-265--Stroke-" serif:id="Rectangle 265 (Stroke)" d="M80.383,11.219C79.456,10.932 77.489,10.454 74.661,10.454C71.832,10.454 69.865,10.932 68.938,11.219L68.938,21.366C69.845,21.684 71.814,22.227 74.661,22.227C77.508,22.227 79.477,21.684 80.383,21.366L80.383,11.219ZM68.602,10.277C68.193,10.405 67.938,10.79 67.938,11.219L67.938,21.371C67.938,21.783 68.174,22.156 68.562,22.294C69.54,22.641 71.639,23.227 74.661,23.227C77.683,23.227 79.781,22.641 80.759,22.294C81.148,22.156 81.383,21.783 81.383,21.371L81.383,11.219C81.383,10.79 81.129,10.405 80.719,10.277C79.725,9.965 77.642,9.454 74.661,9.454C71.679,9.454 69.596,9.965 68.602,10.277Z" style="fill:white;"/>
                    <path id="Rectangle-266--Stroke-" serif:id="Rectangle 266 (Stroke)" d="M70.75,12.65L70.75,20.031L78.5,20.031L78.5,12.65L70.75,12.65ZM70.515,11.65C70.092,11.65 69.75,11.993 69.75,12.415L69.75,20.266C69.75,20.689 70.092,21.031 70.515,21.031L78.735,21.031C79.158,21.031 79.5,20.689 79.5,20.266L79.5,12.415C79.5,11.993 79.158,11.65 78.735,11.65L70.515,11.65Z" style="fill:white;"/>
                </g>
                <circle id="Ellipse-169" serif:id="Ellipse 169" cx="91.742" cy="18.755" r="2.048" style="fill:white;"/>
                <circle id="Ellipse-170" serif:id="Ellipse 170" cx="91.741" cy="27.096" r="2.048" style="fill:white;"/>
                <g id="Ellipse-169_2" serif:id="Ellipse 169_2" transform="matrix(-3.82857e-16,-1,1,-3.82857e-16,64.3501,110.201)">
                    <circle cx="87.275" cy="22.925" r="2.048" style="fill:white;"/>
                </g>
                <g id="Ellipse-170_2" serif:id="Ellipse 170_2" transform="matrix(-3.82857e-16,-1,1,-3.82857e-16,73.2808,119.132)">
                    <circle cx="96.206" cy="22.925" r="2.048" style="fill:white;"/>
                </g>
            </g>
        </g>
    </g>
</svg>
