<?xml version="1.0" encoding="UTF-8" standalone="no"?><!DOCTYPE svg PUBLIC "-//W3C//DTD SVG 1.1//EN" "http://www.w3.org/Graphics/SVG/1.1/DTD/svg11.dtd"><svg width="100%" height="100%" viewBox="0 0 530 400" version="1.1" xmlns="http://www.w3.org/2000/svg" xmlns:xlink="http://www.w3.org/1999/xlink" xml:space="preserve" xmlns:serif="http://www.serif.com/" style="fill-rule:evenodd;clip-rule:evenodd;stroke-linejoin:round;stroke-miterlimit:2;"><path d="M519,76.11c0,-37.424 -30.384,-67.808 -67.808,-67.808l-372.384,-0c-37.424,-0 -67.808,30.384 -67.808,67.808l0,247.78c0,37.424 30.384,67.808 67.808,67.808l372.384,0c37.424,0 67.808,-30.384 67.808,-67.808l0,-247.78Zm-24,-0l0,247.78c0,24.178 -19.63,43.808 -43.808,43.808c0,0 -372.384,0 -372.384,0c-24.178,0 -43.808,-19.63 -43.808,-43.808l0,-247.78c0,-24.178 19.63,-43.808 43.808,-43.808c-0,-0 372.384,-0 372.384,-0c24.178,-0 43.808,19.63 43.808,43.808Z" style="fill:#fff;"/><text x="178.381px" y="340.316px" style="font-family:'EuphemiaUCAS-Bold', 'Euphemia UCAS', sans-serif;font-weight:700;font-size:360.56px;fill:#fff;">?</text></svg>