<?xml version="1.0" encoding="UTF-8" standalone="no"?><!DOCTYPE svg PUBLIC "-//W3C//DTD SVG 1.1//EN" "http://www.w3.org/Graphics/SVG/1.1/DTD/svg11.dtd"><svg width="100%" height="100%" viewBox="0 0 1920 1080" version="1.1" xmlns="http://www.w3.org/2000/svg" xmlns:xlink="http://www.w3.org/1999/xlink" xml:space="preserve" xmlns:serif="http://www.serif.com/" style="fill-rule:evenodd;clip-rule:evenodd;"><rect x="0" y="0" width="1920" height="1080" style="fill:#343434;"/><path d="M1188.18,-55.916l8.029,0l-0,-13.047l7.935,0l0,13.047l7.527,0l0,-13.047l7.936,0l0,13.047l7.527,0l0,-13.047l7.943,0l0,13.047l8.029,0l-0,-13.047l7.936,0l-0,13.047l8.029,0l-0,-13.047l7.935,0l0,13.047l8.029,0l0,-13.047l7.943,0l0,13.047l8.029,0l-0,-13.047l7.936,0l-0,13.047l8.028,0l0,-13.047l7.936,0l0,13.047l7.527,0l0,-13.047l7.936,0l-0,13.047l8.029,0l-0,-13.047l7.943,0l-0,13.047l7.527,0l-0,-13.047l7.936,0l-0,13.047l8.028,0l0,-13.047l7.936,0l0,13.047l7.527,0l0,-13.047l7.943,0l0,13.047l8.029,0l-0,-13.047l7.936,0l-0,13.047l7.527,0l-0,-13.047l7.935,0l0,13.047l8.029,0l0,-13.047l7.936,0l-0,13.047l8.029,0l-0,-13.047l7.943,0l-0,13.047l8.029,0l-0,-13.047l7.935,0l0,13.047l8.029,0l0,-13.047l7.936,0l-0,13.047l8.029,0l-0,-13.047l7.936,0l-0,13.047l7.527,0l-0,-13.047l7.942,0l0,13.047l7.528,0l-0,-13.047l7.935,0l0,13.047l8.029,0l0,-13.047l42.403,0c18.71,0 33.872,15.166 33.872,33.872l-0,537.936c-0,27.021 -21.908,48.926 -48.926,48.926l-409.976,-0c-27.018,-0 -48.926,-21.905 -48.926,-48.926l0,-537.936c0,-18.706 15.169,-33.872 33.872,-33.872l42.403,0l-0,13.047Z" style="fill:none;stroke:#c9c9c9;stroke-width:0.72px;"/><path d="M1127.46,-32.833c0,-11.085 8.99,-20.072 20.073,-20.072l437.072,0c11.083,0 20.072,8.987 20.072,20.072l0,533.922c0,19.399 -15.728,35.126 -35.126,35.126l-406.964,-0c-19.399,-0 -35.127,-15.727 -35.127,-35.126l0,-533.922Z" style="fill:none;fill-rule:nonzero;stroke:#c9c9c9;stroke-width:0.72px;"/><path d="M1556.01,5.305l-380.368,-0c-10.811,-0 -19.571,8.762 -19.571,19.57l0,387.896c0,10.809 8.76,19.57 19.571,19.57l380.368,0c10.811,0 19.571,-8.761 19.571,-19.57l-0,-387.896c-0,-10.808 -8.76,-19.57 -19.571,-19.57Z" style="fill:none;fill-rule:nonzero;stroke:#c9c9c9;stroke-width:0.72px;"/><path d="M1516.11,95.63c17.878,-0 32.366,-14.491 32.366,-32.367c0,-17.875 -14.488,-32.366 -32.366,-32.366c-17.879,-0 -32.367,14.491 -32.367,32.366c0,17.876 14.488,32.367 32.367,32.367Z" style="fill:none;stroke:#c9c9c9;stroke-width:0.72px;"/><path d="M1192.2,171.914c0,-4.717 3.821,-8.541 8.538,-8.541l329.17,0c4.717,0 8.538,3.824 8.538,8.541l0,12.57c0,12.67 -9.369,23.348 -21.965,24.708c-31.241,3.374 -91.386,8.878 -151.308,8.878c-59.88,0 -119.846,-5.497 -151.015,-8.872c-12.596,-1.363 -21.958,-12.038 -21.958,-24.704l0,-12.58Z" style="fill:none;stroke:#c9c9c9;stroke-width:0.72px;"/><path d="M1181.66,166.384c0,-8.314 6.739,-15.054 15.054,-15.054l336.712,0c8.316,0 15.054,6.74 15.054,15.054l0,20.479c0,17.527 -13.068,32.247 -30.517,33.891c-34.574,3.258 -93.83,7.854 -152.936,7.854c-59.084,0 -118.297,-4.594 -152.857,-7.852c-17.448,-1.645 -30.51,-16.364 -30.51,-33.89l0,-20.482Z" style="fill:none;stroke:#c9c9c9;stroke-width:0.72px;"/><path d="M1361.98,205.6c2.007,1.923 5.175,1.923 7.183,0l11.713,-11.203c0.724,-0.694 0.237,-1.919 -0.767,-1.919l-29.076,0c-1.004,0 -1.491,1.225 -0.767,1.919l11.714,11.203Z" style="fill:none;stroke:#c9c9c9;stroke-width:0.72px;"/><path d="M1225.76,170.619c-0,-1.23 -1.004,-2.228 -2.23,-2.228c-1.233,0 -2.229,0.998 -2.229,2.228l-0,31.935c-0,1.231 0.996,2.228 2.229,2.228c1.226,0 2.23,-0.997 2.23,-2.228l-0,-31.935Z" style="fill:none;fill-rule:nonzero;stroke:#c9c9c9;stroke-width:0.72px;"/><path d="M1509.09,170.619c0,-1.23 -1.003,-2.228 -2.229,-2.228c-1.233,0 -2.229,0.998 -2.229,2.228l-0,31.935c-0,1.231 0.996,2.228 2.229,2.228c1.226,0 2.229,-0.997 2.229,-2.228l0,-31.935Z" style="fill:none;fill-rule:nonzero;stroke:#c9c9c9;stroke-width:0.72px;"/><path d="M1254.42,315.42l-45.162,0c-8.588,0 -15.556,6.966 -15.556,15.556l-0,57.206c-0,8.592 6.968,15.556 15.556,15.556l45.162,0c8.588,0 15.556,-6.964 15.556,-15.556l0,-57.206c0,-8.59 -6.968,-15.556 -15.556,-15.556Z" style="fill:none;fill-rule:nonzero;stroke:#c9c9c9;stroke-width:0.72px;"/><path d="M1253.87,321.442l-44.058,0c-5.57,0 -10.087,4.517 -10.087,10.089l0,56.096c0,5.573 4.517,10.09 10.087,10.09l44.058,-0c5.57,-0 10.086,-4.517 10.086,-10.09l0,-56.096c0,-5.572 -4.516,-10.089 -10.086,-10.089Z" style="fill:none;fill-rule:nonzero;stroke:#c9c9c9;stroke-width:0.72px;"/><path d="M1253.67,332.84l-43.657,0c-4.932,0 -8.925,3.997 -8.925,8.927l0,45.661c0,4.93 3.993,8.927 8.925,8.927l43.657,-0c4.932,-0 8.925,-3.997 8.925,-8.927l0,-45.661c0,-4.93 -3.993,-8.927 -8.925,-8.927Z" style="fill:none;fill-rule:nonzero;stroke:#c9c9c9;stroke-width:0.72px;"/><rect x="1201.09" y="353.916" width="61.507" height="7.312" style="fill:none;fill-rule:nonzero;stroke:#c9c9c9;stroke-width:0.72px;"/><rect x="1201.09" y="345.887" width="61.507" height="22.868" style="fill:none;fill-rule:nonzero;stroke:#c9c9c9;stroke-width:0.72px;"/><path d="M1428.05,315.42l-125.452,0c-8.588,0 -15.556,6.966 -15.556,15.556l0,57.206c0,8.592 6.968,15.556 15.556,15.556l125.452,0c8.588,0 15.556,-6.964 15.556,-15.556l-0,-57.206c-0,-8.59 -6.968,-15.556 -15.556,-15.556Z" style="fill:none;fill-rule:nonzero;stroke:#c9c9c9;stroke-width:0.72px;"/><path d="M1427.49,321.442l-124.348,0c-5.57,0 -10.086,4.517 -10.086,10.089l0,56.096c0,5.573 4.516,10.09 10.086,10.09l124.348,-0c5.57,-0 10.086,-4.517 10.086,-10.09l0,-56.096c0,-5.572 -4.516,-10.089 -10.086,-10.089Z" style="fill:none;fill-rule:nonzero;stroke:#c9c9c9;stroke-width:0.72px;"/><path d="M1521.38,315.42l-45.163,0c-8.588,0 -15.556,6.966 -15.556,15.556l0,57.206c0,8.592 6.968,15.556 15.556,15.556l45.163,0c8.588,0 15.556,-6.964 15.556,-15.556l-0,-57.206c-0,-8.59 -6.968,-15.556 -15.556,-15.556Z" style="fill:none;fill-rule:nonzero;stroke:#c9c9c9;stroke-width:0.72px;"/><path d="M1520.83,321.442l-44.059,0c-5.57,0 -10.086,4.517 -10.086,10.089l-0,56.096c-0,5.573 4.516,10.09 10.086,10.09l44.059,-0c5.57,-0 10.086,-4.517 10.086,-10.09l-0,-56.096c-0,-5.572 -4.516,-10.089 -10.086,-10.089Z" style="fill:none;fill-rule:nonzero;stroke:#c9c9c9;stroke-width:0.72px;"/><path d="M1520.63,322.804l-43.657,0c-4.932,0 -8.925,3.997 -8.925,8.927l-0,55.697c-0,4.93 3.993,8.927 8.925,8.927l43.657,-0c4.932,-0 8.925,-3.997 8.925,-8.927l-0,-55.697c-0,-4.93 -3.993,-8.927 -8.925,-8.927Z" style="fill:none;fill-rule:nonzero;stroke:#c9c9c9;stroke-width:0.72px;"/><path d="M1185.42,360.081c1.799,0 3.262,-1.46 3.262,-3.262c-0,-1.801 -1.463,-3.261 -3.262,-3.261c-1.799,-0 -3.262,1.46 -3.262,3.261c0,1.802 1.463,3.262 3.262,3.262Z" style="fill:none;stroke:#c9c9c9;stroke-width:0.72px;"/><path d="M1185.42,350.045c1.799,0 3.262,-1.46 3.262,-3.262c-0,-1.801 -1.463,-3.261 -3.262,-3.261c-1.799,-0 -3.262,1.46 -3.262,3.261c0,1.802 1.463,3.262 3.262,3.262Z" style="fill:none;stroke:#c9c9c9;stroke-width:0.72px;"/><rect x="1184.67" y="432.341" width="3.513" height="103.874" style="fill:none;fill-rule:nonzero;stroke:#c9c9c9;stroke-width:0.72px;"/><rect x="1543.46" y="432.341" width="3.513" height="103.874" style="fill:none;fill-rule:nonzero;stroke:#c9c9c9;stroke-width:0.72px;"/><path d="M1504.07,500.085l-15.556,-0c-1.799,-0 -3.261,1.46 -3.261,3.262c-0,1.801 1.462,3.261 3.261,3.261l15.556,0c1.8,0 3.262,-1.46 3.262,-3.261c0,-1.802 -1.462,-3.262 -3.262,-3.262Z" style="fill:none;fill-rule:nonzero;stroke:#c9c9c9;stroke-width:0.72px;"/><path d="M1504.07,497.576l-15.556,-0c-3.19,-0 -5.77,2.584 -5.77,5.771c-0,3.187 2.58,5.77 5.77,5.77l15.556,0c3.19,0 5.771,-2.583 5.771,-5.77c0,-3.187 -2.581,-5.771 -5.771,-5.771Z" style="fill:none;fill-rule:nonzero;stroke:#c9c9c9;stroke-width:0.72px;"/><path d="M60.553,438.004l8.029,0l-0,-13.047l7.938,0l-0,13.047l7.527,0l-0,-13.047l7.937,0l-0,13.047l7.527,0l-0,-13.047l7.938,0l-0,13.047l8.029,0l-0,-13.047l7.937,0l0,13.047l8.029,0l-0,-13.047l7.935,0l0,13.047l8.029,0l0,-13.047l7.943,0l0,13.047l8.029,0l0,-13.047l7.936,0l-0,13.047l8.029,0l-0,-13.047l7.935,0l0,13.047l7.527,0l0,-13.047l7.936,0l0,13.047l8.029,0l-0,-13.047l7.943,0l-0,13.047l7.527,0l-0,-13.047l7.936,0l-0,13.047l8.028,0l0,-13.047l7.936,0l0,13.047l7.527,0l0,-13.047l7.943,0l0,13.047l8.029,0l0,-13.047l7.936,0l-0,13.047l7.527,0l-0,-13.047l7.936,0l-0,13.047l8.028,0l0,-13.047l7.936,0l0,13.047l8.029,0l-0,-13.047l7.943,0l-0,13.047l8.029,0l-0,-13.047l7.935,0l0,13.047l8.029,0l0,-13.047l7.936,0l0,13.047l8.029,0l-0,-13.047l7.936,0l-0,13.047l7.527,0l-0,-13.047l7.943,0l-0,13.047l7.527,0l-0,-13.047l7.935,0l0,13.047l8.029,0l0,-13.047l42.403,0c18.71,0 33.872,15.166 33.872,33.872l-0,537.936c-0,27.019 -21.908,48.926 -48.926,48.926l-409.976,0c-27.02,0 -48.926,-21.907 -48.926,-48.926l0,-537.936c0,-18.706 15.166,-33.872 33.872,-33.872l42.403,0l-0,13.047Z" style="fill:none;stroke:#c9c9c9;stroke-width:0.72px;"/><path d="M-0.166,461.087c0,-11.085 8.987,-20.072 20.073,-20.072l437.072,0c11.083,0 20.073,8.987 20.073,20.072l-0,533.922c-0,19.398 -15.728,35.126 -35.127,35.126l-406.964,0c-19.4,0 -35.127,-15.728 -35.127,-35.126l0,-533.922Z" style="fill:none;fill-rule:nonzero;stroke:#c9c9c9;stroke-width:0.72px;"/><path d="M428.376,499.225l-380.368,-0c-10.808,-0 -19.571,8.762 -19.571,19.57l0,387.896c0,10.81 8.763,19.57 19.571,19.57l380.368,0c10.809,0 19.571,-8.76 19.571,-19.57l-0,-387.896c-0,-10.808 -8.762,-19.57 -19.571,-19.57Z" style="fill:none;fill-rule:nonzero;stroke:#c9c9c9;stroke-width:0.72px;"/><path d="M388.483,589.55c17.878,-0 32.366,-14.491 32.366,-32.367c0,-17.875 -14.488,-32.366 -32.366,-32.366c-17.879,-0 -32.366,14.491 -32.366,32.366c-0,17.876 14.487,32.367 32.366,32.367Z" style="fill:none;stroke:#c9c9c9;stroke-width:0.72px;"/><path d="M64.567,665.834c0,-4.717 3.824,-8.541 8.541,-8.541l329.167,0c4.717,0 8.538,3.824 8.538,8.541l0,12.57c0,12.67 -9.369,23.348 -21.965,24.708c-31.241,3.374 -91.386,8.878 -151.308,8.878c-59.88,0 -119.849,-5.497 -151.017,-8.872c-12.593,-1.363 -21.956,-12.038 -21.956,-24.704l0,-12.58Z" style="fill:none;stroke:#c9c9c9;stroke-width:0.72px;"/><path d="M54.029,660.304c0,-8.314 6.74,-15.054 15.055,-15.054l336.711,0c8.316,0 15.054,6.74 15.054,15.054l0,20.479c0,17.527 -13.068,32.247 -30.517,33.891c-34.574,3.258 -93.83,7.854 -152.936,7.854c-59.084,0 -118.3,-4.594 -152.855,-7.852c-17.448,-1.645 -30.512,-16.363 -30.512,-33.89l0,-20.482Z" style="fill:none;stroke:#c9c9c9;stroke-width:0.72px;"/><path d="M381.455,664.54c-0,-1.231 -0.997,-2.228 -2.228,-2.228c-1.23,-0 -2.228,0.997 -2.228,2.228l-0,31.934c-0,1.231 0.998,2.228 2.228,2.228c1.231,0 2.228,-0.997 2.228,-2.228l-0,-31.934Z" style="fill:none;fill-rule:nonzero;stroke:#c9c9c9;stroke-width:0.72px;"/><path d="M300.416,809.341l-125.451,-0c-8.592,-0 -15.556,6.968 -15.556,15.556l-0,57.205c-0,8.588 6.964,15.556 15.556,15.556l125.451,0c8.591,0 15.556,-6.968 15.556,-15.556l-0,-57.205c-0,-8.588 -6.965,-15.556 -15.556,-15.556Z" style="fill:none;fill-rule:nonzero;stroke:#c9c9c9;stroke-width:0.72px;"/><path d="M299.862,815.362l-124.343,0c-5.572,0 -10.089,4.516 -10.089,10.087l0,56.101c0,5.57 4.517,10.087 10.089,10.087l124.343,-0c5.572,-0 10.088,-4.517 10.088,-10.087l0,-56.101c0,-5.571 -4.516,-10.087 -10.088,-10.087Z" style="fill:none;fill-rule:nonzero;stroke:#c9c9c9;stroke-width:0.72px;"/><path d="M393.752,809.341l-45.163,-0c-8.591,-0 -15.556,6.968 -15.556,15.556l0,57.205c0,8.588 6.965,15.556 15.556,15.556l45.163,0c8.591,0 15.556,-6.968 15.556,-15.556l-0,-57.205c-0,-8.588 -6.965,-15.556 -15.556,-15.556Z" style="fill:none;fill-rule:nonzero;stroke:#c9c9c9;stroke-width:0.72px;"/><path d="M393.197,815.362l-44.053,0c-5.572,0 -10.089,4.516 -10.089,10.087l-0,56.101c-0,5.57 4.517,10.087 10.089,10.087l44.053,-0c5.572,-0 10.089,-4.517 10.089,-10.087l0,-56.101c0,-5.571 -4.517,-10.087 -10.089,-10.087Z" style="fill:none;fill-rule:nonzero;stroke:#c9c9c9;stroke-width:0.72px;"/><path d="M392.998,816.724l-43.655,0c-4.93,0 -8.926,3.993 -8.926,8.925l-0,55.701c-0,4.932 3.996,8.925 8.926,8.925l43.655,-0c4.93,-0 8.926,-3.993 8.926,-8.925l0,-55.701c0,-4.932 -3.996,-8.925 -8.926,-8.925Z" style="fill:none;fill-rule:nonzero;stroke:#c9c9c9;stroke-width:0.72px;"/><path d="M1946.9,592.704l-820.438,-0c-7.291,-0 -13.19,5.905 -13.19,13.19l-0,592.246c-0,7.283 5.899,13.19 13.19,13.19l820.438,-0c7.283,-0 13.19,-5.907 13.19,-13.19l-0,-592.246c-0,-7.285 -5.907,-13.19 -13.19,-13.19Z" style="fill:none;fill-rule:nonzero;stroke:#c9c9c9;stroke-width:0.72px;"/><path d="M1780.05,712.076l-486.063,0c-64.841,0 -117.394,52.559 -117.394,117.394c0,64.833 52.553,117.394 117.394,117.394l486.063,-0c64.833,-0 117.394,-52.561 117.394,-117.394c-0,-64.835 -52.561,-117.394 -117.394,-117.394Z" style="fill:none;fill-rule:nonzero;stroke:#c9c9c9;stroke-width:0.72px;"/><path d="M1785.98,783.964l-497.275,-0c-25.134,-0 -45.507,20.373 -45.507,45.506c0,25.133 20.373,45.507 45.507,45.507l497.275,-0c25.133,-0 45.506,-20.374 45.506,-45.507c0,-25.133 -20.373,-45.506 -45.506,-45.506Z" style="fill:none;fill-rule:nonzero;stroke:#c9c9c9;stroke-width:0.72px;"/><rect x="1288.71" y="783.964" width="497.275" height="91.013" style="fill:none;fill-rule:nonzero;stroke:#c9c9c9;stroke-width:0.72px;"/><rect x="1356.64" y="783.964" width="362.074" height="91.013" style="fill:none;fill-rule:nonzero;stroke:#c9c9c9;stroke-width:0.72px;"/><path d="M1289.04,832.438l497.275,-0" style="fill:none;fill-rule:nonzero;stroke:#c9c9c9;stroke-width:0.72px;"/><path d="M1960.1,610.511l-11.871,-0l-0,14.509l-7.255,0l0,-14.509l-8.574,-0l0,14.509l-7.254,0l-0,-14.509l-8.574,-0l-0,14.509l-7.255,0l0,-14.509l-8.573,-0l-0,14.509l-7.255,0l-0,-14.509l-8.574,-0l0,14.509l-7.254,0l-0,-14.509l-8.574,-0l-0,14.509l-7.255,0l0,-14.509l-8.574,-0l0,14.509l-7.254,0l-0,-14.509l-8.574,-0l0,14.509l-7.255,0l0,-14.509l-8.573,-0l-0,14.509l-7.255,0l-0,-14.509l-45.564,-0l-0.287,0.003c-3.555,0.074 -6.946,1.513 -9.47,4.018l-0.207,0.212l-24.99,25.902c-4.524,4.68 -10.717,7.36 -17.212,7.455l-0.352,0.002l-359.156,0c-6.502,0 -12.732,-2.596 -17.312,-7.204l-0.244,-0.253l-24.997,-25.902c-2.538,-2.636 -6.022,-4.154 -9.678,-4.23l-0.287,-0.003l-44.897,-0l0,14.509l-7.255,0l0,-14.509l-8.573,-0l-0,14.509l-7.255,0l0,-14.509l-8.574,-0l0,14.509l-7.254,0l-0,-14.509l-8.574,-0l-0,14.509l-7.255,0l0,-14.509l-8.573,-0l-0,14.509l-7.255,0l-0,-14.509l-8.574,-0l0,14.509l-7.255,0l0,-14.509l-8.573,-0l-0,14.509l-7.255,0l0,-14.509l-8.574,-0l0,14.509l-7.254,0l-0,-14.509l-8.574,-0l0,14.509l-7.255,0l0,-14.509l-12.53,-0" style="fill:none;fill-rule:nonzero;stroke:#c9c9c9;stroke-width:0.72px;"/><path d="M1960.1,622.382l-11.871,0l-0,2.638l-7.255,0l0,-2.638l-8.574,0l0,2.638l-7.254,0l-0,-2.638l-8.574,0l-0,2.638l-7.255,0l0,-2.638l-8.573,0l-0,2.638l-7.255,0l-0,-2.638l-8.574,0l0,2.638l-7.254,0l-0,-2.638l-8.574,0l-0,2.638l-7.255,0l0,-2.638l-8.574,0l0,2.638l-7.254,0l-0,-2.638l-8.574,0l0,2.638l-7.255,0l0,-2.638l-8.573,0l-0,2.638l-7.255,0l-0,-2.638l-11.929,0l-0.251,0.004c-3.663,0.086 -7.161,2.063 -9.713,5.505l-11.563,15.596l-13.427,18.463c-4.531,6.225 -10.746,9.784 -17.255,9.893l-0.308,0.003l-425.768,-0c-6.617,-0 -12.961,-3.572 -17.556,-9.896l-13.427,-18.463l-11.57,-15.596c-2.609,-3.52 -6.208,-5.509 -9.964,-5.509l-11.922,0l0,2.638l-7.255,0l0,-2.638l-8.573,0l-0,2.638l-7.255,0l0,-2.638l-8.574,0l0,2.638l-7.254,0l-0,-2.638l-8.574,0l-0,2.638l-7.255,0l0,-2.638l-8.573,0l-0,2.638l-7.255,0l-0,-2.638l-8.574,0l0,2.638l-7.255,0l0,-2.638l-8.573,0l-0,2.638l-7.255,0l0,-2.638l-8.574,0l0,2.638l-7.254,0l-0,-2.638l-8.574,0l0,2.638l-7.255,0l0,-2.638l-12.53,0" style="fill:none;fill-rule:nonzero;stroke:#c9c9c9;stroke-width:0.72px;"/><path d="M1452.27,605.894l-100.247,0c-1.821,0 -3.297,1.476 -3.297,3.298c-0,1.821 1.476,3.297 3.297,3.297l100.247,0c1.821,0 3.297,-1.476 3.297,-3.297c0,-1.822 -1.476,-3.298 -3.297,-3.298Z" style="fill:none;fill-rule:nonzero;stroke:#c9c9c9;stroke-width:0.72px;"/><path d="M1594.06,605.894l-123.989,0c-1.821,0 -3.298,1.476 -3.298,3.298c0,1.821 1.477,3.297 3.298,3.297l123.989,0c1.82,0 3.297,-1.476 3.297,-3.297c0,-1.822 -1.477,-3.298 -3.297,-3.298Z" style="fill:none;fill-rule:nonzero;stroke:#c9c9c9;stroke-width:0.72px;"/><path d="M1594.06,619.085l-123.989,-0c-1.821,-0 -3.298,1.476 -3.298,3.297c0,1.821 1.477,3.298 3.298,3.298l123.989,-0c1.82,-0 3.297,-1.477 3.297,-3.298c0,-1.821 -1.477,-3.297 -3.297,-3.297Z" style="fill:none;fill-rule:nonzero;stroke:#c9c9c9;stroke-width:0.72px;"/><path d="M1594.06,632.275l-123.989,-0c-1.821,-0 -3.298,1.477 -3.298,3.297c0,1.822 1.477,3.298 3.298,3.298l123.989,0c1.82,0 3.297,-1.476 3.297,-3.298c0,-1.82 -1.477,-3.297 -3.297,-3.297Z" style="fill:none;fill-rule:nonzero;stroke:#c9c9c9;stroke-width:0.72px;"/><path d="M1452.27,619.085l-89.694,-0c-1.821,-0 -3.298,1.476 -3.298,3.297c-0,1.821 1.477,3.298 3.298,3.298l89.694,-0c1.821,-0 3.297,-1.477 3.297,-3.298c0,-1.821 -1.476,-3.297 -3.297,-3.297Z" style="fill:none;fill-rule:nonzero;stroke:#c9c9c9;stroke-width:0.72px;"/><path d="M1452.27,632.275l-79.802,-0c-1.821,-0 -3.297,1.477 -3.297,3.297c-0,1.822 1.476,3.298 3.297,3.298l79.802,0c1.821,0 3.297,-1.476 3.297,-3.298c0,-1.82 -1.476,-3.297 -3.297,-3.297Z" style="fill:none;fill-rule:nonzero;stroke:#c9c9c9;stroke-width:0.72px;"/><path d="M1113.28,712.076l846.818,0" style="fill:none;fill-rule:nonzero;stroke:#c9c9c9;stroke-width:0.72px;"/><path d="M1305.86,696.907c0,-2.549 2.065,-4.616 4.617,-4.616l451.109,-0c2.545,-0 4.616,2.067 4.616,4.616l0,514.423l-460.342,-0l0,-514.423Z" style="fill:none;fill-rule:nonzero;stroke:#c9c9c9;stroke-width:0.72px;"/><path d="M1309.15,697.567c-0,-1.093 0.882,-1.979 1.978,-1.979l449.79,0c1.09,0 1.979,0.886 1.979,1.979l-0,513.763l-453.747,-0l-0,-513.763Z" style="fill:none;fill-rule:nonzero;stroke:#c9c9c9;stroke-width:0.72px;"/><rect x="-40.095" y="-131.33" width="1109.92" height="518.15" style="fill:none;fill-rule:nonzero;stroke:#c9c9c9;stroke-width:0.72px;"/><path d="M939.358,62.51l130.469,237.836" style="fill:none;fill-rule:nonzero;stroke:#c9c9c9;stroke-width:0.72px;stroke-linecap:square;"/><rect x="519.992" y="-62.367" width="389.545" height="365.314" style="fill:none;fill-rule:nonzero;stroke:#c9c9c9;stroke-width:0.72px;"/><rect x="519.992" y="93.264" width="389.545" height="43.801" style="fill:none;fill-rule:nonzero;stroke:#c9c9c9;stroke-width:0.72px;"/><rect x="543.29" y="106.311" width="68.031" height="18.638" style="fill:none;fill-rule:nonzero;stroke:#c9c9c9;stroke-width:0.72px;"/><rect x="819.14" y="106.311" width="68.031" height="18.638" style="fill:none;fill-rule:nonzero;stroke:#c9c9c9;stroke-width:0.72px;"/><path d="M527.447,100.72l190.113,-0l-9.319,29.821l-180.794,0l0,-29.821Z" style="fill:none;stroke:#c9c9c9;stroke-width:0.72px;"/><path d="M728.743,100.72l173.338,-0l-0,29.821l-182.657,0l9.319,-29.821Z" style="fill:none;stroke:#c9c9c9;stroke-width:0.72px;"/><rect x="522.788" y="139.86" width="383.953" height="160.291" style="fill:none;fill-rule:nonzero;stroke:#c9c9c9;stroke-width:0.72px;"/><rect x="-40.095" y="313.198" width="1109.92" height="73.622" style="fill:none;fill-rule:nonzero;stroke:#c9c9c9;stroke-width:0.72px;"/><rect x="519.992" y="352.339" width="90.397" height="14.911" style="fill:none;fill-rule:nonzero;stroke:#c9c9c9;stroke-width:0.72px;"/><rect x="894.625" y="352.339" width="90.397" height="14.911" style="fill:none;fill-rule:nonzero;stroke:#c9c9c9;stroke-width:0.72px;"/><path d="M-40.095,375.637l718.514,0.018l-0,-46.614l177.998,-0l-0,46.596l213.41,0" style="fill:none;fill-rule:nonzero;stroke:#c9c9c9;stroke-width:0.72px;"/><rect x="678.419" y="329.041" width="177.998" height="10.251" style="fill:none;fill-rule:nonzero;stroke:#c9c9c9;stroke-width:0.72px;"/><path d="M527.662,460.442c0,-19.597 15.887,-35.485 35.485,-35.485l477.432,0c19.599,0 35.485,15.888 35.485,35.485l0,505.39l-548.402,0l0,-505.39Z" style="fill:none;fill-rule:nonzero;stroke:#c9c9c9;stroke-width:0.72px;"/><path d="M650.246,814.215l-104.304,0l0,-353.773c0,-10.095 8.185,-18.28 18.28,-18.28l475.282,0c10.093,0 18.28,8.185 18.28,18.28l-0,353.773l-103.229,0" style="fill:none;fill-rule:nonzero;stroke:#c9c9c9;stroke-width:0.72px;"/><path d="M650.246,616.898c0,-84.032 68.391,-152.155 152.424,-152.155c83.736,0 151.885,67.882 151.885,151.617l0,349.472l-304.309,0l0,-348.934Z" style="fill:none;fill-rule:nonzero;stroke:#c9c9c9;stroke-width:0.72px;"/><path d="M926.598,424.957l-0,13.979l8.602,0l0,-13.979l-8.602,0Z" style="fill:none;stroke:#c9c9c9;stroke-width:0.72px;stroke-linecap:round;stroke-linejoin:round;"/><path d="M668.526,424.957l0,13.979l8.603,0l-0,-13.979l-8.603,0Z" style="fill:none;stroke:#c9c9c9;stroke-width:0.72px;stroke-linecap:round;stroke-linejoin:round;"/><path d="M681.43,424.957l-0,13.979l8.602,0l0,-13.979l-8.602,0Z" style="fill:none;stroke:#c9c9c9;stroke-width:0.72px;stroke-linecap:round;stroke-linejoin:round;"/><path d="M694.333,424.957l0,13.979l8.603,0l-0,-13.979l-8.603,0Z" style="fill:none;stroke:#c9c9c9;stroke-width:0.72px;stroke-linecap:round;stroke-linejoin:round;"/><path d="M707.237,424.957l-0,13.979l8.602,0l0,-13.979l-8.602,0Z" style="fill:none;stroke:#c9c9c9;stroke-width:0.72px;stroke-linecap:round;stroke-linejoin:round;"/><path d="M720.141,424.957l-0,13.979l8.602,0l-0,-13.979l-8.602,0Z" style="fill:none;stroke:#c9c9c9;stroke-width:0.72px;stroke-linecap:round;stroke-linejoin:round;"/><path d="M733.044,424.957l0,13.979l8.602,0l0,-13.979l-8.602,0Z" style="fill:none;stroke:#c9c9c9;stroke-width:0.72px;stroke-linecap:round;stroke-linejoin:round;"/><path d="M745.948,424.957l-0,13.979l8.602,0l0,-13.979l-8.602,0Z" style="fill:none;stroke:#c9c9c9;stroke-width:0.72px;stroke-linecap:round;stroke-linejoin:round;"/><path d="M758.851,424.957l0,13.979l8.603,0l-0,-13.979l-8.603,0Z" style="fill:none;stroke:#c9c9c9;stroke-width:0.72px;stroke-linecap:round;stroke-linejoin:round;"/><path d="M771.755,424.957l-0,13.979l8.602,0l0,-13.979l-8.602,0Z" style="fill:none;stroke:#c9c9c9;stroke-width:0.72px;stroke-linecap:round;stroke-linejoin:round;"/><path d="M784.658,424.957l0,13.979l8.603,0l-0,-13.979l-8.603,0Z" style="fill:none;stroke:#c9c9c9;stroke-width:0.72px;stroke-linecap:round;stroke-linejoin:round;"/><path d="M797.562,424.957l-0,13.979l8.602,0l0,-13.979l-8.602,0Z" style="fill:none;stroke:#c9c9c9;stroke-width:0.72px;stroke-linecap:round;stroke-linejoin:round;"/><path d="M810.466,424.957l-0,13.979l8.602,0l-0,-13.979l-8.602,0Z" style="fill:none;stroke:#c9c9c9;stroke-width:0.72px;stroke-linecap:round;stroke-linejoin:round;"/><path d="M823.369,424.957l0,13.979l8.602,0l0,-13.979l-8.602,0Z" style="fill:none;stroke:#c9c9c9;stroke-width:0.72px;stroke-linecap:round;stroke-linejoin:round;"/><path d="M836.273,424.957l-0,13.979l8.602,0l0,-13.979l-8.602,0Z" style="fill:none;stroke:#c9c9c9;stroke-width:0.72px;stroke-linecap:round;stroke-linejoin:round;"/><path d="M849.176,424.957l0,13.979l8.603,0l-0,-13.979l-8.603,0Z" style="fill:none;stroke:#c9c9c9;stroke-width:0.72px;stroke-linecap:round;stroke-linejoin:round;"/><path d="M862.08,424.957l-0,13.979l8.602,0l0,-13.979l-8.602,0Z" style="fill:none;stroke:#c9c9c9;stroke-width:0.72px;stroke-linecap:round;stroke-linejoin:round;"/><path d="M874.983,424.957l0,13.979l8.603,0l-0,-13.979l-8.603,0Z" style="fill:none;stroke:#c9c9c9;stroke-width:0.72px;stroke-linecap:round;stroke-linejoin:round;"/><path d="M887.887,424.957l-0,13.979l8.602,0l0,-13.979l-8.602,0Z" style="fill:none;stroke:#c9c9c9;stroke-width:0.72px;stroke-linecap:round;stroke-linejoin:round;"/><path d="M900.791,424.957l-0,13.979l8.602,0l-0,-13.979l-8.602,0Z" style="fill:none;stroke:#c9c9c9;stroke-width:0.72px;stroke-linecap:round;stroke-linejoin:round;"/><path d="M913.694,424.957l0,13.979l8.602,0l0,-13.979l-8.602,0Z" style="fill:none;stroke:#c9c9c9;stroke-width:0.72px;stroke-linecap:round;stroke-linejoin:round;"/><path d="M685.731,742.17c-0,-6.532 5.295,-11.828 11.828,-11.828l210.759,0c6.532,0 11.828,5.296 11.828,11.828l-0,223.662l-234.415,0l-0,-223.662Z" style="fill:none;fill-rule:nonzero;stroke:#c9c9c9;stroke-width:0.72px;"/><rect x="693.258" y="740.02" width="220.436" height="5.376" style="fill:none;stroke:#c9c9c9;stroke-width:0.72px;"/><rect x="693.258" y="748.622" width="220.436" height="134.412" style="fill:none;stroke:#c9c9c9;stroke-width:0.72px;"/><rect x="545.942" y="821.742" width="104.304" height="8.602" style="fill:none;stroke:#c9c9c9;stroke-width:0.72px;"/><rect x="554.545" y="830.345" width="95.701" height="7.527" style="fill:none;stroke:#c9c9c9;stroke-width:0.72px;"/><rect x="554.545" y="814.215" width="95.701" height="7.527" style="fill:none;stroke:#c9c9c9;stroke-width:0.72px;"/><rect x="954.555" y="821.742" width="104.304" height="8.602" style="fill:none;stroke:#c9c9c9;stroke-width:0.72px;"/><rect x="954.555" y="830.345" width="95.701" height="7.527" style="fill:none;stroke:#c9c9c9;stroke-width:0.72px;"/><rect x="954.555" y="814.215" width="95.701" height="7.527" style="fill:none;stroke:#c9c9c9;stroke-width:0.72px;"/><path d="M554.545,814.215l-0,-351.622c-0,-7.126 5.777,-12.904 12.903,-12.904l469.905,0c7.126,0 12.904,5.778 12.904,12.904l-0,351.622" style="fill:none;fill-rule:nonzero;stroke:#c9c9c9;stroke-width:0.72px;"/><path d="M533.397,585.177l-0.484,-0.528l-0.577,0.528l0.577,0.528l0.484,-0.528Zm12.904,-11.828l-0,-0.717l-0.279,-0l-0.206,0.188l0.485,0.529Zm-0,23.656l-0.485,0.528l0.206,0.189l0.279,-0l-0,-0.717Zm45.521,0l0.717,0l-0,-0.717l-0.717,0l-0,0.717Zm11.649,-23.655l-0.011,0.717l0.021,-0l-0.01,-0.717Zm-69.589,12.355l12.903,-11.828l-0.969,-1.057l-12.903,11.829l0.969,1.056Zm12.903,10.772l-12.903,-11.828l-0.969,1.056l12.903,11.828l0.969,-1.056Zm-0.484,1.245l45.521,-0l-0,-1.434l-45.521,0l-0,1.434Zm44.804,-0.717l-0,83.873l1.434,0l-0,-83.873l-1.434,0Zm-0,83.873c-0,6.929 5.616,12.545 12.545,12.545l-0,-1.433c-6.136,-0 -11.111,-4.975 -11.111,-11.112l-1.434,0Zm12.545,12.545c6.928,0 12.545,-5.616 12.545,-12.545l-1.434,0c0,6.137 -4.975,11.112 -11.111,11.112l-0,1.433Zm12.545,-12.545l0,-95.701l-1.434,-0l0,95.701l1.434,0Zm0,-95.701c0,-6.929 -5.617,-12.545 -12.545,-12.545l-0,1.433c6.136,0 11.111,4.975 11.111,11.112l1.434,-0Zm-12.545,-12.545c-0.063,-0 -0.127,0 -0.19,0.001l0.021,1.434c0.056,-0.001 0.112,-0.002 0.169,-0.002l-0,-1.433Zm-0.169,0.001c-0.063,-0.001 -0.126,-0.001 -0.19,-0.001l0,1.433c0.057,0 0.113,0.001 0.169,0.002l0.021,-1.434Zm-0.19,-0.001l-56.99,-0l-0,1.433l56.99,0l0,-1.433Z" style="fill:none;fill-rule:nonzero;stroke:#c9c9c9;stroke-width:1px;stroke-linejoin:round;stroke-miterlimit:2;"/><path d="M1071.05,585.177l0.487,-0.528l0.574,0.528l-0.574,0.528l-0.487,-0.528Zm-12.904,-11.828l0,-0.717l0.28,-0l0.208,0.188l-0.488,0.529Zm0,23.656l0.488,0.528l-0.208,0.189l-0.28,-0l0,-0.717Zm-45.521,0l-0.716,0l-0,-0.717l0.716,0l0,0.717Zm-11.649,-23.655l0.011,0.717l-0.021,-0l0.01,-0.717Zm69.587,12.355l-12.904,-11.828l0.975,-1.057l12.903,11.829l-0.974,1.056Zm-12.904,10.772l12.904,-11.828l0.974,1.056l-12.903,11.828l-0.975,-1.056Zm0.487,1.245l-45.521,-0l0,-1.434l45.521,0l0,1.434Zm-44.804,-0.717l0,83.873l-1.433,0l-0,-83.873l1.433,0Zm0,83.873c0,6.929 -5.62,12.545 -12.545,12.545l0,-1.433c6.137,-0 11.112,-4.975 11.112,-11.112l1.433,0Zm-12.545,12.545c-6.928,0 -12.545,-5.616 -12.545,-12.545l1.434,0c-0,6.137 4.975,11.112 11.111,11.112l0,1.433Zm-12.545,-12.545l0,-95.701l1.434,-0l-0,95.701l-1.434,0Zm0,-95.701c0,-6.929 5.617,-12.545 12.545,-12.545l0,1.433c-6.136,0 -11.111,4.975 -11.111,11.112l-1.434,-0Zm12.545,-12.545c0.063,-0 0.127,0 0.19,0.001l-0.021,1.434c-0.056,-0.001 -0.112,-0.002 -0.169,-0.002l0,-1.433Zm0.169,0.001c0.063,-0.001 0.127,-0.001 0.19,-0.001l-0,1.433c-0.057,0 -0.113,0.001 -0.169,0.002l-0.021,-1.434Zm0.19,-0.001l56.99,-0l0,1.433l-56.99,0l-0,-1.433Z" style="fill:none;fill-rule:nonzero;stroke:#c9c9c9;stroke-width:1px;stroke-linejoin:round;stroke-miterlimit:2;"/></svg>