<?xml version="1.0" encoding="UTF-8" standalone="no"?><!DOCTYPE svg PUBLIC "-//W3C//DTD SVG 1.1//EN" "http://www.w3.org/Graphics/SVG/1.1/DTD/svg11.dtd"><svg width="100%" height="100%" viewBox="0 0 530 400" version="1.1" xmlns="http://www.w3.org/2000/svg" xmlns:xlink="http://www.w3.org/1999/xlink" xml:space="preserve" xmlns:serif="http://www.serif.com/" style="fill-rule:evenodd;clip-rule:evenodd;stroke-linejoin:round;stroke-miterlimit:2;"><path d="M519,76.11c0,-37.424 -30.384,-67.808 -67.808,-67.808l-372.384,-0c-37.424,-0 -67.808,30.384 -67.808,67.808l0,247.78c0,37.424 30.384,67.808 67.808,67.808l372.384,0c37.424,0 67.808,-30.384 67.808,-67.808l0,-247.78Zm-24,-0l0,247.78c0,24.178 -19.63,43.808 -43.808,43.808c0,0 -372.384,0 -372.384,0c-24.178,0 -43.808,-19.63 -43.808,-43.808l0,-247.78c0,-24.178 19.63,-43.808 43.808,-43.808c-0,-0 372.384,-0 372.384,-0c24.178,-0 43.808,19.63 43.808,43.808Z" style="fill:#fff;"/><path d="M224.507,269.189c0,-8.215 0.265,-15.375 0.793,-21.478c0.528,-6.103 1.643,-11.62 3.345,-16.549c1.702,-4.93 4.196,-9.595 7.482,-13.997c3.286,-4.401 7.688,-9.008 13.204,-13.82c6.573,-5.751 12.647,-10.798 18.222,-15.141c5.575,-4.342 10.387,-8.978 14.436,-13.908c4.05,-4.93 7.219,-10.71 9.507,-17.341c2.289,-6.632 3.433,-15.053 3.433,-25.264c0,-5.047 -0.909,-9.918 -2.729,-14.613c-1.819,-4.695 -4.548,-8.832 -8.186,-12.412c-3.639,-3.579 -8.187,-6.426 -13.644,-8.538c-5.458,-2.113 -11.767,-3.169 -18.926,-3.169c-3.404,-0 -6.837,0.499 -10.299,1.496c-3.463,0.998 -6.867,2.318 -10.212,3.961c-3.345,1.644 -6.514,3.522 -9.507,5.634c-2.992,2.113 -5.663,4.226 -8.01,6.338l-24.648,-28.873c3.639,-3.638 7.923,-6.954 12.852,-9.947c4.93,-2.993 10.329,-5.546 16.197,-7.658c5.869,-2.113 12.119,-3.756 18.75,-4.93c6.632,-1.173 13.468,-1.76 20.511,-1.76c11.619,-0 22.535,1.555 32.746,4.665c10.211,3.11 19.131,7.893 26.76,14.349c7.629,6.455 13.644,14.583 18.046,24.383c4.401,9.801 6.602,21.449 6.602,34.947c-0,8.92 -1.086,16.843 -3.257,23.767c-2.172,6.925 -5.047,13.175 -8.627,18.75c-3.58,5.575 -7.629,10.563 -12.148,14.965c-4.519,4.401 -9.155,8.421 -13.908,12.06c-4.754,3.638 -9.39,7.042 -13.908,10.211c-4.519,3.169 -8.539,6.279 -12.06,9.331c-3.404,3.051 -6.045,5.956 -7.923,8.714c-1.878,2.759 -3.257,5.81 -4.137,9.155c-0.88,3.345 -1.379,7.13 -1.496,11.356c-0.118,4.225 -0.176,9.331 -0.176,15.316l-39.085,0Zm-3.873,48.416c0,-3.522 0.646,-6.808 1.937,-9.86c1.291,-3.051 3.051,-5.721 5.281,-8.01c2.23,-2.289 4.842,-4.079 7.835,-5.37c2.993,-1.291 6.132,-1.936 9.419,-1.936c3.286,-0 6.396,0.645 9.331,1.936c2.934,1.291 5.516,3.081 7.746,5.37c2.23,2.289 3.961,4.959 5.194,8.01c1.232,3.052 1.848,6.338 1.848,9.86c0,3.521 -0.616,6.807 -1.848,9.859c-1.233,3.051 -2.964,5.721 -5.194,8.01c-2.23,2.289 -4.812,4.079 -7.746,5.37c-2.935,1.291 -6.045,1.936 -9.331,1.936c-3.287,0 -6.426,-0.645 -9.419,-1.936c-2.993,-1.291 -5.605,-3.081 -7.835,-5.37c-2.23,-2.289 -3.99,-4.959 -5.281,-8.01c-1.291,-3.052 -1.937,-6.338 -1.937,-9.859Z" style="fill:#fff;fill-rule:nonzero;"/></svg>