<?xml version="1.0" encoding="UTF-8" standalone="no"?>
<!DOCTYPE svg PUBLIC "-//W3C//DTD SVG 1.1//EN" "http://www.w3.org/Graphics/SVG/1.1/DTD/svg11.dtd">
<svg width="100%" height="100%" viewBox="0 0 101 60" version="1.1" xmlns="http://www.w3.org/2000/svg" xmlns:xlink="http://www.w3.org/1999/xlink" xml:space="preserve" xmlns:serif="http://www.serif.com/" style="fill-rule:evenodd;clip-rule:evenodd;">
    <g transform="matrix(1,0,0,1,-420,-372)">
        <g id="Jaguari" transform="matrix(1,0,0,0.6,420.6,372)">
            <rect x="0" y="0" width="100" height="100" style="fill:none;"/>
            <g id="Group-252" serif:id="Group 252" transform="matrix(1,0,0,1.66667,-25.014,7.2187)">
                <path id="Rectangle-252" serif:id="Rectangle 252" d="M54.011,22.165L96.98,22.165C98.32,22.165 99.373,23.282 99.323,24.594C99.322,24.619 99.321,24.643 99.32,24.668C99.315,24.79 99.31,24.922 99.315,25.055C99.353,25.932 99.483,29.474 99.483,36.05C99.483,39.853 98.536,43.259 97.586,45.718C97.111,46.947 96.636,47.937 96.281,48.619C96.103,48.96 95.956,49.224 95.853,49.402C95.815,49.467 95.783,49.521 95.758,49.563L55.233,49.563C55.208,49.521 55.176,49.467 55.138,49.402C55.035,49.224 54.887,48.96 54.709,48.619C54.354,47.937 53.879,46.947 53.405,45.718C52.455,43.259 51.507,39.853 51.507,36.05C51.507,29.474 51.638,25.932 51.675,25.055C51.681,24.922 51.675,24.79 51.67,24.668C51.669,24.643 51.668,24.619 51.667,24.594C51.618,23.282 52.671,22.165 54.011,22.165Z" style="fill:none;fill-rule:nonzero;stroke:white;stroke-width:0.46px;"/>
                <path id="Vector" d="M43.142,25.221C43.913,19.432 45.81,14.152 48.961,10.34C52.086,6.56 56.477,4.176 62.403,4.176L87.625,4.176C93.551,4.176 97.942,6.56 101.067,10.34C104.218,14.152 106.115,19.432 106.886,25.221C106.909,25.394 106.927,25.558 106.938,25.718C107.008,26.7 107.203,30.544 106.572,36.939C106.073,41.988 104.661,46.407 103.804,48.723C103.561,49.38 102.917,49.821 102.156,49.821L47.872,49.821C47.111,49.821 46.467,49.38 46.224,48.723C45.367,46.407 43.955,41.988 43.456,36.939C42.825,30.544 43.02,26.7 43.09,25.718C43.101,25.558 43.119,25.394 43.142,25.221Z" style="fill:none;fill-rule:nonzero;stroke:white;stroke-width:2px;"/>
                <circle id="Ellipse-153" serif:id="Ellipse 153" cx="58.908" cy="12.928" r="5.363" style="fill:none;stroke:white;stroke-width:1px;"/>
                <g id="Group-243" serif:id="Group 243">
                    <g id="Rectangle-241" serif:id="Rectangle 241" transform="matrix(-3.82857e-16,-1,1,-3.82857e-16,40.6165,74.4109)">
                        <path d="M65.452,17.322C65.452,17.088 65.262,16.897 65.027,16.897L57.939,16.897C57.704,16.897 57.514,17.088 57.514,17.322L57.514,19.26C57.514,19.495 57.704,19.685 57.939,19.685L65.027,19.685C65.262,19.685 65.452,19.495 65.452,19.26L65.452,17.322Z" style="fill:white;"/>
                    </g>
                    <g id="Rectangle-242" serif:id="Rectangle 242" transform="matrix(-1,7.65714e-16,-7.65714e-16,-1,125.754,28.644)">
                        <path d="M70.815,14.747C70.815,14.513 70.625,14.322 70.39,14.322L63.302,14.322C63.068,14.322 62.877,14.513 62.877,14.747L62.877,16.685C62.877,16.919 63.068,17.11 63.302,17.11L70.39,17.11C70.625,17.11 70.815,16.919 70.815,16.685L70.815,14.747Z" style="fill:white;"/>
                    </g>
                </g>
                <g id="Group-245" serif:id="Group 245">
                    <g id="Rectangle-243" serif:id="Rectangle 243" transform="matrix(0.866025,0.5,-0.5,0.866025,16.7038,-34.3423)">
                        <path d="M74.094,14.828C74.094,14.37 73.723,13.999 73.265,13.999C72.807,13.999 72.436,14.37 72.436,14.828L72.436,17.745C72.436,18.203 72.807,18.574 73.265,18.574C73.723,18.574 74.094,18.203 74.094,17.745L74.094,14.828Z" style="fill:white;"/>
                    </g>
                    <g id="Rectangle-244" serif:id="Rectangle 244" transform="matrix(0.866025,0.5,-0.5,0.866025,17.2174,-36.2591)">
                        <path d="M77.928,14.828C77.928,14.37 77.556,13.999 77.098,13.999C76.641,13.999 76.269,14.37 76.269,14.828L76.269,17.745C76.269,18.203 76.641,18.574 77.098,18.574C77.556,18.574 77.928,18.203 77.928,17.745L77.928,14.828Z" style="fill:white;"/>
                    </g>
                </g>
                <path id="Vector-9" serif:id="Vector 9" d="M89.379,16.802L85.33,14.822C85.021,14.671 84.648,14.772 84.457,15.058L81.955,18.811C81.651,19.267 81.978,19.878 82.526,19.878L88.006,19.878C88.247,19.878 88.47,19.752 88.594,19.546L89.665,17.774C89.873,17.429 89.741,16.98 89.379,16.802Z" style="fill:none;fill-rule:nonzero;stroke:white;stroke-width:1px;"/>
                <path id="Vector-10" serif:id="Vector 10" d="M93.288,12.168L89.634,10.194C89.34,10.035 88.977,10.092 88.745,10.332L86.817,12.333C86.466,12.697 86.573,13.298 87.029,13.518L90.918,15.4C91.218,15.545 91.577,15.473 91.798,15.224L93.491,13.315C93.809,12.957 93.71,12.395 93.288,12.168Z" style="fill:none;fill-rule:nonzero;stroke:white;stroke-width:1px;"/>
                <path id="Vector-11" serif:id="Vector 11" d="M94.523,10.991L90.891,8.964C90.466,8.727 90.38,8.152 90.716,7.8L93.026,5.385C93.261,5.139 93.635,5.084 93.931,5.253L97.874,7.497C98.324,7.753 98.381,8.38 97.984,8.713L95.363,10.911C95.127,11.11 94.793,11.141 94.523,10.991Z" style="fill:none;fill-rule:nonzero;stroke:white;stroke-width:1px;"/>
                <g id="Group-251" serif:id="Group 251">
                    <g id="Group-247" serif:id="Group 247">
                        <path id="Rectangle-245" serif:id="Rectangle 245" d="M69.804,28.8C69.804,28.406 69.484,28.085 69.089,28.085L65.657,28.085C65.263,28.085 64.942,28.406 64.942,28.8C64.942,29.195 65.263,29.515 65.657,29.515L69.089,29.515C69.484,29.515 69.804,29.195 69.804,28.8Z" style="fill:white;"/>
                        <path id="Rectangle-246" serif:id="Rectangle 246" d="M78.04,28.8C78.04,28.406 77.719,28.085 77.325,28.085L73.893,28.085C73.498,28.085 73.178,28.406 73.178,28.8C73.178,29.195 73.498,29.515 73.893,29.515L77.325,29.515C77.719,29.515 78.04,29.195 78.04,28.8Z" style="fill:white;"/>
                        <path id="Rectangle-247" serif:id="Rectangle 247" d="M86.276,28.8C86.276,28.406 85.956,28.085 85.561,28.085L82.13,28.085C81.735,28.085 81.415,28.406 81.415,28.8C81.415,29.195 81.735,29.515 82.13,29.515L85.561,29.515C85.956,29.515 86.276,29.195 86.276,28.8Z" style="fill:white;"/>
                    </g>
                    <g id="Group-248" serif:id="Group 248">
                        <path id="Rectangle-245_2" serif:id="Rectangle 245_2" d="M69.804,33.948C69.804,33.554 69.483,33.233 69.089,33.233L65.657,33.233C65.262,33.233 64.942,33.554 64.942,33.948C64.942,34.343 65.262,34.663 65.657,34.663L69.089,34.663C69.483,34.663 69.804,34.343 69.804,33.948Z" style="fill:white;"/>
                        <path id="Rectangle-246_2" serif:id="Rectangle 246_2" d="M78.04,33.948C78.04,33.554 77.719,33.233 77.325,33.233L73.893,33.233C73.498,33.233 73.178,33.554 73.178,33.948C73.178,34.343 73.498,34.663 73.893,34.663L77.325,34.663C77.719,34.663 78.04,34.343 78.04,33.948Z" style="fill:white;"/>
                        <path id="Rectangle-247_2" serif:id="Rectangle 247_2" d="M86.276,33.948C86.276,33.554 85.956,33.233 85.561,33.233L82.13,33.233C81.735,33.233 81.415,33.554 81.415,33.948C81.415,34.343 81.735,34.663 82.13,34.663L85.561,34.663C85.956,34.663 86.276,34.343 86.276,33.948Z" style="fill:white;"/>
                    </g>
                    <g id="Group-249" serif:id="Group 249">
                        <path id="Rectangle-245_3" serif:id="Rectangle 245_3" d="M69.804,39.096C69.804,38.701 69.483,38.381 69.089,38.381L65.657,38.381C65.262,38.381 64.942,38.701 64.942,39.096C64.942,39.491 65.262,39.811 65.657,39.811L69.089,39.811C69.483,39.811 69.804,39.491 69.804,39.096Z" style="fill:white;"/>
                        <path id="Rectangle-246_3" serif:id="Rectangle 246_3" d="M78.04,39.096C78.04,38.701 77.719,38.381 77.325,38.381L73.893,38.381C73.498,38.381 73.178,38.701 73.178,39.096C73.178,39.491 73.498,39.811 73.893,39.811L77.325,39.811C77.719,39.811 78.04,39.491 78.04,39.096Z" style="fill:white;"/>
                        <path id="Rectangle-247_3" serif:id="Rectangle 247_3" d="M86.276,39.096C86.276,38.701 85.956,38.381 85.561,38.381L82.13,38.381C81.735,38.381 81.415,38.701 81.415,39.096C81.415,39.491 81.735,39.811 82.13,39.811L85.561,39.811C85.956,39.811 86.276,39.491 86.276,39.096Z" style="fill:white;"/>
                    </g>
                    <g id="Group-250" serif:id="Group 250">
                        <path id="Rectangle-245_4" serif:id="Rectangle 245_4" d="M69.804,44.244C69.804,43.849 69.483,43.529 69.089,43.529L65.657,43.529C65.262,43.529 64.942,43.849 64.942,44.244C64.942,44.638 65.262,44.959 65.657,44.959L69.089,44.959C69.483,44.959 69.804,44.638 69.804,44.244Z" style="fill:white;"/>
                        <path id="Rectangle-246_4" serif:id="Rectangle 246_4" d="M78.04,44.244C78.04,43.849 77.719,43.529 77.325,43.529L73.893,43.529C73.498,43.529 73.178,43.849 73.178,44.244C73.178,44.638 73.498,44.959 73.893,44.959L77.325,44.959C77.719,44.959 78.04,44.638 78.04,44.244Z" style="fill:white;"/>
                        <path id="Rectangle-247_4" serif:id="Rectangle 247_4" d="M86.276,44.244C86.276,43.849 85.956,43.529 85.561,43.529L82.13,43.529C81.735,43.529 81.415,43.849 81.415,44.244C81.415,44.638 81.735,44.959 82.13,44.959L85.561,44.959C85.956,44.959 86.276,44.638 86.276,44.244Z" style="fill:white;"/>
                    </g>
                </g>
                <path id="Rectangle-248" serif:id="Rectangle 248" d="M62.655,25.226L88.565,25.226C89.181,25.226 89.681,25.725 89.681,26.341L89.681,49.992L61.539,49.992L61.539,26.341C61.539,25.725 62.039,25.226 62.655,25.226Z" style="fill:none;fill-rule:nonzero;stroke:white;stroke-width:0.74px;"/>
                <path id="Rectangle-249" serif:id="Rectangle 249" d="M103.327,13.036L103.327,15.245C103.327,18.561 100.638,21.25 97.321,21.25L52.707,21.25C49.39,21.25 46.701,18.561 46.701,15.245L46.701,13.036" style="fill:none;fill-rule:nonzero;stroke:white;stroke-width:0.63px;"/>
                <path id="Rectangle-251" serif:id="Rectangle 251" d="M61.167,3.691C61.167,2.986 61.65,2.373 62.335,2.208L65.4,1.47C65.742,1.387 66.093,1.345 66.445,1.345L84.533,1.345C84.932,1.345 85.328,1.399 85.712,1.504L88.15,2.172C88.834,2.359 89.309,2.981 89.309,3.691L61.167,3.691Z" style="fill:white;fill-rule:nonzero;"/>
            </g>
        </g>
    </g>
</svg>
