<?xml version="1.0" encoding="UTF-8" standalone="no"?>
<!DOCTYPE svg PUBLIC "-//W3C//DTD SVG 1.1//EN" "http://www.w3.org/Graphics/SVG/1.1/DTD/svg11.dtd">
<svg width="100%" height="100%" viewBox="0 0 101 60" version="1.1" xmlns="http://www.w3.org/2000/svg" xmlns:xlink="http://www.w3.org/1999/xlink" xml:space="preserve" xmlns:serif="http://www.serif.com/" style="fill-rule:evenodd;clip-rule:evenodd;stroke-linejoin:round;stroke-miterlimit:2;">
    <g transform="matrix(1,0,0,1,-140,-496)">
        <g id="Wonderswan-Color" serif:id="Wonderswan Color" transform="matrix(1,0,0,0.6,140.2,496)">
            <rect x="0" y="0" width="100" height="100" style="fill:none;"/>
            <g id="Group-312" serif:id="Group 312" transform="matrix(1,0,0,1.66667,-24.7554,11.3916)">
                <g id="Group-309" serif:id="Group 309">
                    <g id="Group-307" serif:id="Group 307">
                        <g id="Group-290" serif:id="Group 290">
                            <path id="Polygon-30" serif:id="Polygon 30" d="M48.572,11.038C48.3,11.297 47.873,11.297 47.602,11.038L45.915,9.428C45.545,9.074 45.551,8.47 45.801,8.05C46.065,7.605 46.719,7.134 47.214,6.985C47.428,6.921 47.711,6.878 48.087,6.878C48.462,6.878 48.746,6.921 48.959,6.985C49.454,7.134 50.108,7.605 50.372,8.05C50.623,8.47 50.629,9.074 50.258,9.428L48.572,11.038Z" style="fill:white;fill-rule:nonzero;"/>
                            <path id="Polygon-31" serif:id="Polygon 31" d="M47.601,13.948C47.872,13.689 48.299,13.689 48.571,13.948L50.257,15.558C50.628,15.911 50.622,16.515 50.371,16.936C50.107,17.38 49.453,17.851 48.958,18C48.745,18.065 48.461,18.107 48.086,18.107C47.71,18.107 47.427,18.065 47.213,18C46.718,17.851 46.064,17.38 45.8,16.936C45.55,16.515 45.544,15.911 45.914,15.558L47.601,13.948Z" style="fill:white;fill-rule:nonzero;"/>
                        </g>
                        <g id="Group-291" serif:id="Group 291">
                            <path id="Polygon-32" serif:id="Polygon 32" d="M46.632,12.008C46.891,12.279 46.891,12.706 46.632,12.977L45.022,14.664C44.669,15.035 44.065,15.029 43.644,14.778C43.2,14.514 42.728,13.86 42.58,13.365C42.515,13.152 42.473,12.868 42.473,12.493C42.473,12.117 42.515,11.834 42.58,11.62C42.728,11.125 43.2,10.471 43.644,10.207C44.065,9.957 44.669,9.951 45.022,10.321L46.632,12.008Z" style="fill:white;fill-rule:nonzero;"/>
                            <path id="Polygon-33" serif:id="Polygon 33" d="M49.541,12.977C49.282,12.706 49.282,12.279 49.541,12.008L51.151,10.321C51.505,9.951 52.109,9.957 52.529,10.207C52.974,10.471 53.445,11.125 53.594,11.62C53.658,11.834 53.701,12.117 53.701,12.493C53.701,12.868 53.658,13.152 53.594,13.365C53.445,13.86 52.974,14.514 52.529,14.778C52.109,15.029 51.505,15.035 51.151,14.664L49.541,12.977Z" style="fill:white;fill-rule:nonzero;"/>
                        </g>
                    </g>
                    <path id="Ellipse-174--Stroke-" serif:id="Ellipse 174 (Stroke)" d="M48.087,18.485C51.396,18.485 54.079,15.802 54.079,12.493C54.079,9.183 51.396,6.5 48.087,6.5C44.777,6.5 42.094,9.183 42.094,12.493C42.094,15.802 44.777,18.485 48.087,18.485ZM48.087,19.485C51.948,19.485 55.079,16.355 55.079,12.493C55.079,8.631 51.948,5.5 48.087,5.5C44.225,5.5 41.094,8.631 41.094,12.493C41.094,16.355 44.225,19.485 48.087,19.485Z" style="fill:white;"/>
                </g>
                <path id="Rectangle-299--Stroke-" serif:id="Rectangle 299 (Stroke)" d="M89.309,44.705C89.309,44.705 95.155,44.742 99.604,43.908C102.184,43.425 106.015,42.411 108.78,41.643C110.874,41.062 112.383,39.254 112.62,37.094L113.086,32.85L113.086,7.263C113.086,4.149 110.562,1.625 107.448,1.625L44.211,1.625C41.939,1.625 39.828,2.799 38.998,4.914C37.826,7.898 36.425,12.818 36.425,19.274C36.425,26.228 38.328,33.929 39.748,38.707C40.597,41.563 43.173,43.493 46.149,43.645C49.08,43.794 52.785,43.94 55.667,43.908C59.043,43.871 61.574,43.569 64.129,43.264C66.256,43.01 68.399,42.754 71.059,42.648C72.803,42.578 74.545,42.766 76.264,43.069C79.595,43.658 82.849,44.163 83.158,44.211C83.175,44.214 83.19,44.215 83.208,44.217L89.309,44.705ZM89.396,42.61C89.436,42.61 89.492,42.61 89.562,42.61C89.723,42.609 89.96,42.608 90.26,42.603C90.86,42.594 91.707,42.573 92.69,42.527C94.673,42.433 97.135,42.24 99.219,41.849C101.699,41.385 105.45,40.394 108.219,39.625C109.471,39.277 110.392,38.192 110.538,36.865L110.991,32.736L110.991,7.263C110.991,5.306 109.405,3.72 107.448,3.72L44.211,3.72C42.622,3.72 41.402,4.521 40.947,5.679C39.854,8.465 38.52,13.124 38.52,19.274C38.52,25.917 40.351,33.383 41.756,38.11C42.339,40.072 44.12,41.444 46.256,41.553C49.179,41.702 52.831,41.844 55.644,41.814C58.624,41.781 60.92,41.535 63.24,41.26C63.455,41.235 63.669,41.209 63.885,41.184C66.008,40.93 68.229,40.665 70.975,40.555C72.92,40.477 74.822,40.687 76.629,41.007C79.801,41.567 82.907,42.052 83.426,42.133L89.396,42.61Z" style="fill:white;"/>
                <path id="Rectangle-300--Stroke-" serif:id="Rectangle 300 (Stroke)" d="M56.183,20.52C55.834,28.515 57.909,35.404 58.755,37.844C58.822,38.035 59.006,38.185 59.259,38.199L60.108,38.246C60.407,38.262 60.676,38.065 60.75,37.775C61.048,36.619 62.088,35.809 63.283,35.803L71.906,35.761C72.633,35.758 73.307,36.143 73.673,36.773L73.704,36.826C74.04,36.172 74.715,35.758 75.454,35.758L78.822,35.758C80.012,35.758 81.038,36.595 81.278,37.76C81.331,38.018 81.572,38.192 81.834,38.161L95.348,36.566C96.256,36.459 96.956,35.923 97.204,35.176C97.95,32.934 99.061,28.41 99.061,21.354C99.061,14.282 98.569,10.269 98.235,8.361C98.158,7.922 97.787,7.57 97.248,7.52C93.019,7.131 81.279,6.068 75.777,5.735C70.306,5.404 61.827,5.611 58.82,5.702C58.564,5.709 58.381,5.864 58.323,6.059C57.739,8.027 56.513,12.956 56.183,20.52ZM58.79,4.702C58.13,4.722 57.552,5.141 57.364,5.774C56.759,7.813 55.518,12.823 55.184,20.476C54.827,28.651 56.945,35.676 57.811,38.172C58.019,38.771 58.572,39.163 59.205,39.198L60.053,39.244C60.828,39.286 61.525,38.776 61.719,38.025C61.903,37.308 62.548,36.806 63.287,36.803L71.91,36.761C72.28,36.759 72.622,36.955 72.808,37.275L72.868,37.379C73.259,38.052 74.245,38.012 74.58,37.31C74.741,36.973 75.081,36.758 75.454,36.758L78.822,36.758C79.537,36.758 80.154,37.261 80.298,37.962C80.456,38.728 81.174,39.246 81.951,39.154L95.465,37.559C96.693,37.414 97.763,36.665 98.153,35.491C98.932,33.148 100.061,28.517 100.061,21.354C100.061,14.237 99.566,10.165 99.22,8.188C99.057,7.259 98.279,6.611 97.34,6.525C93.116,6.136 81.358,5.071 75.838,4.737C70.314,4.403 61.791,4.612 58.79,4.702Z" style="fill:white;"/>
                <path id="Rectangle-301" serif:id="Rectangle 301" d="M62.556,38.673C62.556,38.156 62.975,37.737 63.492,37.737L65.891,37.737C66.408,37.737 66.827,38.156 66.827,38.673C66.827,39.19 66.408,39.609 65.891,39.609L63.492,39.609C62.975,39.609 62.556,39.19 62.556,38.673Z" style="fill:white;fill-rule:nonzero;"/>
                <path id="Rectangle-302" serif:id="Rectangle 302" d="M68.115,38.673C68.115,38.156 68.534,37.737 69.051,37.737L71.45,37.737C71.967,37.737 72.386,38.156 72.386,38.673C72.386,39.19 71.967,39.609 71.45,39.609L69.051,39.609C68.534,39.609 68.115,39.19 68.115,38.673Z" style="fill:white;fill-rule:nonzero;"/>
                <path id="Rectangle-303" serif:id="Rectangle 303" d="M74.96,38.673C74.96,38.156 75.379,37.737 75.896,37.737L78.295,37.737C78.812,37.737 79.231,38.156 79.231,38.673C79.231,39.19 78.812,39.609 78.295,39.609L75.896,39.609C75.379,39.609 74.96,39.19 74.96,38.673Z" style="fill:white;fill-rule:nonzero;"/>
                <g id="Group-305" serif:id="Group 305">
                    <path id="Polygon-31_2" serif:id="Polygon 31_2" d="M102.388,32.753C102.659,32.494 103.086,32.494 103.358,32.753L105.044,34.363C105.415,34.716 105.409,35.32 105.159,35.741C104.894,36.185 104.24,36.657 103.745,36.806C103.532,36.87 103.249,36.912 102.873,36.912C102.497,36.912 102.214,36.87 102,36.806C101.505,36.657 100.851,36.185 100.587,35.741C100.337,35.32 100.331,34.716 100.701,34.363L102.388,32.753Z" style="fill:white;fill-rule:nonzero;"/>
                </g>
                <g id="Group-306" serif:id="Group 306">
                    <path id="Polygon-33_2" serif:id="Polygon 33_2" d="M104.327,31.783C104.068,31.512 104.068,31.085 104.327,30.813L105.937,29.127C106.29,28.756 106.894,28.762 107.315,29.012C107.759,29.277 108.23,29.931 108.379,30.426C108.444,30.639 108.486,30.922 108.486,31.298C108.486,31.674 108.444,31.957 108.379,32.17C108.23,32.666 107.759,33.32 107.315,33.584C106.894,33.834 106.29,33.84 105.937,33.47L104.327,31.783Z" style="fill:white;fill-rule:nonzero;"/>
                </g>
                <path id="Rectangle-304--Stroke-" serif:id="Rectangle 304 (Stroke)" d="M92.361,14.109L62.424,14.109L62.424,29.75L92.361,29.75L92.361,14.109ZM60.424,12.109L60.424,31.75L94.361,31.75L94.361,12.109L60.424,12.109Z" style="fill:white;"/>
                <path id="Rectangle-305" serif:id="Rectangle 305" d="M108.486,7.867C108.486,7.657 108.657,7.487 108.867,7.487L111.149,7.487L111.149,8.248L108.867,8.248C108.657,8.248 108.486,8.077 108.486,7.867Z" style="fill:white;fill-rule:nonzero;"/>
                <path id="Rectangle-306" serif:id="Rectangle 306" d="M109.188,9.184C109.188,8.974 109.358,8.803 109.568,8.803L111.148,8.803L111.148,9.564L109.568,9.564C109.358,9.564 109.188,9.394 109.188,9.184Z" style="fill:white;fill-rule:nonzero;"/>
                <path id="Rectangle-307" serif:id="Rectangle 307" d="M108.486,13.133C108.486,12.923 108.657,12.753 108.867,12.753L111.149,12.753L111.149,13.514L108.867,13.514C108.657,13.514 108.486,13.343 108.486,13.133Z" style="fill:white;fill-rule:nonzero;"/>
                <path id="Rectangle-308" serif:id="Rectangle 308" d="M109.188,11.817C109.188,11.607 109.358,11.437 109.568,11.437L111.148,11.437L111.148,12.197L109.568,12.197C109.358,12.197 109.188,12.027 109.188,11.817Z" style="fill:white;fill-rule:nonzero;"/>
                <path id="Rectangle-309" serif:id="Rectangle 309" d="M109.656,10.5C109.656,10.29 109.827,10.12 110.037,10.12L111.148,10.12L111.148,10.881L110.037,10.881C109.827,10.881 109.656,10.711 109.656,10.5Z" style="fill:white;fill-rule:nonzero;"/>
                <path id="Rectangle-310--Stroke-" serif:id="Rectangle 310 (Stroke)" d="M94.779,11.12L59.839,11.12C59.651,11.12 59.529,11.24 59.503,11.372C59.173,13.059 58.583,16.787 58.583,21.941C58.583,27.095 59.173,30.823 59.503,32.509C59.529,32.641 59.651,32.761 59.839,32.761L94.779,32.761C94.85,32.761 94.898,32.743 94.924,32.727C94.946,32.714 94.955,32.701 94.961,32.686C95.441,31.506 96.428,28.306 96.428,21.941C96.428,15.575 95.441,12.375 94.961,11.196C94.955,11.18 94.946,11.168 94.924,11.154C94.898,11.139 94.85,11.12 94.779,11.12ZM59.839,10.12C59.2,10.12 58.645,10.552 58.522,11.18C58.181,12.918 57.583,16.711 57.583,21.941C57.583,27.17 58.181,30.963 58.522,32.702C58.645,33.329 59.2,33.761 59.839,33.761L94.779,33.761C95.263,33.761 95.705,33.51 95.888,33.063C96.425,31.741 97.428,28.408 97.428,21.941C97.428,15.473 96.425,12.141 95.888,10.819C95.705,10.371 95.263,10.12 94.779,10.12L59.839,10.12Z" style="fill:white;"/>
                <g id="Group-308" serif:id="Group 308">
                    <g id="Group-307_2" serif:id="Group 307_2">
                        <g id="Group-290_2" serif:id="Group 290_2">
                            <path id="Polygon-30_2" serif:id="Polygon 30_2" d="M48.572,30.225C48.3,30.484 47.873,30.484 47.602,30.225L45.915,28.615C45.545,28.262 45.551,27.658 45.801,27.237C46.065,26.793 46.719,26.322 47.214,26.173C47.428,26.109 47.711,26.066 48.087,26.066C48.462,26.066 48.746,26.109 48.959,26.173C49.454,26.322 50.108,26.793 50.372,27.237C50.623,27.658 50.629,28.262 50.258,28.615L48.572,30.225Z" style="fill:white;fill-rule:nonzero;"/>
                            <path id="Polygon-31_3" serif:id="Polygon 31_3" d="M47.601,33.135C47.872,32.876 48.299,32.876 48.571,33.135L50.257,34.745C50.628,35.099 50.622,35.703 50.371,36.123C50.107,36.568 49.453,37.039 48.958,37.188C48.745,37.252 48.461,37.295 48.086,37.295C47.71,37.295 47.427,37.252 47.213,37.188C46.718,37.039 46.064,36.568 45.8,36.123C45.55,35.703 45.544,35.099 45.914,34.745L47.601,33.135Z" style="fill:white;fill-rule:nonzero;"/>
                        </g>
                        <g id="Group-291_2" serif:id="Group 291_2">
                            <path id="Polygon-32_2" serif:id="Polygon 32_2" d="M46.632,31.195C46.891,31.467 46.891,31.894 46.632,32.165L45.022,33.852C44.669,34.222 44.065,34.216 43.644,33.966C43.2,33.702 42.728,33.048 42.58,32.553C42.515,32.339 42.473,32.056 42.473,31.68C42.473,31.304 42.515,31.021 42.58,30.808C42.728,30.313 43.2,29.659 43.644,29.394C44.065,29.144 44.669,29.138 45.022,29.509L46.632,31.195Z" style="fill:white;fill-rule:nonzero;"/>
                            <path id="Polygon-33_3" serif:id="Polygon 33_3" d="M49.541,32.165C49.282,31.894 49.282,31.467 49.541,31.195L51.151,29.509C51.505,29.138 52.109,29.144 52.529,29.395C52.974,29.659 53.445,30.313 53.594,30.808C53.658,31.021 53.701,31.304 53.701,31.68C53.701,32.056 53.658,32.339 53.594,32.553C53.445,33.048 52.974,33.702 52.529,33.966C52.109,34.216 51.505,34.222 51.151,33.852L49.541,32.165Z" style="fill:white;fill-rule:nonzero;"/>
                        </g>
                    </g>
                    <path id="Ellipse-174--Stroke-_2" serif:id="Ellipse 174 (Stroke)_2" d="M48.087,37.673C51.396,37.673 54.079,34.99 54.079,31.68C54.079,28.371 51.396,25.688 48.087,25.688C44.777,25.688 42.094,28.371 42.094,31.68C42.094,34.99 44.777,37.673 48.087,37.673ZM48.087,38.673C51.948,38.673 55.079,35.542 55.079,31.68C55.079,27.818 51.948,24.688 48.087,24.688C44.225,24.688 41.094,27.818 41.094,31.68C41.094,35.542 44.225,38.673 48.087,38.673Z" style="fill:white;"/>
                </g>
            </g>
        </g>
    </g>
</svg>
