<?xml version="1.0" encoding="UTF-8" standalone="no"?>
<!DOCTYPE svg PUBLIC "-//W3C//DTD SVG 1.1//EN" "http://www.w3.org/Graphics/SVG/1.1/DTD/svg11.dtd">
<svg width="100%" height="100%" viewBox="0 0 101 60" version="1.1" xmlns="http://www.w3.org/2000/svg" xmlns:xlink="http://www.w3.org/1999/xlink" xml:space="preserve" xmlns:serif="http://www.serif.com/" style="fill-rule:evenodd;clip-rule:evenodd;stroke-linejoin:round;stroke-miterlimit:2;">
    <g transform="matrix(1,0,0,1,-420,-744)">
        <g id="Famicom" transform="matrix(1,0,0,0.6,420.6,744)">
            <rect x="0" y="0" width="100" height="100" style="fill:none;"/>
            <g id="Group-143" serif:id="Group 143" transform="matrix(1,0,0,1.66667,-26,20.2083)">
                <path id="Union" d="M56.057,12.25C55.631,12.25 55.286,12.595 55.286,13.021L55.286,16.536L51.771,16.536C51.345,16.536 51,16.881 51,17.307L51,19.193C51,19.619 51.345,19.964 51.771,19.964L55.286,19.964L55.286,23.479C55.286,23.905 55.631,24.25 56.057,24.25L57.943,24.25C58.369,24.25 58.714,23.905 58.714,23.479L58.714,19.964L62.229,19.964C62.655,19.964 63,19.619 63,19.193L63,17.307C63,16.881 62.655,16.536 62.229,16.536L58.714,16.536L58.714,13.021C58.714,12.595 58.369,12.25 57.943,12.25L56.057,12.25Z" style="fill:white;fill-rule:nonzero;"/>
                <path id="Rectangle--Stroke-" serif:id="Rectangle (Stroke)" d="M105,6.5L47,6.5L47,29.25L105,29.25L105,6.5ZM47,3.5C45.343,3.5 44,4.843 44,6.5L44,29.25C44,30.907 45.343,32.25 47,32.25L105,32.25C106.657,32.25 108,30.907 108,29.25L108,6.5C108,4.843 106.657,3.5 105,3.5L47,3.5Z" style="fill:white;"/>
                <path id="Oval_3" d="M89.75,24.464C91.269,24.464 92.5,23.233 92.5,21.714C92.5,20.196 91.269,18.964 89.75,18.964C88.231,18.964 87,20.196 87,21.714C87,23.233 88.231,24.464 89.75,24.464Z" style="fill:white;"/>
                <path id="Rectangle--Stroke-_2" serif:id="Rectangle (Stroke)_2" d="M50,8.75C49.724,8.75 49.5,8.974 49.5,9.25L49.5,26.25C49.5,26.526 49.724,26.75 50,26.75L102,26.75C102.276,26.75 102.5,26.526 102.5,26.25L102.5,17.375C102.5,17.099 102.276,16.875 102,16.875L71.375,16.875C70.547,16.875 69.875,16.203 69.875,15.375L69.875,9.25C69.875,8.974 69.651,8.75 69.375,8.75L50,8.75ZM48.5,9.25C48.5,8.422 49.172,7.75 50,7.75L69.375,7.75C70.203,7.75 70.875,8.422 70.875,9.25L70.875,15.375C70.875,15.651 71.099,15.875 71.375,15.875L102,15.875C102.828,15.875 103.5,16.547 103.5,17.375L103.5,26.25C103.5,27.078 102.828,27.75 102,27.75L50,27.75C49.172,27.75 48.5,27.078 48.5,26.25L48.5,9.25Z" style="fill:white;"/>
                <g id="Group-142" serif:id="Group 142">
                    <path id="Rectangle--Stroke-_3" serif:id="Rectangle (Stroke)_3" d="M68.212,21.464C67.66,21.464 67.212,21.912 67.212,22.464C67.212,23.017 67.66,23.464 68.212,23.464L71.212,23.464C71.764,23.464 72.212,23.017 72.212,22.464C72.212,21.912 71.764,21.464 71.212,21.464L68.212,21.464Z" style="fill:white;"/>
                    <path id="Rectangle--Stroke-_4" serif:id="Rectangle (Stroke)_4" d="M75.188,21.464C74.635,21.464 74.188,21.912 74.188,22.464C74.188,23.017 74.635,23.464 75.188,23.464L78.188,23.464C78.74,23.464 79.188,23.017 79.188,22.464C79.188,21.912 78.74,21.464 78.188,21.464L75.188,21.464Z" style="fill:white;"/>
                    <path id="Rectangle--Stroke-_5" serif:id="Rectangle (Stroke)_5" d="M65.5,22.464C65.5,21.084 66.619,19.964 68,19.964L78.313,19.964C79.693,19.964 80.813,21.084 80.813,22.464C80.813,23.845 79.693,24.964 78.313,24.964L68,24.964C66.619,24.964 65.5,23.845 65.5,22.464ZM68,20.964C67.172,20.964 66.5,21.636 66.5,22.464C66.5,23.293 67.172,23.964 68,23.964L78.313,23.964C79.141,23.964 79.813,23.293 79.813,22.464C79.813,21.636 79.141,20.964 78.313,20.964L68,20.964Z" style="fill:white;"/>
                </g>
                <path id="Oval_4" d="M96.75,24.464C98.269,24.464 99.5,23.233 99.5,21.714C99.5,20.196 98.269,18.964 96.75,18.964C95.231,18.964 94,20.196 94,21.714C94,23.233 95.231,24.464 96.75,24.464Z" style="fill:white;"/>
            </g>
        </g>
    </g>
</svg>
