<?xml version="1.0" encoding="UTF-8" standalone="no"?>
<!DOCTYPE svg PUBLIC "-//W3C//DTD SVG 1.1//EN" "http://www.w3.org/Graphics/SVG/1.1/DTD/svg11.dtd">
<svg width="100%" height="100%" viewBox="0 0 101 60" version="1.1" xmlns="http://www.w3.org/2000/svg" xmlns:xlink="http://www.w3.org/1999/xlink" xml:space="preserve" xmlns:serif="http://www.serif.com/" style="fill-rule:evenodd;clip-rule:evenodd;stroke-linejoin:round;stroke-miterlimit:2;">
    <g transform="matrix(1,0,0,1,-140,-744)">
        <g id="Wonderswan" transform="matrix(1,0,0,0.6,140.2,744)">
            <rect x="0" y="0" width="100" height="100" style="fill:none;"/>
            <g id="Group-312" serif:id="Group 312" transform="matrix(1,0,0,1.66667,-24.7555,11.3542)">
                <path id="Rectangle-289--Stroke-" serif:id="Rectangle 289 (Stroke)" d="M90.254,42.055L90.319,42.054C90.365,42.053 90.433,42.051 90.522,42.049C90.7,42.044 90.96,42.036 91.287,42.024C91.94,42 92.855,41.96 93.895,41.895C96.002,41.764 98.532,41.536 100.464,41.158C102.261,40.807 104.347,40.238 106.114,39.711C107.411,39.324 108.32,38.1 108.32,36.653L108.32,7.367C108.32,5.374 106.705,3.758 104.712,3.758L46.983,3.758C45.201,3.758 43.791,4.753 43.335,6.175C42.341,9.272 41.19,14.126 41.19,19.973C41.19,25.175 41.425,30.374 41.667,34.346C41.839,37.173 44.203,39.371 47.108,39.371L59.393,39.371L59.446,39.374L59.34,41.505L47.108,41.505C43.112,41.505 39.78,38.464 39.537,34.475C39.294,30.479 39.057,25.234 39.057,19.973C39.057,13.852 40.261,8.773 41.303,5.523C42.086,3.085 44.422,1.625 46.983,1.625L104.712,1.625C107.883,1.625 110.454,4.196 110.454,7.367L110.454,36.653C110.454,38.996 108.969,41.086 106.724,41.755C104.933,42.289 102.77,42.882 100.874,43.252C96.724,44.064 90.295,44.188 90.295,44.188L89.126,44.689C89.033,44.729 88.934,44.75 88.832,44.75L83.747,44.75C81.013,44.75 78.301,44.316 75.634,43.717C67.614,41.916 59.34,41.505 59.34,41.505C59.446,39.374 59.446,39.374 59.446,39.374L59.553,39.38C59.619,39.383 59.716,39.389 59.841,39.397C60.092,39.412 60.456,39.436 60.916,39.47C61.836,39.538 63.144,39.648 64.706,39.814C67.822,40.147 71.983,40.711 76.101,41.636C78.69,42.217 81.233,42.617 83.747,42.617L88.547,42.617L89.838,42.064" style="fill:white;"/>
                <path id="Rectangle-290--Stroke-" serif:id="Rectangle 290 (Stroke)" d="M60.015,21.155C59.687,28.668 60.485,34.427 60.913,36.872C60.958,37.129 61.191,37.333 61.503,37.321L64.634,37.201C64.634,37.201 64.635,37.201 64.635,37.201C64.636,37.201 64.636,37.201 64.637,37.2C64.638,37.199 64.638,37.198 64.638,37.198C64.638,37.198 64.638,37.197 64.638,37.196C64.511,36.014 65.434,34.982 66.623,34.977L75.704,34.936C76.951,34.931 77.922,36.016 77.778,37.255C77.772,37.304 77.813,37.346 77.862,37.342L95.089,36.063C95.377,36.042 95.557,35.846 95.583,35.625C95.785,33.861 96.106,29.899 96.106,22.516C96.106,15.452 95.615,11.644 95.283,9.879C95.211,9.492 94.888,9.176 94.391,9.115C91.269,8.737 83.716,7.859 78.469,7.541C73.058,7.214 65.195,7.186 62.269,7.189C62.004,7.189 61.82,7.347 61.767,7.549C61.28,9.406 60.334,13.834 60.015,21.155ZM62.268,6.189C61.577,6.189 60.975,6.627 60.8,7.295C60.294,9.223 59.338,13.721 59.016,21.112C58.684,28.714 59.491,34.548 59.928,37.044C60.064,37.819 60.755,38.35 61.541,38.32L64.672,38.201C65.254,38.178 65.695,37.668 65.632,37.089C65.569,36.497 66.031,35.979 66.627,35.977L75.709,35.936C76.356,35.934 76.859,36.497 76.785,37.139C76.707,37.812 77.261,38.389 77.936,38.339L95.163,37.06C95.896,37.006 96.492,36.47 96.576,35.739C96.784,33.928 97.106,29.926 97.106,22.516C97.106,15.409 96.612,11.536 96.266,9.694C96.103,8.827 95.387,8.229 94.511,8.123C91.391,7.745 83.81,6.862 78.529,6.543C73.083,6.213 65.192,6.187 62.268,6.189Z" style="fill:white;"/>
                <path id="Rectangle-291" serif:id="Rectangle 291" d="M66.202,37.366C66.202,36.849 66.621,36.43 67.138,36.43L69.537,36.43C70.054,36.43 70.473,36.849 70.473,37.366C70.473,37.883 70.054,38.303 69.537,38.303L67.138,38.303C66.621,38.303 66.202,37.883 66.202,37.366Z" style="fill:white;fill-rule:nonzero;"/>
                <path id="Rectangle-292" serif:id="Rectangle 292" d="M71.935,37.366C71.935,36.849 72.354,36.43 72.871,36.43L75.27,36.43C75.787,36.43 76.206,36.849 76.206,37.366C76.206,37.883 75.787,38.303 75.27,38.303L72.871,38.303C72.354,38.303 71.935,37.883 71.935,37.366Z" style="fill:white;fill-rule:nonzero;"/>
                <path id="Polygon-30" serif:id="Polygon 30" d="M51.878,11.054C51.607,11.313 51.18,11.313 50.908,11.054L49.222,9.444C48.851,9.09 48.857,8.486 49.108,8.065C49.372,7.621 50.026,7.15 50.521,7.001C50.734,6.937 51.018,6.894 51.393,6.894C51.769,6.894 52.052,6.937 52.266,7.001C52.761,7.15 53.415,7.621 53.679,8.065C53.929,8.486 53.935,9.09 53.565,9.444L51.878,11.054Z" style="fill:white;fill-rule:nonzero;"/>
                <path id="Polygon-31" serif:id="Polygon 31" d="M50.908,13.963C51.179,13.704 51.606,13.704 51.877,13.963L53.564,15.573C53.934,15.927 53.928,16.531 53.678,16.952C53.414,17.396 52.76,17.867 52.265,18.016C52.051,18.08 51.768,18.123 51.392,18.123C51.017,18.123 50.733,18.08 50.52,18.016C50.025,17.867 49.371,17.396 49.107,16.952C48.856,16.531 48.85,15.927 49.221,15.573L50.908,13.963Z" style="fill:white;fill-rule:nonzero;"/>
                <path id="Polygon-32" serif:id="Polygon 32" d="M49.938,12.024C50.197,12.295 50.197,12.722 49.938,12.993L48.328,14.68C47.974,15.05 47.37,15.044 46.95,14.794C46.505,14.53 46.034,13.876 45.885,13.381C45.821,13.167 45.778,12.884 45.778,12.508C45.778,12.133 45.821,11.849 45.885,11.636C46.034,11.141 46.505,10.487 46.95,10.223C47.37,9.972 47.974,9.966 48.328,10.337L49.938,12.024Z" style="fill:white;fill-rule:nonzero;"/>
                <path id="Polygon-33" serif:id="Polygon 33" d="M52.847,12.993C52.588,12.722 52.588,12.295 52.847,12.024L54.457,10.337C54.81,9.966 55.414,9.972 55.835,10.223C56.279,10.487 56.751,11.141 56.9,11.636C56.964,11.849 57.006,12.133 57.006,12.508C57.006,12.884 56.964,13.167 56.9,13.381C56.751,13.876 56.279,14.53 55.835,14.794C55.414,15.044 54.81,15.05 54.457,14.68L52.847,12.993Z" style="fill:white;fill-rule:nonzero;"/>
                <path id="Polygon-30_2" serif:id="Polygon 30_2" d="M51.88,28.843C51.608,29.102 51.181,29.102 50.91,28.843L49.223,27.233C48.853,26.88 48.859,26.276 49.109,25.855C49.373,25.411 50.027,24.94 50.523,24.791C50.736,24.726 51.019,24.684 51.395,24.684C51.771,24.684 52.054,24.726 52.267,24.791C52.762,24.94 53.416,25.411 53.681,25.855C53.931,26.276 53.937,26.88 53.566,27.233L51.88,28.843Z" style="fill:white;fill-rule:nonzero;"/>
                <path id="Polygon-31_2" serif:id="Polygon 31_2" d="M50.908,31.753C51.179,31.494 51.606,31.494 51.877,31.753L53.564,33.363C53.934,33.716 53.928,34.32 53.678,34.741C53.414,35.185 52.76,35.657 52.265,35.806C52.051,35.87 51.768,35.912 51.392,35.912C51.017,35.912 50.733,35.87 50.52,35.806C50.025,35.657 49.371,35.185 49.107,34.741C48.856,34.32 48.85,33.716 49.221,33.363L50.908,31.753Z" style="fill:white;fill-rule:nonzero;"/>
                <path id="Polygon-32_2" serif:id="Polygon 32_2" d="M49.938,29.813C50.197,30.085 50.197,30.512 49.938,30.783L48.328,32.47C47.974,32.84 47.37,32.834 46.95,32.584C46.505,32.319 46.034,31.666 45.885,31.17C45.821,30.957 45.778,30.674 45.778,30.298C45.778,29.922 45.821,29.639 45.885,29.426C46.034,28.931 46.505,28.277 46.95,28.012C47.37,27.762 47.974,27.756 48.328,28.127L49.938,29.813Z" style="fill:white;fill-rule:nonzero;"/>
                <path id="Polygon-33_2" serif:id="Polygon 33_2" d="M52.847,30.783C52.588,30.512 52.588,30.085 52.847,29.813L54.457,28.127C54.81,27.756 55.414,27.762 55.835,28.012C56.279,28.277 56.751,28.931 56.9,29.426C56.964,29.639 57.006,29.922 57.006,30.298C57.006,30.674 56.964,30.957 56.9,31.17C56.751,31.666 56.279,32.319 55.835,32.584C55.414,32.834 54.81,32.84 54.457,32.47L52.847,30.783Z" style="fill:white;fill-rule:nonzero;"/>
                <path id="Polygon-31_3" serif:id="Polygon 31_3" d="M100.116,32.628C100.387,32.369 100.814,32.369 101.085,32.628L102.772,34.238C103.142,34.591 103.136,35.195 102.886,35.616C102.622,36.06 101.968,36.532 101.473,36.681C101.259,36.745 100.976,36.787 100.6,36.787C100.225,36.787 99.941,36.745 99.728,36.681C99.233,36.532 98.579,36.06 98.315,35.616C98.064,35.195 98.058,34.591 98.429,34.238L100.116,32.628Z" style="fill:white;fill-rule:nonzero;"/>
                <path id="Polygon-33_3" serif:id="Polygon 33_3" d="M102.055,31.658C101.796,31.387 101.796,30.96 102.055,30.688L103.665,29.002C104.018,28.631 104.622,28.637 105.043,28.887C105.487,29.152 105.958,29.806 106.107,30.301C106.172,30.514 106.214,30.797 106.214,31.173C106.214,31.549 106.172,31.832 106.107,32.045C105.958,32.541 105.487,33.195 105.043,33.459C104.622,33.709 104.018,33.715 103.665,33.345L102.055,31.658Z" style="fill:white;fill-rule:nonzero;"/>
                <path id="Rectangle-293--Stroke-" serif:id="Rectangle 293 (Stroke)" d="M91.655,13.248L64.586,13.248L64.586,30.434L91.655,30.434L91.655,13.248ZM62.586,11.248L62.586,32.434L93.655,32.434L93.655,11.248L62.586,11.248Z" style="fill:white;"/>
                <path id="Rectangle-294" serif:id="Rectangle 294" d="M102.547,8.971C102.547,8.761 102.718,8.591 102.928,8.591L108.194,8.591C108.404,8.591 108.574,8.761 108.574,8.971C108.574,9.181 108.404,9.351 108.194,9.351L102.928,9.351C102.718,9.351 102.547,9.181 102.547,8.971Z" style="fill:white;fill-rule:nonzero;"/>
                <path id="Rectangle-295" serif:id="Rectangle 295" d="M102.547,10.288C102.547,10.078 102.718,9.907 102.928,9.907L108.194,9.907C108.404,9.907 108.574,10.078 108.574,10.288C108.574,10.498 108.404,10.668 108.194,10.668L102.928,10.668C102.718,10.668 102.547,10.498 102.547,10.288Z" style="fill:white;fill-rule:nonzero;"/>
                <path id="Rectangle-296" serif:id="Rectangle 296" d="M102.547,14.237C102.547,14.027 102.718,13.857 102.928,13.857L108.194,13.857C108.404,13.857 108.574,14.027 108.574,14.237C108.574,14.447 108.404,14.617 108.194,14.617L102.928,14.617C102.718,14.617 102.547,14.447 102.547,14.237Z" style="fill:white;fill-rule:nonzero;"/>
                <path id="Rectangle-297" serif:id="Rectangle 297" d="M102.547,12.921C102.547,12.711 102.718,12.54 102.928,12.54L108.194,12.54C108.404,12.54 108.574,12.711 108.574,12.921C108.574,13.131 108.404,13.301 108.194,13.301L102.928,13.301C102.718,13.301 102.547,13.131 102.547,12.921Z" style="fill:white;fill-rule:nonzero;"/>
                <path id="Rectangle-298" serif:id="Rectangle 298" d="M102.547,11.604C102.547,11.394 102.718,11.224 102.928,11.224L108.194,11.224C108.404,11.224 108.574,11.394 108.574,11.604C108.574,11.814 108.404,11.985 108.194,11.985L102.928,11.985C102.718,11.985 102.547,11.814 102.547,11.604Z" style="fill:white;fill-rule:nonzero;"/>
            </g>
        </g>
    </g>
</svg>
