<?xml version="1.0" encoding="UTF-8" standalone="no"?>
<!DOCTYPE svg PUBLIC "-//W3C//DTD SVG 1.1//EN" "http://www.w3.org/Graphics/SVG/1.1/DTD/svg11.dtd">
<svg width="100%" height="100%" viewBox="0 0 100 60" version="1.1" xmlns="http://www.w3.org/2000/svg" xmlns:xlink="http://www.w3.org/1999/xlink" xml:space="preserve" xmlns:serif="http://www.serif.com/" style="fill-rule:evenodd;clip-rule:evenodd;stroke-linejoin:round;stroke-miterlimit:2;">
    <g transform="matrix(1,0,0,1,0,-868)">
        <g id="Wii" transform="matrix(1,0,0,0.6,0,868)">
            <rect x="0" y="0" width="100" height="100" style="fill:none;"/>
            <g id="Group-125" serif:id="Group 125" transform="matrix(1,0,0,1.66667,-27.5,27.5)">
                <g id="Union">
                    <path d="M47.557,7.5C47.131,7.5 46.786,7.845 46.786,8.271L46.786,11.786L43.271,11.786C42.845,11.786 42.5,12.131 42.5,12.557L42.5,14.443C42.5,14.869 42.845,15.214 43.271,15.214L46.786,15.214L46.786,18.729C46.786,19.155 47.131,19.5 47.557,19.5L49.443,19.5C49.869,19.5 50.214,19.155 50.214,18.729L50.214,15.214L53.729,15.214C54.155,15.214 54.5,14.869 54.5,14.443L54.5,12.557C54.5,12.131 54.155,11.786 53.729,11.786L50.214,11.786L50.214,8.271C50.214,7.845 49.869,7.5 49.443,7.5L47.557,7.5Z" style="fill:white;fill-rule:nonzero;"/>
                    <path d="M105.5,16.5C107.157,16.5 108.5,15.157 108.5,13.5C108.5,11.843 107.157,10.5 105.5,10.5C103.843,10.5 102.5,11.843 102.5,13.5C102.5,15.157 103.843,16.5 105.5,16.5ZM107.5,13.5C107.5,14.605 106.605,15.5 105.5,15.5C104.395,15.5 103.5,14.605 103.5,13.5C103.5,12.395 104.395,11.5 105.5,11.5C106.605,11.5 107.5,12.395 107.5,13.5Z" style="fill:white;"/>
                    <path d="M100.5,13.5C100.5,15.157 99.157,16.5 97.5,16.5C95.843,16.5 94.5,15.157 94.5,13.5C94.5,11.843 95.843,10.5 97.5,10.5C99.157,10.5 100.5,11.843 100.5,13.5ZM97.5,15.5C98.605,15.5 99.5,14.605 99.5,13.5C99.5,12.395 98.605,11.5 97.5,11.5C96.395,11.5 95.5,12.395 95.5,13.5C95.5,14.605 96.395,15.5 97.5,15.5Z" style="fill:white;"/>
                    <path d="M77.5,9.5C78.605,9.5 79.5,8.605 79.5,7.5C79.5,6.395 78.605,5.5 77.5,5.5C76.395,5.5 75.5,6.395 75.5,7.5C75.5,8.605 76.395,9.5 77.5,9.5ZM78.5,7.5C78.5,8.052 78.052,8.5 77.5,8.5C76.948,8.5 76.5,8.052 76.5,7.5C76.5,6.948 76.948,6.5 77.5,6.5C78.052,6.5 78.5,6.948 78.5,7.5Z" style="fill:white;"/>
                    <path d="M79.5,13.5C79.5,14.605 78.605,15.5 77.5,15.5C76.395,15.5 75.5,14.605 75.5,13.5C75.5,12.395 76.395,11.5 77.5,11.5C78.605,11.5 79.5,12.395 79.5,13.5ZM77.5,14.5C78.052,14.5 78.5,14.052 78.5,13.5C78.5,12.948 78.052,12.5 77.5,12.5C76.948,12.5 76.5,12.948 76.5,13.5C76.5,14.052 76.948,14.5 77.5,14.5Z" style="fill:white;"/>
                    <path d="M77.5,21.5C78.605,21.5 79.5,20.605 79.5,19.5C79.5,18.395 78.605,17.5 77.5,17.5C76.395,17.5 75.5,18.395 75.5,19.5C75.5,20.605 76.395,21.5 77.5,21.5ZM78.5,19.5C78.5,20.052 78.052,20.5 77.5,20.5C76.948,20.5 76.5,20.052 76.5,19.5C76.5,18.948 76.948,18.5 77.5,18.5C78.052,18.5 78.5,18.948 78.5,19.5Z" style="fill:white;"/>
                    <path d="M40.5,19.5C40.5,20.605 39.605,21.5 38.5,21.5C37.395,21.5 36.5,20.605 36.5,19.5C36.5,18.395 37.395,17.5 38.5,17.5C39.605,17.5 40.5,18.395 40.5,19.5ZM38.5,20.5C39.052,20.5 39.5,20.052 39.5,19.5C39.5,18.948 39.052,18.5 38.5,18.5C37.948,18.5 37.5,18.948 37.5,19.5C37.5,20.052 37.948,20.5 38.5,20.5Z" style="fill:white;"/>
                    <path d="M63.5,18.5C66.261,18.5 68.5,16.261 68.5,13.5C68.5,10.739 66.261,8.5 63.5,8.5C60.739,8.5 58.5,10.739 58.5,13.5C58.5,16.261 60.739,18.5 63.5,18.5ZM67.5,13.5C67.5,15.709 65.709,17.5 63.5,17.5C61.291,17.5 59.5,15.709 59.5,13.5C59.5,11.291 61.291,9.5 63.5,9.5C65.709,9.5 67.5,11.291 67.5,13.5Z" style="fill:white;"/>
                    <rect x="112.5" y="6.5" width="2" height="2" style="fill:white;fill-rule:nonzero;"/>
                    <rect x="112.5" y="10.5" width="2" height="2" style="fill:white;fill-rule:nonzero;"/>
                    <rect x="112.5" y="14.5" width="2" height="2" style="fill:white;fill-rule:nonzero;"/>
                    <rect x="112.5" y="18.5" width="2" height="2" style="fill:white;fill-rule:nonzero;"/>
                    <path d="M35.5,0C33.015,0 31,2.015 31,4.5L31,22.5C31,24.985 33.015,27 35.5,27L119.5,27C121.985,27 124,24.985 124,22.5L124,4.5C124,2.015 121.985,0 119.5,0L35.5,0ZM34,4.5C34,3.672 34.672,3 35.5,3L119.5,3C120.328,3 121,3.672 121,4.5L121,22.5C121,23.328 120.328,24 119.5,24L35.5,24C34.672,24 34,23.328 34,22.5L34,4.5Z" style="fill:white;"/>
                </g>
            </g>
        </g>
    </g>
</svg>
