<?xml version="1.0" encoding="UTF-8" standalone="no"?>
<!DOCTYPE svg PUBLIC "-//W3C//DTD SVG 1.1//EN" "http://www.w3.org/Graphics/SVG/1.1/DTD/svg11.dtd">
<svg width="100%" height="100%" viewBox="0 0 150 50" version="1.1" xmlns="http://www.w3.org/2000/svg" xmlns:xlink="http://www.w3.org/1999/xlink" xml:space="preserve" xmlns:serif="http://www.serif.com/" style="fill-rule:evenodd;clip-rule:evenodd;stroke-linejoin:round;stroke-miterlimit:2;">
    <g transform="matrix(0.991513,0.0004931,-0.000484275,0.973767,0.665478,0.708538)">
        <g opacity="0.5">
            <g transform="matrix(1.16588,3.43245e-19,2.34825e-19,1.16588,-4.29628,-4.13583)">
                <g transform="matrix(1.00856,-0.000510718,0.000501578,1.02694,-1.83916,17.2448)">
                    <circle cx="27.5" cy="17.5" r="5.5" style="fill:white;"/>
                </g>
                <g transform="matrix(1.00856,-0.000510718,0.000501578,1.02694,-0.795419,-254.381)">
                    <path d="M21.834,272C21.834,275.036 19.369,277.5 16.334,277.5C13.298,277.5 10.834,275.036 10.834,272C10.834,268.964 13.298,266.5 16.334,266.5C19.369,266.5 21.834,268.964 21.834,272ZM16.334,267.944C18.572,267.944 20.389,269.762 20.389,272C20.389,274.238 18.572,276.056 16.334,276.056C14.095,276.056 12.278,274.238 12.278,272C12.278,269.762 14.095,267.944 16.334,267.944Z" style="fill:white;"/>
                </g>
                <g transform="matrix(1.00856,-0.000510718,0.000501578,1.02694,-0.795419,-254.381)">
                    <path d="M41.834,272C41.834,275.036 39.369,277.5 36.334,277.5C33.298,277.5 30.834,275.036 30.834,272C30.834,268.964 33.298,266.5 36.334,266.5C39.369,266.5 41.834,268.964 41.834,272ZM36.334,267.944C38.572,267.944 40.389,269.762 40.389,272C40.389,274.238 38.572,276.056 36.334,276.056C34.095,276.056 32.278,274.238 32.278,272C32.278,269.762 34.095,267.944 36.334,267.944Z" style="fill:white;"/>
                </g>
                <g transform="matrix(1.00856,-0.000510718,0.000501578,1.02694,-0.795419,-254.381)">
                    <path d="M26.334,256.5C29.369,256.5 31.834,258.964 31.834,262C31.834,265.036 29.369,267.5 26.334,267.5C23.298,267.5 20.834,265.036 20.834,262C20.834,258.964 23.298,256.5 26.334,256.5ZM26.334,257.944C28.572,257.944 30.389,259.762 30.389,262C30.389,264.238 28.572,266.056 26.334,266.056C24.095,266.056 22.278,264.238 22.278,262C22.278,259.762 24.095,257.944 26.334,257.944Z" style="fill:white;"/>
                </g>
            </g>
            <g transform="matrix(1.00856,-0.000510718,0.000501578,1.02694,-0.671529,-0.727286)">
                <path d="M149.38,25.063C149.38,11.599 138.449,0.668 124.985,0.668L25.049,0.668C11.584,0.668 0.653,11.599 0.653,25.063C0.653,38.527 11.584,49.459 25.049,49.459L124.985,49.459C138.449,49.459 149.38,38.527 149.38,25.063ZM26.333,3.788C38.263,3.788 47.948,13.31 47.948,25.039C47.948,36.768 38.263,46.29 26.333,46.29C14.404,46.29 4.719,36.768 4.719,25.039C4.719,13.31 14.404,3.788 26.333,3.788ZM55.318,18.242C55.318,25.668 63.301,26.671 63.301,32.018C63.301,33.874 62.485,34.542 61.185,34.542C59.885,34.542 59.069,33.874 59.069,32.018L59.069,30.161L55.207,30.161L55.207,31.758C55.207,35.916 57.286,38.293 61.296,38.293C65.306,38.293 67.386,35.916 67.386,31.758C67.386,24.332 59.403,23.329 59.403,17.982C59.403,16.126 60.145,15.42 61.445,15.42C62.744,15.42 63.487,16.126 63.487,17.982L63.487,19.059L67.349,19.059L67.349,18.242C67.349,14.084 65.306,11.707 61.333,11.707C57.361,11.707 55.318,14.084 55.318,18.242ZM117.623,28.305L117.623,32.018C117.623,33.874 116.806,34.542 115.507,34.542C114.207,34.542 113.39,33.874 113.39,32.018L113.39,17.982C113.39,16.126 114.207,15.42 115.507,15.42C116.806,15.42 117.623,16.126 117.623,17.982L117.623,20.767L121.485,20.767L121.485,18.242C121.485,14.084 119.405,11.707 115.395,11.707C111.385,11.707 109.306,14.084 109.306,18.242L109.306,31.758C109.306,35.916 111.385,38.293 115.395,38.293C119.405,38.293 121.485,35.916 121.485,31.758L121.485,28.305L117.623,28.305ZM83.389,37.996L94.194,37.996L94.194,34.283L87.473,34.283L87.473,12.004L83.389,12.004L83.389,37.996ZM122.784,15.717L127.054,15.717L127.054,37.996L131.139,37.996L131.139,15.717L135.409,15.717L135.409,12.004L122.784,12.004L122.784,15.717ZM100.06,15.717L107.115,15.717L107.115,12.004L95.976,12.004L95.976,37.996L107.115,37.996L107.115,34.283L100.06,34.283L100.06,26.671L105.667,26.671L105.667,22.958L100.06,22.958L100.06,15.717ZM73.809,15.717L80.864,15.717L80.864,12.004L69.725,12.004L69.725,37.996L80.864,37.996L80.864,34.283L73.809,34.283L73.809,26.671L79.416,26.671L79.416,22.958L73.809,22.958L73.809,15.717Z" style="fill:white;"/>
            </g>
        </g>
    </g>
</svg>
