<?xml version="1.0" encoding="UTF-8" standalone="no"?>
<!DOCTYPE svg PUBLIC "-//W3C//DTD SVG 1.1//EN" "http://www.w3.org/Graphics/SVG/1.1/DTD/svg11.dtd">
<svg width="100%" height="100%" viewBox="0 0 101 60" version="1.1" xmlns="http://www.w3.org/2000/svg" xmlns:xlink="http://www.w3.org/1999/xlink" xml:space="preserve" xmlns:serif="http://www.serif.com/" style="fill-rule:evenodd;clip-rule:evenodd;">
    <g transform="matrix(1,0,0,1,-280,-620)">
        <g id="Master-System" serif:id="Master System" transform="matrix(1,0,0,0.6,280.4,620)">
            <rect x="0" y="0" width="100" height="100" style="fill:none;"/>
            <g id="MASTER-SYSTEM-CONTROLLER---ICON" transform="matrix(1,0,0,1.66667,17.802,24.1667)">
                <path id="Rectangle" d="M62.5,4.5C62.5,2.844 61.156,1.5 59.5,1.5L4.5,1.5C2.844,1.5 1.5,2.844 1.5,4.5L1.5,26.5C1.5,28.156 2.844,29.5 4.5,29.5L59.5,29.5C61.156,29.5 62.5,28.156 62.5,26.5L62.5,4.5Z" style="fill:none;stroke:white;stroke-width:3px;"/>
                <g id="Group-47" transform="matrix(1,0,0,1,39,14)">
                    <circle id="Oval" cx="14.5" cy="4.5" r="3.5" style="fill:none;stroke:white;stroke-width:2px;"/>
                    <circle id="Oval1" serif:id="Oval" cx="4.5" cy="4.5" r="3.5" style="fill:none;stroke:white;stroke-width:2px;"/>
                </g>
                <path id="Rectangle1" serif:id="Rectangle" d="M25,13C25,10.24 22.76,8 20,8L15,8C12.24,8 10,10.24 10,13L10,18C10,20.76 12.24,23 15,23L20,23C22.76,23 25,20.76 25,18L25,13Z" style="fill:none;stroke:white;stroke-width:2px;"/>
                <path id="Path" d="M61.99,10L31.5,10C30.119,10 29,8.881 29,7.5L29,2L61,2" style="fill:none;stroke:white;stroke-width:2px;"/>
                <path id="Path1" serif:id="Path" d="M47.5,29L28,29L28,27.083C28,25.933 29.119,25 30.5,25L62.896,25" style="fill:none;stroke:white;stroke-width:2px;"/>
                <g id="Rectangle2" serif:id="Rectangle" transform="matrix(7.04481e-16,1,-1,7.04481e-16,19.5,11.5)">
                    <path d="M14.5,13L-6.5,13C-6.914,13 -7.289,13.168 -7.561,13.439C-7.832,13.711 -8,14.086 -8,14.5L-8,18L16,18L16,14.5C16,14.086 15.832,13.711 15.561,13.439C15.289,13.168 14.914,13 14.5,13Z" style="fill:none;stroke:white;stroke-width:2px;"/>
                </g>
                <path id="Rectangle3" serif:id="Rectangle" d="M18,10.5C18,10.224 17.776,10 17.5,10C17.224,10 17,10.224 17,10.5L17,12.5C17,12.776 17.224,13 17.5,13C17.776,13 18,12.776 18,12.5L18,10.5Z" style="fill:white;stroke:white;stroke-width:1px;"/>
                <path id="Rectangle4" serif:id="Rectangle" d="M18,18.5C18,18.224 17.776,18 17.5,18C17.224,18 17,18.224 17,18.5L17,20.5C17,20.776 17.224,21 17.5,21C17.776,21 18,20.776 18,20.5L18,18.5Z" style="fill:white;stroke:white;stroke-width:1px;"/>
                <g id="Rectangle5" serif:id="Rectangle" transform="matrix(-3.82857e-16,-1,1,-3.82857e-16,-2,29)">
                    <path d="M14,14.5C14,14.224 13.776,14 13.5,14C13.224,14 13,14.224 13,14.5L13,16.5C13,16.776 13.224,17 13.5,17C13.776,17 14,16.776 14,16.5L14,14.5Z" style="fill:white;stroke:white;stroke-width:1px;"/>
                </g>
                <g id="Rectangle6" serif:id="Rectangle" transform="matrix(-3.82857e-16,-1,1,-3.82857e-16,6,37)">
                    <path d="M22,14.5C22,14.224 21.776,14 21.5,14C21.224,14 21,14.224 21,14.5L21,16.5C21,16.776 21.224,17 21.5,17C21.776,17 22,16.776 22,16.5L22,14.5Z" style="fill:white;stroke:white;stroke-width:1px;"/>
                </g>
            </g>
        </g>
    </g>
</svg>
