<?xml version="1.0" encoding="UTF-8" standalone="no"?>
<!DOCTYPE svg PUBLIC "-//W3C//DTD SVG 1.1//EN" "http://www.w3.org/Graphics/SVG/1.1/DTD/svg11.dtd">
<svg width="100%" height="100%" viewBox="0 0 100 60" version="1.1" xmlns="http://www.w3.org/2000/svg" xmlns:xlink="http://www.w3.org/1999/xlink" xml:space="preserve" xmlns:serif="http://www.serif.com/" style="fill-rule:evenodd;clip-rule:evenodd;">
    <g transform="matrix(1,0,0,1,0,-124)">
        <g id="PC-Engine" transform="matrix(1,0,0,0.6,0,124)">
            <rect x="0" y="0" width="100" height="100" style="fill:none;"/>
            <g transform="matrix(1,0,0,1.66667,16,17.625)">
                <g id="PC-Engine1" serif:id="PC-Engine">
                    <g id="Group-50">
                        <g id="Group-49">
                            <g id="Group-48" transform="matrix(1,0,0,1,22,0)">
                                <path id="Path" d="M22.719,1.011L1,1.255L1,11.601C1,14.182 2.221,16.51 4.17,18.198C6.174,19.935 8.944,21 12,21C15.056,21 17.826,19.935 19.83,18.198C21.776,16.513 22.996,14.19 23,11.614L22.719,1.011Z" style="fill:none;stroke:white;stroke-width:2px;"/>
                            </g>
                            <g id="Group-481" serif:id="Group-48" transform="matrix(1,0,0,1,0,4)">
                                <path id="Shape" d="M46,0.386L65,2.839C66.657,2.839 68,4.182 68,5.839L68,30.839C68,32.496 66.657,33.839 65,33.839L3,33.839C1.343,33.839 0,32.496 0,30.839L0,5.839C0,4.182 1.343,2.839 3,2.839L22,0.386M22,0.386L22,3.411L3.193,5.839L3,5.839L3,30.839L65,30.839L65,5.839L64.807,5.839L46,3.411L46,0.386" style="fill:white;fill-rule:nonzero;"/>
                            </g>
                            <g id="Group-47" transform="matrix(1,0,0,1,44,23)">
                                <circle id="Oval" cx="14.5" cy="4.5" r="3.5" style="fill:none;stroke:white;stroke-width:2px;"/>
                                <circle id="Oval1" serif:id="Oval" cx="4.5" cy="4.5" r="3.5" style="fill:none;stroke:white;stroke-width:2px;"/>
                            </g>
                            <g id="Group-40" transform="matrix(1,0,0,1,5,15)">
                                <circle id="Oval2" serif:id="Oval" cx="9" cy="9" r="8" style="fill:none;stroke:white;stroke-width:2px;"/>
                                <g id="Group-39" transform="matrix(1,0,0,1,3,3)">
                                    <path id="Rectangle" d="M7.714,0.771C7.714,0.346 7.369,0 6.943,0L5.057,0C4.631,0 4.286,0.346 4.286,0.771L4.286,11.229C4.286,11.654 4.631,12 5.057,12L6.943,12C7.369,12 7.714,11.654 7.714,11.229L7.714,0.771Z" style="fill:white;"/>
                                    <g id="Rectangle1" serif:id="Rectangle" transform="matrix(-3.82857e-16,-1,1,-3.82857e-16,2.66454e-15,12)">
                                        <path d="M5.057,0L6.943,0C7.369,0 7.714,0.345 7.714,0.771L7.714,11.229C7.714,11.655 7.369,12 6.943,12L5.057,12C4.631,12 4.286,11.655 4.286,11.229L4.286,0.771C4.286,0.345 4.631,-0 5.057,0Z" style="fill:white;"/>
                                    </g>
                                </g>
                            </g>
                            <g id="Group-41" transform="matrix(1,0,0,1,27,27)">
                                <path id="Rectangle2" serif:id="Rectangle" d="M14,1C14,0.448 13.552,0 13,0L10,0C9.448,0 9,0.448 9,1C9,1.552 9.448,2 10,2L13,2C13.552,2 14,1.552 14,1Z" style="fill:none;stroke:white;stroke-width:2px;"/>
                                <path id="Rectangle3" serif:id="Rectangle" d="M5,1C5,0.448 4.552,0 4,0L1,0C0.448,0 0,0.448 0,1C0,1.552 0.448,2 1,2L4,2C4.552,2 5,1.552 5,1Z" style="fill:none;stroke:white;stroke-width:2px;"/>
                            </g>
                        </g>
                    </g>
                </g>
            </g>
        </g>
    </g>
</svg>
