<svg xmlns="http://www.w3.org/2000/svg" xmlns:svg="http://www.w3.org/2000/svg" xmlns:xlink="http://www.w3.org/1999/xlink" id="svg2" width="566.928" height="234.744" x="0" y="0" baseProfile="tiny" version="1.2" viewBox="-25.928 -4 566.928 234.744" xml:space="preserve"><rect id="rect3604" width="566.928" height="234.744" x="1.536" y="-4" fill="#003E99"/><path id="path2830" fill="#FFF" d="M38.726,197.467L81.79,27.956	h39.932l20.749,73.991l21.531-73.991h37.583l35.233,124.883l85.965-0.162c9.023-0.088,9.577-18.748-0.669-18.744l-50.063-0.668	c-21.497,0.207-44.167-23.05-43.063-54.024c0.229-28.412,25.004-50.786,56.698-50.778l127.69-0.114l32.494,44.238l31.709-44.629	l52.85,0.392l-57.938,81.428l62.637,88.292l-52.572-0.161l-36.457-50.662l-34.68,50.662l-53.633-0.048l61.072-87.3l-26.623-38.757	l-110.999,0.162c-12.114,0.111-11.669,19.169,0.095,18.812l46.768,0.716c19.767,0.127,47.604,20.668,46.911,52.736	c0.301,37.279-33.275,54.312-49.441,53.401l-122.419,0.163l-20.357-76.271l-20.357,76.108h-38.644l-21.255-75.718l-18.677,75.833	L38.726,197.467z"/></svg>