<svg xmlns="http://www.w3.org/2000/svg" xmlns:svg="http://www.w3.org/2000/svg" xmlns:xlink="http://www.w3.org/1999/xlink" id="svg2" width="566.929" height="234.744" x="0" y="0" enable-background="new -27.464 0 566.929 234.744" version="1.1" viewBox="-27.464 0 566.929 234.744" xml:space="preserve"><rect id="rect3604" width="566.929" height="234.744" x="-27.464"/><path id="path2830" fill="#FFF" d="M9.726,201.467L52.79,31.956	h39.932l20.749,73.991l21.531-73.991h37.583l35.233,124.883l85.964-0.162c9.024-0.088,9.578-18.749-0.668-18.744l-50.063-0.668	c-21.497,0.207-44.167-23.05-43.063-54.025c0.229-28.412,25.004-50.786,56.698-50.778l127.69-0.114l32.494,44.238l31.71-44.629	l52.85,0.392l-57.938,81.428l62.637,88.293l-52.573-0.162l-36.456-50.662l-34.681,50.662l-53.633-0.047l61.072-87.301	l-26.622-38.757l-110.999,0.162c-12.114,0.111-11.669,19.169,0.095,18.812l46.768,0.716c19.767,0.127,47.604,20.668,46.911,52.736	c0.302,37.28-33.275,54.312-49.441,53.402l-122.419,0.163l-20.357-76.272l-20.357,76.109H94.793l-21.255-75.718l-18.677,75.833	L9.726,201.467z"/></svg>