<?xml version="1.0" encoding="UTF-8" standalone="no"?>
<!DOCTYPE svg PUBLIC "-//W3C//DTD SVG 1.1//EN" "http://www.w3.org/Graphics/SVG/1.1/DTD/svg11.dtd">
<svg width="100%" height="100%" viewBox="0 0 100 60" version="1.1" xmlns="http://www.w3.org/2000/svg" xmlns:xlink="http://www.w3.org/1999/xlink" xml:space="preserve" xmlns:serif="http://www.serif.com/" style="fill-rule:evenodd;clip-rule:evenodd;stroke-linejoin:round;stroke-miterlimit:2;">
    <g transform="matrix(1,0,0,1,0,-620)">
        <g id="MSX" transform="matrix(1,0,0,0.6,0,620)">
            <rect x="0" y="0" width="100" height="100" style="fill:none;"/>
            <g id="Group-121" serif:id="Group 121" transform="matrix(1,0,0,1.66667,-26,9.16667)">
                <g id="Vector">
                    <path d="M36,4.5C36,2.015 38.015,0 40.5,0L111.5,0C113.985,0 116,2.015 116,4.5L116,44.5C116,46.985 113.985,49 111.5,49L40.5,49C38.015,49 36,46.985 36,44.5L36,4.5ZM40.5,3C39.672,3 39,3.672 39,4.5L39,44.5C39,45.328 39.672,46 40.5,46L111.5,46C112.328,46 113,45.328 113,44.5L113,4.5C113,3.672 112.328,3 111.5,3L40.5,3Z" style="fill:white;"/>
                    <path d="M91.5,29.5L43.5,29.5L43.5,33.5L91.5,33.5L91.5,29.5ZM41.5,27.5L41.5,35.5L93.5,35.5L93.5,27.5L41.5,27.5Z" style="fill:white;"/>
                    <path d="M91.5,23.5L43.5,23.5L43.5,27.5L91.5,27.5L91.5,23.5ZM41.5,21.5L41.5,29.5L93.5,29.5L93.5,21.5L41.5,21.5Z" style="fill:white;"/>
                    <path d="M47.5,14.5L43.5,14.5L43.5,17.5L47.5,17.5L47.5,14.5ZM41.5,12.5L41.5,19.5L49.5,19.5L49.5,12.5L41.5,12.5Z" style="fill:white;"/>
                    <path d="M53.5,14.5L49.5,14.5L49.5,17.5L53.5,17.5L53.5,14.5ZM47.5,12.5L47.5,19.5L55.5,19.5L55.5,12.5L47.5,12.5Z" style="fill:white;"/>
                    <path d="M59.5,14.5L55.5,14.5L55.5,17.5L59.5,17.5L59.5,14.5ZM53.5,12.5L53.5,19.5L61.5,19.5L61.5,12.5L53.5,12.5Z" style="fill:white;"/>
                    <path d="M65.5,14.5L61.5,14.5L61.5,17.5L65.5,17.5L65.5,14.5ZM59.5,12.5L59.5,19.5L67.5,19.5L67.5,12.5L59.5,12.5Z" style="fill:white;"/>
                    <path d="M71.5,14.5L67.5,14.5L67.5,17.5L71.5,17.5L71.5,14.5ZM65.5,12.5L65.5,19.5L73.5,19.5L73.5,12.5L65.5,12.5Z" style="fill:white;"/>
                    <path d="M77.5,14.5L73.5,14.5L73.5,17.5L77.5,17.5L77.5,14.5ZM71.5,12.5L71.5,19.5L79.5,19.5L79.5,12.5L71.5,12.5Z" style="fill:white;"/>
                    <path d="M83.5,14.5L79.5,14.5L79.5,17.5L83.5,17.5L83.5,14.5ZM77.5,12.5L77.5,19.5L85.5,19.5L85.5,12.5L77.5,12.5Z" style="fill:white;"/>
                    <path d="M89.5,14.5L85.5,14.5L85.5,17.5L89.5,17.5L89.5,14.5ZM83.5,12.5L83.5,19.5L91.5,19.5L91.5,12.5L83.5,12.5Z" style="fill:white;"/>
                    <path d="M95.5,14.5L91.5,14.5L91.5,17.5L95.5,17.5L95.5,14.5ZM89.5,12.5L89.5,19.5L97.5,19.5L97.5,12.5L89.5,12.5Z" style="fill:white;"/>
                    <path d="M107.5,2.5L81.5,2.5L81.5,7.5L107.5,7.5L107.5,2.5ZM81.5,0.5C80.395,0.5 79.5,1.395 79.5,2.5L79.5,7.5C79.5,8.605 80.395,9.5 81.5,9.5L107.5,9.5C108.605,9.5 109.5,8.605 109.5,7.5L109.5,2.5C109.5,1.395 108.605,0.5 107.5,0.5L81.5,0.5Z" style="fill:white;"/>
                    <path d="M108.5,23.5L97.5,23.5L97.5,34.5L108.5,34.5L108.5,23.5ZM95.5,21.5L95.5,36.5L110.5,36.5L110.5,21.5L95.5,21.5Z" style="fill:white;"/>
                    <path d="M79.5,35.5L55.5,35.5L55.5,39.5L79.5,39.5L79.5,35.5ZM53.5,33.5L53.5,41.5L81.5,41.5L81.5,33.5L53.5,33.5Z" style="fill:white;"/>
                    <path d="M47.5,35.5L43.5,35.5L43.5,39.5L47.5,39.5L47.5,35.5ZM41.5,33.5L41.5,41.5L49.5,41.5L49.5,33.5L41.5,33.5Z" style="fill:white;"/>
                    <path d="M53.5,35.5L49.5,35.5L49.5,39.5L53.5,39.5L53.5,35.5ZM47.5,33.5L47.5,41.5L55.5,41.5L55.5,33.5L47.5,33.5Z" style="fill:white;"/>
                    <path d="M85.5,35.5L81.5,35.5L81.5,39.5L85.5,39.5L85.5,35.5ZM79.5,33.5L79.5,41.5L87.5,41.5L87.5,33.5L79.5,33.5Z" style="fill:white;"/>
                    <path d="M91.5,35.5L87.5,35.5L87.5,39.5L91.5,39.5L91.5,35.5ZM85.5,33.5L85.5,41.5L93.5,41.5L93.5,33.5L85.5,33.5Z" style="fill:white;"/>
                    <rect x="102.5" y="23.5" width="1" height="11" style="fill:white;fill-rule:nonzero;"/>
                    <rect x="97.5" y="28.5" width="11" height="1" style="fill:white;fill-rule:nonzero;"/>
                </g>
            </g>
        </g>
    </g>
</svg>
