<?xml version="1.0" encoding="UTF-8" standalone="no"?>
<!DOCTYPE svg PUBLIC "-//W3C//DTD SVG 1.1//EN" "http://www.w3.org/Graphics/SVG/1.1/DTD/svg11.dtd">
<svg width="100%" height="100%" viewBox="0 0 101 60" version="1.1" xmlns="http://www.w3.org/2000/svg" xmlns:xlink="http://www.w3.org/1999/xlink" xml:space="preserve" xmlns:serif="http://www.serif.com/" style="fill-rule:evenodd;clip-rule:evenodd;">
    <g transform="matrix(1,0,0,1,-560,-372)">
        <g id="Game-Boy" serif:id="Game Boy" transform="matrix(1,0,0,0.6,560.8,372)">
            <rect x="0" y="0" width="100" height="100" style="fill:none;"/>
            <g id="Group-204" serif:id="Group 204" transform="matrix(1,0,0,1.66667,-25.1481,3.61552)">
                <path id="Rectangle-213" serif:id="Rectangle 213" d="M59.198,2.923C59.198,2.503 59.539,2.161 59.96,2.161L90.336,2.161C90.757,2.161 91.098,2.503 91.098,2.923L91.098,45.727C91.098,50.02 87.618,53.5 83.325,53.5L59.96,53.5C59.539,53.5 59.198,53.159 59.198,52.738L59.198,2.923Z" style="fill:none;fill-rule:nonzero;stroke:white;stroke-width:2px;"/>
                <path id="Line-50" serif:id="Line 50" d="M59.81,4.84L90.23,4.84" style="fill:none;fill-rule:nonzero;stroke:white;stroke-width:1px;"/>
                <path id="Line-51" serif:id="Line 51" d="M63.489,2.161L63.489,4.455" style="fill:none;fill-rule:nonzero;stroke:white;stroke-width:1px;"/>
                <path id="Line-52" serif:id="Line 52" d="M87.35,2.161L87.35,4.455" style="fill:none;fill-rule:nonzero;stroke:white;stroke-width:1px;"/>
                <path id="Rectangle-214" serif:id="Rectangle 214" d="M63.17,7.391L86.668,7.391C86.981,7.391 87.235,7.645 87.235,7.958L87.235,22.048C87.235,24.297 85.412,26.12 83.163,26.12L63.17,26.12C62.857,26.12 62.603,25.867 62.603,25.554L62.603,7.958C62.603,7.645 62.857,7.391 63.17,7.391Z" style="fill:none;fill-rule:nonzero;stroke:white;stroke-width:1px;"/>
                <rect id="Rectangle-215" serif:id="Rectangle 215" x="66.825" y="9.083" width="16.492" height="15.278" style="fill:none;stroke:white;stroke-width:1px;"/>
                <g id="Group-200" serif:id="Group 200">
                    <path id="Rectangle-203" serif:id="Rectangle 203" d="M67.297,32.785C67.297,32.617 67.161,32.481 66.992,32.481L64.87,32.481C64.702,32.481 64.565,32.617 64.565,32.785L64.565,39.73C64.565,39.898 64.702,40.035 64.87,40.035L66.992,40.035C67.161,40.035 67.297,39.898 67.297,39.73L67.297,32.785Z" style="fill:white;"/>
                    <g id="Rectangle-204" serif:id="Rectangle 204" transform="matrix(-3.82857e-16,-1,1,-3.82857e-16,24.53,99.7776)">
                        <path d="M64.886,37.929C64.886,37.76 64.749,37.624 64.581,37.624L62.459,37.624C62.29,37.624 62.154,37.76 62.154,37.929L62.154,44.873C62.154,45.042 62.29,45.178 62.459,45.178L64.581,45.178C64.749,45.178 64.886,45.042 64.886,44.873L64.886,37.929Z" style="fill:white;"/>
                    </g>
                </g>
                <circle id="Ellipse-95" serif:id="Ellipse 95" cx="81.167" cy="36.856" r="1.897" style="fill:white;"/>
                <circle id="Ellipse-96" serif:id="Ellipse 96" cx="86.192" cy="34.597" r="1.897" style="fill:white;"/>
                <g id="Rectangle-216" serif:id="Rectangle 216" transform="matrix(0.893666,-0.448733,0.448733,0.893666,-12.4459,35.553)">
                    <path d="M72.605,44.583C72.605,44.282 72.361,44.038 72.059,44.038L69.34,44.038C69.039,44.038 68.794,44.282 68.794,44.583C68.794,44.885 69.039,45.129 69.34,45.129L72.059,45.129C72.361,45.129 72.605,44.885 72.605,44.583Z" style="fill:white;"/>
                </g>
                <g id="Rectangle-217" serif:id="Rectangle 217" transform="matrix(0.893666,-0.448733,0.448733,0.893666,-11.8901,37.8988)">
                    <path d="M77.833,44.583C77.833,44.282 77.588,44.038 77.287,44.038L74.568,44.038C74.267,44.038 74.022,44.282 74.022,44.583C74.022,44.885 74.267,45.129 74.568,45.129L77.287,45.129C77.588,45.129 77.833,44.885 77.833,44.583Z" style="fill:white;"/>
                </g>
                <g id="Group-201" serif:id="Group 201">
                    <g id="Rectangle-218" serif:id="Rectangle 218" transform="matrix(0.878127,-0.478427,0.478427,0.878127,-12.3169,43.9075)">
                        <path d="M80.651,46.443C80.651,46.27 80.511,46.13 80.338,46.13C80.164,46.13 80.024,46.27 80.024,46.443L80.024,50.994C80.024,51.167 80.164,51.307 80.338,51.307C80.511,51.307 80.651,51.167 80.651,50.994L80.651,46.443Z" style="fill:white;"/>
                    </g>
                    <g id="Rectangle-219" serif:id="Rectangle 219" transform="matrix(0.878127,-0.478427,0.478427,0.878127,-12.8985,43.2705)">
                        <path d="M79.11,47.266C79.11,47.093 78.97,46.953 78.797,46.953C78.623,46.953 78.483,47.093 78.483,47.266L78.483,51.817C78.483,51.99 78.623,52.13 78.797,52.13C78.97,52.13 79.11,51.99 79.11,51.817L79.11,47.266Z" style="fill:white;"/>
                    </g>
                    <g id="Rectangle-220" serif:id="Rectangle 220" transform="matrix(0.878127,-0.478427,0.478427,0.878127,-11.7353,44.5447)">
                        <path d="M82.193,45.62C82.193,45.447 82.052,45.307 81.879,45.307C81.706,45.307 81.565,45.447 81.565,45.62L81.565,50.171C81.565,50.344 81.706,50.484 81.879,50.484C82.052,50.484 82.193,50.344 82.193,50.171L82.193,45.62Z" style="fill:white;"/>
                    </g>
                    <g id="Rectangle-221" serif:id="Rectangle 221" transform="matrix(0.878127,-0.478427,0.478427,0.878127,-9.99066,46.4561)">
                        <path d="M86.817,43.152C86.817,42.978 86.676,42.838 86.503,42.838C86.33,42.838 86.19,42.978 86.19,43.152L86.19,47.702C86.19,47.875 86.33,48.016 86.503,48.016C86.676,48.016 86.817,47.875 86.817,47.702L86.817,43.152Z" style="fill:white;"/>
                    </g>
                    <g id="Rectangle-222" serif:id="Rectangle 222" transform="matrix(0.878127,-0.478427,0.478427,0.878127,-10.5721,45.8188)">
                        <path d="M85.275,43.974C85.275,43.801 85.135,43.661 84.962,43.661C84.788,43.661 84.648,43.801 84.648,43.974L84.648,48.525C84.648,48.698 84.788,48.838 84.962,48.838C85.135,48.838 85.275,48.698 85.275,48.525L85.275,43.974Z" style="fill:white;"/>
                    </g>
                    <g id="Rectangle-223" serif:id="Rectangle 223" transform="matrix(0.878127,-0.478427,0.478427,0.878127,-11.1538,45.1817)">
                        <path d="M83.734,44.797C83.734,44.624 83.593,44.484 83.42,44.484C83.247,44.484 83.106,44.624 83.106,44.797L83.106,49.348C83.106,49.521 83.247,49.661 83.42,49.661C83.593,49.661 83.734,49.521 83.734,49.348L83.734,44.797Z" style="fill:white;"/>
                    </g>
                </g>
                <circle id="Ellipse-97" serif:id="Ellipse 97" cx="64.686" cy="14.345" r="0.54" style="fill:white;"/>
            </g>
        </g>
    </g>
</svg>
