<?xml version="1.0" encoding="UTF-8" standalone="no"?>
<!DOCTYPE svg PUBLIC "-//W3C//DTD SVG 1.1//EN" "http://www.w3.org/Graphics/SVG/1.1/DTD/svg11.dtd">
<svg width="100%" height="100%" viewBox="0 0 101 60" version="1.1" xmlns="http://www.w3.org/2000/svg" xmlns:xlink="http://www.w3.org/1999/xlink" xml:space="preserve" xmlns:serif="http://www.serif.com/" style="fill-rule:evenodd;clip-rule:evenodd;stroke-linejoin:round;stroke-miterlimit:2;">
    <g transform="matrix(1,0,0,1,-420,-248)">
        <g id="Gamecube" transform="matrix(1,0,0,0.6,420.6,248)">
            <rect x="0" y="0" width="100" height="100" style="fill:none;"/>
            <g id="Group-119" serif:id="Group 119" transform="matrix(1,0,0,1.66667,-25.448,12.5)">
                <path id="Union" d="M64.552,23.719C64.226,23.719 63.962,23.983 63.962,24.309L63.962,27.269L61.004,27.269C60.678,27.269 60.414,27.533 60.414,27.859L60.414,29.519C60.414,29.844 60.678,30.109 61.004,30.109L63.962,30.109L63.962,33.068C63.962,33.394 64.226,33.658 64.552,33.658L66.212,33.658C66.538,33.658 66.802,33.394 66.802,33.068L66.802,30.109L69.763,30.109C70.089,30.109 70.353,29.844 70.353,29.519L70.353,27.859C70.353,27.533 70.089,27.269 69.763,27.269L66.802,27.269L66.802,24.309C66.802,23.983 66.538,23.719 66.212,23.719L64.552,23.719Z" style="fill:white;fill-rule:nonzero;"/>
                <path id="Subtract" d="M87.115,25.114L85.343,24.424L83.57,25.114L81.829,25.879L81.064,27.621L80.373,29.393L81.064,31.165L81.829,32.907L83.57,33.672L85.343,34.363L87.115,33.672L88.857,32.907L89.621,31.165L90.312,29.393L89.621,27.621L88.857,25.879L87.115,25.114ZM85.342,32.154C86.867,32.154 88.103,30.918 88.103,29.393C88.103,27.868 86.867,26.632 85.342,26.632C83.818,26.632 82.582,27.868 82.582,29.393C82.582,30.918 83.818,32.154 85.342,32.154Z" style="fill:white;"/>
                <path id="Subtract_2" d="M58.008,10.637L56.236,9.947L54.463,10.637L52.722,11.402L51.957,13.144L51.266,14.916L51.957,16.689L52.722,18.43L54.463,19.195L56.236,19.886L58.008,19.195L59.75,18.43L60.514,16.689L61.205,14.916L60.514,13.144L59.75,11.402L58.008,10.637ZM56.235,17.677C57.76,17.677 58.996,16.441 58.996,14.916C58.996,13.392 57.76,12.156 56.235,12.156C54.71,12.156 53.474,13.392 53.474,14.916C53.474,16.441 54.71,17.677 56.235,17.677Z" style="fill:white;"/>
                <path id="Ellipse-34--Stroke-" serif:id="Ellipse 34 (Stroke)" d="M56.231,21.337C59.82,21.337 62.73,18.427 62.73,14.838C62.73,11.249 59.82,8.34 56.231,8.34C52.642,8.34 49.733,11.249 49.733,14.838C49.733,18.427 52.642,21.337 56.231,21.337ZM56.231,22.102C60.243,22.102 63.494,18.85 63.494,14.838C63.494,10.827 60.243,7.575 56.231,7.575C52.22,7.575 48.968,10.827 48.968,14.838C48.968,18.85 52.22,22.102 56.231,22.102Z" style="fill:white;"/>
                <path id="Ellipse-35" serif:id="Ellipse 35" d="M90.232,18.895C90.232,20.161 89.205,21.188 87.939,21.188C86.672,21.188 85.645,20.161 85.645,18.895C85.645,17.628 86.672,16.601 87.939,16.601C89.205,16.601 90.232,17.628 90.232,18.895Z" style="fill:white;fill-rule:nonzero;"/>
                <path id="Ellipse-36--Stroke-" serif:id="Ellipse 36 (Stroke)" d="M94.49,16.892C95.544,16.892 96.398,16.037 96.398,14.983C96.398,13.929 95.544,13.075 94.49,13.075C93.436,13.075 92.581,13.929 92.581,14.983C92.581,16.037 93.436,16.892 94.49,16.892ZM94.49,18.424C96.39,18.424 97.93,16.883 97.93,14.983C97.93,13.083 96.39,11.543 94.49,11.543C92.59,11.543 91.049,13.083 91.049,14.983C91.049,16.883 92.59,18.424 94.49,18.424Z" style="fill:white;"/>
                <path id="Union--Stroke-" serif:id="Union (Stroke)" d="M93.958,9.469L94.662,9.388C95.06,9.342 95.363,8.995 95.347,8.588C95.333,8.222 95.068,7.924 94.723,7.856L94.714,7.854L94.68,7.847C94.393,7.782 92.002,7.261 90.351,9.081L90.326,9.109L90.298,9.134C90.244,9.183 90.197,9.24 90.158,9.302L90.149,9.317C90.076,9.44 90.037,9.584 90.043,9.739C90.058,10.139 90.373,10.456 90.762,10.483C91.218,10.463 91.425,10.365 91.793,10.189C92.259,9.966 92.834,9.697 93.959,9.497L93.958,9.469ZM94.751,10.153C93.251,10.341 92.624,10.641 92.123,10.88C91.717,11.074 91.395,11.228 90.758,11.25C89.969,11.22 89.323,10.594 89.279,9.796C89.278,9.787 89.278,9.778 89.278,9.768C89.266,9.465 89.343,9.18 89.485,8.936L89.489,8.928L89.483,8.93L89.507,8.898C89.584,8.775 89.677,8.663 89.784,8.566C90.103,8.215 90.443,7.937 90.792,7.719C92.596,6.589 94.609,7.045 94.85,7.1L94.87,7.105C95.556,7.239 96.085,7.83 96.112,8.559C96.143,9.369 95.543,10.057 94.75,10.149L94.751,10.153Z" style="fill:white;"/>
                <path id="Union--Stroke-_2" serif:id="Union (Stroke)_2" d="M100.308,15.309L100.354,16.017C100.38,16.417 100.711,16.736 101.119,16.741C101.485,16.745 101.796,16.495 101.881,16.154L101.883,16.145L101.892,16.111C101.971,15.827 102.61,13.466 100.875,11.727L100.848,11.7L100.824,11.671C100.778,11.614 100.724,11.564 100.664,11.522L100.649,11.513C100.53,11.434 100.388,11.387 100.233,11.386C99.833,11.381 99.5,11.68 99.454,12.067C99.451,12.523 99.539,12.735 99.697,13.111C99.896,13.588 100.136,14.176 100.279,15.309L100.308,15.309ZM99.585,16.067C99.472,14.56 99.204,13.918 98.99,13.407C98.817,12.992 98.679,12.662 98.688,12.025C98.757,11.239 99.415,10.625 100.214,10.62C100.223,10.62 100.232,10.62 100.242,10.62C100.545,10.623 100.826,10.714 101.063,10.868C101.064,10.869 101.065,10.869 101.066,10.87C101.067,10.871 101.069,10.872 101.07,10.873L101.069,10.867L101.099,10.893C101.219,10.975 101.325,11.074 101.417,11.185C101.752,11.521 102.012,11.875 102.213,12.234C103.252,14.092 102.696,16.08 102.63,16.318L102.624,16.338C102.455,17.016 101.839,17.515 101.11,17.506C100.299,17.497 99.642,16.863 99.59,16.067L99.585,16.067Z" style="fill:white;"/>
                <path id="Ellipse-37" serif:id="Ellipse 37" d="M77.309,15.998C77.309,16.844 76.623,17.53 75.777,17.53C74.931,17.53 74.245,16.844 74.245,15.998C74.245,15.152 74.931,14.466 75.777,14.466C76.623,14.466 77.309,15.152 77.309,15.998Z" style="fill:white;fill-rule:nonzero;"/>
                <path id="Ellipse-38" serif:id="Ellipse 38" d="M57.394,14.849C57.394,15.484 56.879,15.998 56.245,15.998C55.61,15.998 55.096,15.484 55.096,14.849C55.096,14.215 55.61,13.7 56.245,13.7C56.879,13.7 57.394,14.215 57.394,14.849Z" style="fill:white;fill-rule:nonzero;"/>
                <path id="Ellipse-39" serif:id="Ellipse 39" d="M86.501,29.402C86.501,30.037 85.986,30.551 85.352,30.551C84.717,30.551 84.203,30.037 84.203,29.402C84.203,28.768 84.717,28.253 85.352,28.253C85.986,28.253 86.501,28.768 86.501,29.402Z" style="fill:white;fill-rule:nonzero;"/>
                <path id="Union_2" d="M52.914,0.355C50.658,1.193 49.122,3.395 49.625,5.555C44.518,9.145 43.672,16.451 46.931,21.337C46.407,23.989 46.358,29.554 46.965,34.479C47.28,37.034 47.784,39.523 48.54,41.404C48.917,42.342 49.386,43.204 49.984,43.85C50.599,44.512 51.408,45 52.395,45C53.158,45 53.845,44.82 54.434,44.442C55.018,44.067 55.436,43.544 55.741,42.967C56.328,41.857 56.573,40.393 56.743,38.939C56.815,38.317 56.876,37.683 56.937,37.041C57.126,35.069 57.305,33.441 57.847,31.739L58.73,33.356C60.975,37.473 66.277,38.762 70.162,36.136C74.109,33.467 74.839,27.95 71.721,24.347L70.949,23.456C72.498,23.144 74.066,22.987 75.638,22.987C77.101,22.987 78.559,23.123 80.001,23.392L79.175,24.347C76.057,27.95 76.787,33.467 80.734,36.136C84.619,38.762 89.921,37.473 92.166,33.356L93.223,31.419C93.716,33.226 93.901,35.161 94.082,37.041C94.143,37.682 94.204,38.318 94.276,38.939C94.445,40.393 94.69,41.857 95.277,42.967C95.583,43.544 96.001,44.067 96.584,44.442C97.174,44.82 97.861,45 98.623,45C99.611,45 100.42,44.512 101.034,43.85C101.633,43.204 102.102,42.342 102.479,41.404C103.235,39.523 103.738,37.034 104.054,34.479C104.672,29.464 104.609,23.785 104.059,21.195C107.091,16.491 106.388,9.639 101.815,5.964C102.63,3.679 101.045,1.246 98.646,0.355C96.273,-0.526 93.52,0.255 92.614,2.462C87.123,1.002 81.337,0.165 75.638,0.165C70.028,0.165 64.332,0.976 58.919,2.394C57.984,0.239 55.263,-0.517 52.914,0.355ZM53.448,1.791C51.956,2.345 51.126,3.535 51.073,4.633C53.161,3.383 55.44,3.001 57.618,3.303C57.601,3.24 57.581,3.178 57.558,3.116C57.089,1.853 55.337,1.089 53.448,1.791ZM93.963,3.231C95.995,3.086 98.087,3.542 100.008,4.746L100.471,5.036C100.631,3.841 99.79,2.414 98.113,1.791C96.223,1.089 94.471,1.853 94.002,3.116C93.988,3.154 93.975,3.192 93.963,3.231ZM75.638,2.149C80.652,2.149 85.754,2.82 90.658,4.011C86.958,5.519 83.98,9.018 83.449,13.418L82.972,17.37C82.8,18.797 82.321,20.162 81.575,21.375C79.622,20.92 77.635,20.689 75.638,20.689C73.528,20.689 71.43,20.947 69.371,21.455C68.597,20.222 68.1,18.828 67.924,17.37L67.447,13.418C66.923,9.074 64.013,5.609 60.379,4.069C65.356,2.842 70.543,2.149 75.638,2.149ZM48.948,23.59C48.719,26.268 48.764,30.403 49.238,34.247C49.544,36.727 50.017,38.981 50.661,40.582C50.984,41.386 51.321,41.951 51.642,42.297C51.947,42.627 52.173,42.695 52.343,42.695C52.737,42.695 52.991,42.606 53.172,42.49C53.359,42.37 53.542,42.173 53.714,41.847C54.081,41.152 54.297,40.082 54.467,38.619C54.528,38.098 54.581,37.534 54.637,36.94C54.868,34.485 55.148,31.517 56.201,28.935C55.271,27.677 54.076,26.63 52.694,25.871L50.637,24.742C50.025,24.406 49.461,24.019 48.948,23.59ZM96.382,36.94C96.147,34.452 95.863,31.436 94.774,28.83C95.692,27.619 96.859,26.609 98.202,25.871L100.259,24.742C100.917,24.38 101.518,23.961 102.062,23.493C102.3,26.168 102.26,30.356 101.781,34.247C101.475,36.727 101.002,38.981 100.358,40.582C100.035,41.386 99.698,41.951 99.377,42.297C99.071,42.627 98.846,42.695 98.676,42.695C98.282,42.695 98.028,42.606 97.847,42.49C97.66,42.37 97.477,42.173 97.305,41.847C96.937,41.152 96.721,40.082 96.551,38.619C96.491,38.098 96.438,37.534 96.382,36.94ZM99.986,6.54L99.194,6.044C93.549,2.506 85.812,6.625 84.97,13.602L84.493,17.554C84.219,19.818 83.276,21.949 81.784,23.674L80.334,25.349C77.816,28.258 78.405,32.712 81.592,34.867C84.728,36.987 89.009,35.946 90.821,32.623L92.547,29.46C93.681,27.38 95.388,25.669 97.464,24.529L99.522,23.399C105.762,19.973 106.029,10.327 99.986,6.54ZM50.91,6.54L51.702,6.044C57.347,2.506 65.084,6.625 65.926,13.602L66.403,17.554C66.677,19.818 67.62,21.949 69.113,23.674L70.563,25.349C73.08,28.258 72.491,32.712 69.304,34.867C66.168,36.987 61.887,35.946 60.075,32.623L58.349,29.46C57.215,27.38 55.508,25.669 53.432,24.529L51.374,23.399C45.134,19.973 44.867,10.327 50.91,6.54Z" style="fill:white;"/>
            </g>
        </g>
    </g>
</svg>
