<?xml version="1.0" encoding="UTF-8" standalone="no"?>
<!DOCTYPE svg PUBLIC "-//W3C//DTD SVG 1.1//EN" "http://www.w3.org/Graphics/SVG/1.1/DTD/svg11.dtd">
<svg width="100%" height="100%" viewBox="0 0 101 60" version="1.1" xmlns="http://www.w3.org/2000/svg" xmlns:xlink="http://www.w3.org/1999/xlink" xml:space="preserve" xmlns:serif="http://www.serif.com/" style="fill-rule:evenodd;clip-rule:evenodd;stroke-linejoin:round;stroke-miterlimit:2;">
    <g transform="matrix(1,0,0,1,-140,-620)">
        <g id="_3DO" serif:id="3DO" transform="matrix(1,0,0,0.6,140.2,620)">
            <rect x="0" y="0" width="100" height="100" style="fill:none;"/>
            <g id="Vector" transform="matrix(1,0,0,1.66667,-27.0611,19.9999)">
                <path d="M58.143,27.012C62.809,27.012 66.591,23.23 66.591,18.564C66.591,13.899 62.809,10.117 58.143,10.117C53.478,10.117 49.696,13.899 49.696,18.564C49.696,23.23 53.478,27.012 58.143,27.012ZM58.143,28.012C63.361,28.012 67.591,23.782 67.591,18.564C67.591,13.346 63.361,9.117 58.143,9.117C52.926,9.117 48.696,13.346 48.696,18.564C48.696,23.782 52.926,28.012 58.143,28.012Z" style="fill:white;"/>
                <path d="M58.143,24.102C61.202,24.102 63.682,21.623 63.682,18.564C63.682,15.505 61.202,13.026 58.143,13.026C55.085,13.026 52.605,15.505 52.605,18.564C52.605,21.623 55.085,24.102 58.143,24.102ZM58.143,25.102C61.754,25.102 64.682,22.175 64.682,18.564C64.682,14.953 61.754,12.026 58.143,12.026C54.532,12.026 51.605,14.953 51.605,18.564C51.605,22.175 54.532,25.102 58.143,25.102Z" style="fill:white;"/>
                <path d="M56.919,13.732C56.919,13.732 57.274,13.539 58.143,13.539C59.013,13.539 59.368,13.732 59.368,13.732L59.368,15.604C59.368,16.563 60.145,17.34 61.104,17.34L62.975,17.34C62.975,17.34 63.169,17.678 63.169,18.564C63.169,19.434 62.975,19.788 62.975,19.788L61.104,19.788C60.145,19.788 59.368,20.566 59.368,21.525L59.368,23.396C59.368,23.396 59.029,23.589 58.143,23.589C57.274,23.589 56.919,23.396 56.919,23.396L56.919,21.525C56.919,20.566 56.142,19.788 55.183,19.788L53.311,19.788C53.311,19.788 53.118,19.434 53.118,18.564C53.118,17.694 53.311,17.34 53.311,17.34L55.183,17.34C56.142,17.34 56.919,16.563 56.919,15.604L56.919,13.732ZM58.143,19.558C58.692,19.558 59.137,19.113 59.137,18.564C59.137,18.016 58.692,17.571 58.143,17.571C57.595,17.571 57.15,18.016 57.15,18.564C57.15,19.113 57.595,19.558 58.143,19.558Z" style="fill:white;"/>
                <path d="M57.177,13.519C57.384,13.468 57.7,13.419 58.143,13.419C58.587,13.419 58.903,13.468 59.11,13.519C59.214,13.544 59.29,13.57 59.342,13.59C59.368,13.6 59.387,13.609 59.401,13.615L59.425,13.627C59.425,13.627 59.425,13.627 59.368,13.732L59.425,13.627L59.487,13.661L59.487,15.604C59.487,16.496 60.211,17.22 61.104,17.22L63.045,17.22L63.08,17.281L62.975,17.34C63.08,17.281 63.08,17.28 63.08,17.281L63.084,17.288C63.086,17.292 63.089,17.298 63.092,17.304C63.098,17.318 63.107,17.337 63.117,17.362C63.137,17.413 63.163,17.488 63.188,17.591C63.239,17.797 63.289,18.112 63.289,18.564C63.289,19.008 63.239,19.324 63.188,19.531C63.163,19.635 63.137,19.711 63.117,19.763C63.107,19.788 63.099,19.808 63.093,19.822C63.089,19.829 63.087,19.834 63.085,19.838L63.081,19.845C63.081,19.846 63.081,19.846 62.975,19.788L63.081,19.845L63.047,19.908L61.104,19.908C60.211,19.908 59.487,20.632 59.487,21.525L59.487,23.466L59.427,23.5L59.368,23.396C59.427,23.5 59.427,23.5 59.427,23.5L59.419,23.504C59.415,23.507 59.41,23.509 59.403,23.513C59.39,23.519 59.371,23.528 59.345,23.538C59.294,23.558 59.219,23.584 59.116,23.609C58.911,23.66 58.595,23.709 58.143,23.709C57.7,23.709 57.384,23.66 57.177,23.609C57.073,23.584 56.997,23.558 56.945,23.538C56.919,23.528 56.9,23.52 56.886,23.513C56.879,23.51 56.873,23.507 56.87,23.505L56.862,23.502C56.862,23.502 56.862,23.501 56.919,23.396L56.862,23.502L56.799,23.467L56.799,21.525C56.799,20.632 56.076,19.908 55.183,19.908L53.24,19.908L53.206,19.846L53.311,19.788C53.206,19.846 53.206,19.846 53.206,19.846L53.202,19.838C53.2,19.834 53.198,19.829 53.194,19.822C53.188,19.808 53.179,19.788 53.169,19.763C53.149,19.711 53.124,19.635 53.098,19.531C53.048,19.324 52.998,19.008 52.998,18.564C52.998,18.12 53.048,17.805 53.098,17.597C53.124,17.494 53.149,17.417 53.169,17.366C53.179,17.34 53.188,17.32 53.194,17.306C53.198,17.3 53.2,17.294 53.202,17.29L53.206,17.283C53.206,17.283 53.206,17.283 53.311,17.34L53.206,17.283L53.24,17.22L55.183,17.22C56.076,17.22 56.799,16.496 56.799,15.604L56.799,13.661L56.862,13.627L56.919,13.732C56.862,13.627 56.862,13.627 56.862,13.627L56.87,13.623C56.873,13.621 56.879,13.618 56.886,13.615C56.9,13.609 56.919,13.6 56.945,13.59C56.997,13.57 57.073,13.544 57.177,13.519ZM57.039,13.811C57.082,13.795 57.146,13.774 57.234,13.752C57.421,13.706 57.718,13.659 58.143,13.659C58.569,13.659 58.866,13.706 59.053,13.752C59.141,13.774 59.205,13.795 59.248,13.811L59.248,15.604C59.248,16.629 60.079,17.46 61.104,17.46L62.898,17.46C62.913,17.501 62.934,17.563 62.956,17.649C63.001,17.834 63.049,18.13 63.049,18.564C63.049,18.99 63.001,19.286 62.956,19.474C62.934,19.562 62.913,19.626 62.897,19.668L61.104,19.668C60.079,19.668 59.248,20.499 59.248,21.525L59.248,23.318C59.207,23.334 59.145,23.355 59.059,23.376C58.874,23.422 58.578,23.469 58.143,23.469C57.718,23.469 57.421,23.422 57.234,23.376C57.146,23.355 57.082,23.333 57.039,23.317L57.039,21.525C57.039,20.499 56.208,19.668 55.183,19.668L53.39,19.668C53.374,19.626 53.353,19.562 53.331,19.474C53.285,19.286 53.238,18.99 53.238,18.564C53.238,18.138 53.285,17.842 53.331,17.654C53.353,17.566 53.374,17.502 53.39,17.46L55.183,17.46C56.208,17.46 57.039,16.629 57.039,15.604L57.039,13.811ZM53.417,17.397C53.417,17.397 53.417,17.397 53.417,17.397ZM58.143,17.691C57.661,17.691 57.27,18.082 57.27,18.564C57.27,19.047 57.661,19.438 58.143,19.438C58.626,19.438 59.017,19.047 59.017,18.564C59.017,18.082 58.626,17.691 58.143,17.691ZM57.03,18.564C57.03,17.949 57.529,17.451 58.143,17.451C58.758,17.451 59.257,17.949 59.257,18.564C59.257,19.179 58.758,19.677 58.143,19.677C57.529,19.677 57.03,19.179 57.03,18.564ZM62.87,19.731C62.87,19.732 62.87,19.732 62.87,19.731Z" style="fill:white;"/>
                <path d="M55.944,5.178C47.833,5.268 41.285,11.871 41.285,20.004C41.285,28.192 47.923,34.83 56.112,34.83C57.848,34.83 59.515,34.532 61.063,33.983C64.878,32.979 70.635,31.836 77.061,31.836C82.374,31.836 87.725,32.573 92.906,33.928C94.497,34.512 96.217,34.83 98.011,34.83C106.199,34.83 112.837,28.192 112.837,20.004C112.837,11.871 106.29,5.268 98.179,5.178C98.129,5.163 98.073,5.146 98.011,5.128C97.722,5.041 97.299,4.919 96.756,4.773C95.67,4.48 94.104,4.091 92.171,3.702C88.309,2.926 82.967,2.148 77.061,2.148C71.155,2.148 65.814,2.926 61.952,3.702C60.019,4.091 58.453,4.48 57.367,4.773C56.824,4.919 56.401,5.041 56.112,5.128C56.05,5.146 55.994,5.163 55.944,5.178ZM60.901,5.968C66.739,7.96 70.938,13.491 70.938,20.004C70.938,24.26 69.144,28.098 66.272,30.802C69.439,30.25 73.125,29.836 77.061,29.836C80.659,29.836 84.268,30.163 87.827,30.78C84.968,28.077 83.185,24.249 83.185,20.004C83.185,13.491 87.383,7.96 93.221,5.968C92.768,5.868 92.285,5.765 91.777,5.663C88.004,4.905 82.799,4.148 77.061,4.148C71.324,4.148 66.119,4.905 62.346,5.663C61.837,5.765 61.355,5.868 60.901,5.968ZM94.509,32.346L94.523,32.294C94.188,32.2 93.851,32.108 93.513,32.02C88.648,30.198 85.185,25.505 85.185,20.004C85.185,12.92 90.927,7.177 98.011,7.177C105.095,7.177 110.837,12.92 110.837,20.004C110.837,27.088 105.095,32.83 98.011,32.83C96.797,32.83 95.622,32.661 94.509,32.346ZM60.464,32.073C65.406,30.29 68.938,25.56 68.938,20.004C68.938,12.92 63.196,7.177 56.112,7.177C49.028,7.177 43.285,12.92 43.285,20.004C43.285,27.088 49.028,32.83 56.112,32.83C57.356,32.83 58.559,32.653 59.697,32.322L59.686,32.284C59.936,32.215 60.195,32.144 60.464,32.073Z" style="fill:white;"/>
                <path d="M60.787,2.741C61.265,2.612 61.772,2.648 62.228,2.843L63.944,3.579L63.156,5.417L61.44,4.681C61.398,4.664 61.352,4.66 61.309,4.672L52.609,7.025C52.562,7.038 52.522,7.067 52.495,7.107L52.025,7.812L50.361,6.702L50.831,5.998C51.126,5.554 51.573,5.233 52.087,5.094L60.787,2.741Z" style="fill:white;"/>
                <path d="M93.111,2.741C92.633,2.612 92.125,2.648 91.67,2.843L89.954,3.579L90.742,5.417L92.458,4.681C92.499,4.664 92.545,4.66 92.589,4.672L101.289,7.025C101.335,7.038 101.376,7.067 101.403,7.107L101.873,7.812L103.537,6.702L103.067,5.998C102.771,5.554 102.325,5.233 101.811,5.094L93.111,2.741Z" style="fill:white;"/>
                <path d="M75.788,1.217C76.618,1.163 78.616,1.1 82.058,1.371C85.581,1.648 87.57,1.927 88.327,2.045C88.931,2.14 89.401,2.582 89.557,3.146L89.767,3.9L87.84,4.435L87.712,3.975C86.83,3.846 84.962,3.606 81.902,3.365C79.026,3.139 77.218,3.154 76.304,3.193L76.291,3.264L75.983,3.209C75.96,3.21 75.938,3.212 75.918,3.213C75.936,3.212 75.954,3.21 75.971,3.207L74.322,2.912L74.402,2.465C74.52,1.803 75.068,1.264 75.788,1.217Z" style="fill:white;"/>
                <path d="M97.351,20.004C99.074,20.004 100.47,18.607 100.47,16.885C100.47,15.162 99.074,13.765 97.351,13.765C95.629,13.765 94.232,15.162 94.232,16.885C94.232,18.607 95.629,20.004 97.351,20.004ZM97.351,17.829C97.873,17.829 98.296,17.406 98.296,16.885C98.296,16.363 97.873,15.94 97.351,15.94C96.83,15.94 96.407,16.363 96.407,16.885C96.407,17.406 96.83,17.829 97.351,17.829Z" style="fill:white;"/>
                <path d="M107.533,15.805C107.533,17.528 106.137,18.924 104.414,18.924C102.691,18.924 101.295,17.528 101.295,15.805C101.295,14.082 102.691,12.686 104.414,12.686C106.137,12.686 107.533,14.082 107.533,15.805Z" style="fill:white;fill-rule:nonzero;"/>
                <path d="M94.232,20.544C94.232,22.266 92.836,23.663 91.113,23.663C89.39,23.663 87.994,22.266 87.994,20.544C87.994,18.821 89.39,17.424 91.113,17.424C92.836,17.424 94.232,18.821 94.232,20.544Z" style="fill:white;fill-rule:nonzero;"/>
                <path d="M75.097,25.102C75.097,25.898 74.452,26.542 73.657,26.542C72.862,26.542 72.217,25.898 72.217,25.102C72.217,24.307 72.862,23.663 73.657,23.663C74.452,23.663 75.097,24.307 75.097,25.102Z" style="fill:white;fill-rule:nonzero;"/>
                <path d="M81.905,25.102C81.905,25.898 81.261,26.542 80.466,26.542C79.67,26.542 79.026,25.898 79.026,25.102C79.026,24.307 79.67,23.663 80.466,23.663C81.261,23.663 81.905,24.307 81.905,25.102Z" style="fill:white;fill-rule:nonzero;"/>
            </g>
        </g>
    </g>
</svg>
