<?xml version="1.0" encoding="UTF-8" standalone="no"?>
<!DOCTYPE svg PUBLIC "-//W3C//DTD SVG 1.1//EN" "http://www.w3.org/Graphics/SVG/1.1/DTD/svg11.dtd">
<svg width="100%" height="100%" viewBox="0 0 100 60" version="1.1" xmlns="http://www.w3.org/2000/svg" xmlns:xlink="http://www.w3.org/1999/xlink" xml:space="preserve" xmlns:serif="http://www.serif.com/" style="fill-rule:evenodd;clip-rule:evenodd;">
    <g transform="matrix(1,0,0,1,0,-248)">
        <g id="Playstation" transform="matrix(1,0,0,0.6,0,248)">
            <rect x="0" y="0" width="100" height="100" style="fill:none;"/>
            <g id="Group-185" serif:id="Group 185" transform="matrix(1,0,0,1.66667,-25.182,13.3332)">
                <g id="Group-181" serif:id="Group 181">
                    <path id="Rectangle-180" serif:id="Rectangle 180" d="M98.045,1.984C97.924,1.652 97.656,1.395 97.31,1.319C96.693,1.185 95.573,1 94.073,1C92.572,1 91.452,1.185 90.835,1.319C90.489,1.395 90.221,1.652 90.1,1.984L89.482,3.678L98.663,3.678L98.045,1.984Z" style="fill:white;fill-rule:nonzero;"/>
                    <path id="Rectangle-181" serif:id="Rectangle 181" d="M87.578,9.178L87.975,6.948C88.237,5.477 89.038,4.196 90.284,3.801C91.223,3.503 92.485,3.239 94.012,3.239C95.539,3.239 96.801,3.503 97.74,3.801C98.986,4.196 99.787,5.477 100.049,6.948L100.446,9.178" style="fill:none;fill-rule:nonzero;stroke:white;stroke-width:1.98px;"/>
                    <path id="Rectangle-182--Stroke-" serif:id="Rectangle 182 (Stroke)" d="M98.016,42.504C103.546,44.572 109.238,39.872 108.252,34.052L105.127,15.595L104.257,15.956L103.59,18.376L106.3,34.382C107.031,38.698 102.81,42.184 98.71,40.649C97.57,40.223 96.597,39.441 95.935,38.42L87.318,25.129L85.598,23.7L84.364,24.212L94.274,39.497C95.167,40.874 96.479,41.928 98.016,42.504Z" style="fill:white;fill-rule:nonzero;"/>
                    <path id="Intersect" d="M95.992,29.009C89.765,30.191 83.759,26.101 82.577,19.874C81.396,13.647 85.486,7.641 91.713,6.459C97.94,5.278 103.946,9.368 105.127,15.595C106.309,21.822 102.219,27.828 95.992,29.009ZM84.522,19.505C85.5,24.658 90.47,28.042 95.623,27.065C100.776,26.087 104.16,21.117 103.182,15.964C102.205,10.811 97.235,7.427 92.082,8.404C86.929,9.382 83.544,14.352 84.522,19.505Z" style="fill:white;"/>
                </g>
                <path id="Rectangle-187" serif:id="Rectangle 187" d="M72.711,20.807C72.711,20.613 72.554,20.456 72.36,20.456L70.079,20.456C69.885,20.456 69.728,20.613 69.728,20.807L69.728,22.036C69.728,22.229 69.885,22.387 70.079,22.387L72.36,22.387C72.554,22.387 72.711,22.229 72.711,22.036L72.711,20.807Z" style="fill:white;"/>
                <path id="Polygon-29" serif:id="Polygon 29" d="M80.452,21.083C80.794,21.179 80.794,21.664 80.452,21.759L78.027,22.437C77.803,22.499 77.582,22.331 77.582,22.099L77.582,20.744C77.582,20.512 77.803,20.344 78.027,20.406L80.452,21.083Z" style="fill:white;fill-rule:nonzero;"/>
                <g id="Ellipse-84" serif:id="Ellipse 84" transform="matrix(-3.82857e-16,-1,1,-3.82857e-16,70.9849,105.579)">
                    <circle cx="88.282" cy="17.297" r="2.457" style="fill:white;"/>
                </g>
                <g id="Ellipse-85" serif:id="Ellipse 85" transform="matrix(-3.82857e-16,-1,1,-3.82857e-16,82.0406,116.635)">
                    <circle cx="99.338" cy="17.297" r="2.457" style="fill:white;"/>
                </g>
                <circle id="Ellipse-86" serif:id="Ellipse 86" cx="93.81" cy="12.296" r="2.457" style="fill:white;"/>
                <circle id="Ellipse-87" serif:id="Ellipse 87" cx="93.81" cy="22.123" r="2.457" style="fill:white;"/>
                <g id="Group-182" serif:id="Group 182">
                    <path id="Rectangle-180_2" serif:id="Rectangle 180_2" d="M52.319,1.984C52.44,1.652 52.708,1.395 53.054,1.319C53.671,1.185 54.792,1 56.292,1C57.792,1 58.912,1.185 59.529,1.319C59.875,1.395 60.143,1.652 60.264,1.984L60.882,3.678L51.701,3.678L52.319,1.984Z" style="fill:white;fill-rule:nonzero;"/>
                    <path id="Rectangle-181_2" serif:id="Rectangle 181_2" d="M62.786,9.178L62.389,6.948C62.128,5.477 61.327,4.196 60.081,3.801C59.141,3.503 57.879,3.239 56.352,3.239C54.826,3.239 53.563,3.503 52.624,3.801C51.378,4.196 50.577,5.477 50.315,6.948L49.919,9.178" style="fill:none;fill-rule:nonzero;stroke:white;stroke-width:1.98px;"/>
                    <path id="Rectangle-182--Stroke-_2" serif:id="Rectangle 182 (Stroke)_2" d="M52.348,42.504C46.819,44.572 41.126,39.872 42.112,34.052L45.237,15.595L46.107,15.956L46.774,18.376L44.064,34.382C43.333,38.698 47.554,42.184 51.654,40.649C52.794,40.223 53.767,39.441 54.429,38.42L63.046,25.129L64.766,23.7L66,24.212L56.09,39.497C55.197,40.874 53.885,41.928 52.348,42.504Z" style="fill:white;fill-rule:nonzero;"/>
                    <path id="Intersect_2" d="M54.372,29.009C60.599,30.191 66.605,26.101 67.787,19.874C68.969,13.647 64.879,7.641 58.652,6.459C52.425,5.278 46.419,9.368 45.237,15.595C44.055,21.822 48.145,27.828 54.372,29.009ZM65.842,19.505C64.864,24.658 59.894,28.042 54.742,27.065C49.589,26.087 46.204,21.117 47.182,15.964C48.16,10.811 53.13,7.427 58.283,8.404C63.435,9.382 66.82,14.352 65.842,19.505Z" style="fill:white;"/>
                </g>
                <path id="Rectangle-189" serif:id="Rectangle 189" d="M59.173,15.863C59.271,15.77 59.401,15.718 59.536,15.718L61.432,15.718C61.626,15.718 61.783,15.875 61.783,16.069L61.783,18.701C61.783,18.895 61.626,19.052 61.432,19.052L59.536,19.052C59.401,19.052 59.271,19 59.173,18.907L58.106,17.894C57.815,17.617 57.815,17.153 58.106,16.876L59.173,15.863Z" style="fill:white;fill-rule:nonzero;"/>
                <path id="Rectangle-190" serif:id="Rectangle 190" d="M53.862,15.863C53.765,15.77 53.635,15.718 53.5,15.718L51.604,15.718C51.41,15.718 51.253,15.875 51.253,16.069L51.253,18.701C51.253,18.895 51.41,19.052 51.604,19.052L53.5,19.052C53.635,19.052 53.765,19 53.862,18.907L54.929,17.894C55.22,17.617 55.22,17.153 54.929,16.876L53.862,15.863Z" style="fill:white;fill-rule:nonzero;"/>
                <path id="Rectangle-191" serif:id="Rectangle 191" d="M57.952,19.953C58.045,20.051 58.097,20.18 58.097,20.315L58.097,22.211C58.097,22.405 57.94,22.562 57.746,22.562L55.114,22.562C54.92,22.562 54.763,22.405 54.763,22.211L54.763,20.315C54.763,20.18 54.815,20.051 54.908,19.953L55.921,18.886C56.198,18.595 56.662,18.595 56.939,18.886L57.952,19.953Z" style="fill:white;fill-rule:nonzero;"/>
                <path id="Rectangle-192" serif:id="Rectangle 192" d="M57.952,14.642C58.045,14.544 58.097,14.414 58.097,14.279L58.097,12.384C58.097,12.19 57.94,12.033 57.746,12.033L55.114,12.033C54.92,12.033 54.763,12.19 54.763,12.384L54.763,14.279C54.763,14.414 54.815,14.544 54.908,14.642L55.921,15.709C56.198,16 56.662,16 56.939,15.709L57.952,14.642Z" style="fill:white;fill-rule:nonzero;"/>
                <path id="Line-43" serif:id="Line 43" d="M62.786,9.178L87.579,9.178" style="fill:none;fill-rule:nonzero;stroke:white;stroke-width:1.98px;"/>
                <path id="Line-44" serif:id="Line 44" d="M63.33,26.005L87.011,26.005" style="fill:none;fill-rule:nonzero;stroke:white;stroke-width:1.98px;"/>
            </g>
        </g>
    </g>
</svg>
