<?xml version="1.0" encoding="UTF-8" standalone="no"?>
<!DOCTYPE svg PUBLIC "-//W3C//DTD SVG 1.1//EN" "http://www.w3.org/Graphics/SVG/1.1/DTD/svg11.dtd">
<svg width="100%" height="100%" viewBox="0 0 101 60" version="1.1" xmlns="http://www.w3.org/2000/svg" xmlns:xlink="http://www.w3.org/1999/xlink" xml:space="preserve" xmlns:serif="http://www.serif.com/" style="fill-rule:evenodd;clip-rule:evenodd;stroke-linejoin:round;stroke-miterlimit:2;">
    <g transform="matrix(1,0,0,1,-280,-372)">
        <g id="PSP" transform="matrix(1,0,0,0.6,280.4,372)">
            <rect x="0" y="0" width="100" height="100" style="fill:none;"/>
            <g id="Union" transform="matrix(1,0,0,1.66667,-27.5,15.4167)">
                <path d="M52.5,5.5C52.5,4.948 52.948,4.5 53.5,4.5L102.5,4.5C103.052,4.5 103.5,4.948 103.5,5.5L103.5,31.5C103.5,32.052 103.052,32.5 102.5,32.5L53.5,32.5C52.948,32.5 52.5,32.052 52.5,31.5L52.5,5.5ZM53.5,5.5L102.5,5.5L102.5,31.5L53.5,31.5L53.5,5.5Z" style="fill:white;"/>
                <path d="M118.102,20.245C117.445,22.029 116.029,23.445 114.245,24.102C113.837,24.93 112.985,25.5 112,25.5C111.015,25.5 110.163,24.93 109.755,24.102C107.971,23.445 106.555,22.029 105.898,20.245C105.07,19.837 104.5,18.985 104.5,18C104.5,17.015 105.07,16.163 105.898,15.755C106.555,13.971 107.971,12.555 109.755,11.898C110.163,11.07 111.015,10.5 112,10.5C112.985,10.5 113.837,11.07 114.245,11.898C116.029,12.555 117.445,13.971 118.102,15.755C118.93,16.163 119.5,17.015 119.5,18C119.5,18.985 118.93,19.837 118.102,20.245ZM116.901,15.502C115.566,15.554 114.5,16.652 114.5,18C114.5,19.348 115.566,20.446 116.901,20.498C116.374,21.53 115.53,22.374 114.498,22.901C114.446,21.566 113.348,20.5 112,20.5C110.652,20.5 109.554,21.566 109.502,22.901C108.47,22.374 107.626,21.53 107.099,20.498C108.434,20.446 109.5,19.348 109.5,18C109.5,16.652 108.434,15.554 107.099,15.502C107.626,14.47 108.47,13.626 109.502,13.099C109.554,14.434 110.652,15.5 112,15.5C113.348,15.5 114.446,14.434 114.498,13.099C115.53,13.626 116.374,14.47 116.901,15.502Z" style="fill:white;"/>
                <path d="M38.5,18.5C38.5,19.052 38.948,19.5 39.5,19.5L41.5,19.5L43.5,18L41.5,16.5L39.5,16.5C38.948,16.5 38.5,16.948 38.5,17.5L38.5,18.5Z" style="fill:white;fill-rule:nonzero;"/>
                <path d="M48.5,19.5C49.052,19.5 49.5,19.052 49.5,18.5L49.5,17.5C49.5,16.948 49.052,16.5 48.5,16.5L46.5,16.5L44.5,18L46.5,19.5L48.5,19.5Z" style="fill:white;fill-rule:nonzero;"/>
                <path d="M44.5,23.5C45.052,23.5 45.5,23.052 45.5,22.5L45.5,20.5L44,18.5L42.5,20.5L42.5,22.5C42.5,23.052 42.948,23.5 43.5,23.5L44.5,23.5Z" style="fill:white;fill-rule:nonzero;"/>
                <path d="M45.5,13.5C45.5,12.948 45.052,12.5 44.5,12.5L43.5,12.5C42.948,12.5 42.5,12.948 42.5,13.5L42.5,15.5L44,17.5L45.5,15.5L45.5,13.5Z" style="fill:white;fill-rule:nonzero;"/>
                <path d="M44,25.5C48.142,25.5 51.5,22.142 51.5,18C51.5,13.858 48.142,10.5 44,10.5C39.858,10.5 36.5,13.858 36.5,18C36.5,22.142 39.858,25.5 44,25.5ZM50.5,18C50.5,21.59 47.59,24.5 44,24.5C40.41,24.5 37.5,21.59 37.5,18C37.5,14.41 40.41,11.5 44,11.5C47.59,11.5 50.5,14.41 50.5,18Z" style="fill:white;"/>
                <path d="M46.5,29.5C46.5,31.157 45.157,32.5 43.5,32.5C41.843,32.5 40.5,31.157 40.5,29.5C40.5,27.843 41.843,26.5 43.5,26.5C45.157,26.5 46.5,27.843 46.5,29.5ZM43.5,31.5C44.605,31.5 45.5,30.605 45.5,29.5C45.5,28.395 44.605,27.5 43.5,27.5C42.396,27.5 41.5,28.395 41.5,29.5C41.5,30.605 42.396,31.5 43.5,31.5Z" style="fill:white;"/>
                <path d="M50.5,35C50.5,34.172 51.171,33.5 52,33.5L55,33.5C55.829,33.5 56.5,34.172 56.5,35C56.5,35.828 55.829,36.5 55,36.5L52,36.5C51.171,36.5 50.5,35.828 50.5,35ZM51.5,35C51.5,34.724 51.724,34.5 52,34.5L55,34.5C55.276,34.5 55.5,34.724 55.5,35C55.5,35.276 55.276,35.5 55,35.5L52,35.5C51.724,35.5 51.5,35.276 51.5,35Z" style="fill:white;"/>
                <path d="M61,33.5C60.171,33.5 59.5,34.172 59.5,35C59.5,35.828 60.171,36.5 61,36.5L62,36.5C62.829,36.5 63.5,35.828 63.5,35C63.5,34.172 62.829,33.5 62,33.5L61,33.5ZM62,34.5L61,34.5C60.724,34.5 60.5,34.724 60.5,35C60.5,35.276 60.724,35.5 61,35.5L62,35.5C62.276,35.5 62.5,35.276 62.5,35C62.5,34.724 62.276,34.5 62,34.5Z" style="fill:white;"/>
                <path d="M65.5,35C65.5,34.172 66.171,33.5 67,33.5L68,33.5C68.829,33.5 69.5,34.172 69.5,35C69.5,35.828 68.829,36.5 68,36.5L67,36.5C66.171,36.5 65.5,35.828 65.5,35ZM67,34.5L68,34.5C68.276,34.5 68.5,34.724 68.5,35C68.5,35.276 68.276,35.5 68,35.5L67,35.5C66.724,35.5 66.5,35.276 66.5,35C66.5,34.724 66.724,34.5 67,34.5Z" style="fill:white;"/>
                <path d="M83,33.5C82.171,33.5 81.5,34.172 81.5,35C81.5,35.828 82.171,36.5 83,36.5L84,36.5C84.829,36.5 85.5,35.828 85.5,35C85.5,34.172 84.829,33.5 84,33.5L83,33.5ZM84,34.5L83,34.5C82.724,34.5 82.5,34.724 82.5,35C82.5,35.276 82.724,35.5 83,35.5L84,35.5C84.276,35.5 84.5,35.276 84.5,35C84.5,34.724 84.276,34.5 84,34.5Z" style="fill:white;"/>
                <path d="M86.5,35C86.5,34.172 87.171,33.5 88,33.5L89,33.5C89.829,33.5 90.5,34.172 90.5,35C90.5,35.828 89.829,36.5 89,36.5L88,36.5C87.171,36.5 86.5,35.828 86.5,35ZM88,34.5L89,34.5C89.276,34.5 89.5,34.724 89.5,35C89.5,35.276 89.276,35.5 89,35.5L88,35.5C87.724,35.5 87.5,35.276 87.5,35C87.5,34.724 87.724,34.5 88,34.5Z" style="fill:white;"/>
                <path d="M100,33.5C99.171,33.5 98.5,34.172 98.5,35C98.5,35.828 99.171,36.5 100,36.5L103,36.5C103.829,36.5 104.5,35.828 104.5,35C104.5,34.172 103.829,33.5 103,33.5L100,33.5ZM103,34.5L100,34.5C99.724,34.5 99.5,34.724 99.5,35C99.5,35.276 99.724,35.5 100,35.5L103,35.5C103.276,35.5 103.5,35.276 103.5,35C103.5,34.724 103.276,34.5 103,34.5Z" style="fill:white;"/>
                <path d="M91.5,35C91.5,34.172 92.171,33.5 93,33.5L96,33.5C96.829,33.5 97.5,34.172 97.5,35C97.5,35.828 96.829,36.5 96,36.5L93,36.5C92.171,36.5 91.5,35.828 91.5,35ZM93,34.5L96,34.5C96.276,34.5 96.5,34.724 96.5,35C96.5,35.276 96.276,35.5 96,35.5L93,35.5C92.724,35.5 92.5,35.276 92.5,35C92.5,34.724 92.724,34.5 93,34.5Z" style="fill:white;"/>
                <path d="M48.5,1C47.799,1 47.231,1.207 46.773,1.5L40.807,1.5C39.439,1.5 38.146,2.19 37.504,3.399L37.417,3.565L37.333,3.728L37.19,4.011L37.111,4.17C37.074,4.245 37.037,4.32 37.001,4.396C35.934,4.826 35.002,5.603 34.423,6.696C32.237,10.816 31,15.516 31,20.5L31,20.506L31.001,20.75L31,20.994L31,21C31,25.984 32.237,30.684 34.423,34.804C35.355,36.561 37.194,37.5 39.05,37.5L44.5,37.5C44.555,37.5 44.576,37.509 44.583,37.512C44.595,37.517 44.627,37.532 44.684,37.584C44.831,37.716 44.978,37.922 45.252,38.332L45.319,38.434C45.758,39.101 46.678,40.5 48.5,40.5L106.5,40.5C108.322,40.5 109.242,39.101 109.681,38.434L109.748,38.332C110.021,37.922 110.169,37.716 110.316,37.584C110.373,37.532 110.405,37.517 110.417,37.512C110.424,37.509 110.445,37.5 110.5,37.5L115.95,37.5C117.806,37.5 119.646,36.561 120.577,34.804C122.763,30.684 124,25.984 124,21L123.999,20.75L124,20.634L124,20.5C124,15.516 122.763,10.816 120.577,6.696C119.945,5.503 118.894,4.687 117.703,4.286C117.558,3.987 117.408,3.692 117.252,3.399C116.611,2.19 115.318,1.5 113.95,1.5L108.227,1.5C107.769,1.207 107.201,1 106.5,1L48.5,1ZM40.807,2.5L45.715,2.5C45.553,2.711 45.422,2.909 45.319,3.066L45.252,3.168C44.978,3.578 44.831,3.784 44.684,3.916C44.655,3.943 44.632,3.959 44.616,3.97L44.604,3.978L44.59,3.985L44.583,3.988C44.576,3.991 44.555,4 44.5,4L39.05,4C38.796,4 38.542,4.018 38.291,4.053L38.388,3.867C38.835,3.024 39.763,2.5 40.807,2.5ZM116.451,4.023C116.285,4.008 116.117,4 115.95,4L110.5,4C110.445,4 110.424,3.991 110.417,3.988C110.405,3.983 110.373,3.968 110.316,3.916C110.169,3.784 110.021,3.578 109.748,3.168L109.681,3.066C109.578,2.909 109.447,2.711 109.285,2.5L113.95,2.5C114.994,2.5 115.921,3.024 116.369,3.867L116.451,4.023ZM47.748,4.832C48.022,4.422 48.169,4.216 48.316,4.084L48.347,4.057L48.372,4.039C48.395,4.022 48.41,4.015 48.417,4.012C48.424,4.009 48.445,4 48.5,4L106.5,4C106.555,4 106.576,4.009 106.583,4.012C106.595,4.017 106.627,4.032 106.684,4.084C106.831,4.216 106.979,4.422 107.252,4.832L107.319,4.934C107.758,5.601 108.678,7 110.5,7L115.95,7C116.832,7 117.577,7.44 117.927,8.101C119.889,11.799 121,16.017 121,20.5L121,20.616L120.999,20.68L120.999,20.75L121,20.88L121,21C121,25.483 119.889,29.701 117.927,33.399C117.577,34.06 116.832,34.5 115.95,34.5L110.5,34.5C108.678,34.5 107.758,35.899 107.319,36.566L107.252,36.668C106.979,37.078 106.831,37.284 106.684,37.416C106.654,37.443 106.631,37.461 106.614,37.471C106.599,37.481 106.588,37.486 106.583,37.488C106.576,37.491 106.555,37.5 106.5,37.5L48.5,37.5C48.467,37.5 48.447,37.497 48.434,37.494L48.421,37.49L48.417,37.488C48.405,37.483 48.373,37.468 48.316,37.416C48.169,37.284 48.022,37.078 47.748,36.668L47.681,36.566C47.242,35.899 46.322,34.5 44.5,34.5L39.05,34.5C38.169,34.5 37.423,34.06 37.073,33.399C35.112,29.702 34.001,25.484 34,21.003L34,21L34.001,20.756L34,20.5L34,20.497C34.001,16.016 35.112,11.798 37.073,8.101C37.423,7.44 38.169,7 39.05,7L44.5,7C46.322,7 47.242,5.601 47.681,4.934L47.748,4.832Z" style="fill:white;"/>
            </g>
        </g>
    </g>
</svg>
