<?xml version="1.0" encoding="UTF-8" standalone="no"?>
<!DOCTYPE svg PUBLIC "-//W3C//DTD SVG 1.1//EN" "http://www.w3.org/Graphics/SVG/1.1/DTD/svg11.dtd">
<svg width="100%" height="100%" viewBox="0 0 100 60" version="1.1" xmlns="http://www.w3.org/2000/svg" xmlns:xlink="http://www.w3.org/1999/xlink" xml:space="preserve" xmlns:serif="http://www.serif.com/" style="fill-rule:evenodd;clip-rule:evenodd;">
    <g transform="matrix(1,0,0,1,-701,-124)">
        <g id="PS2" transform="matrix(1,0,0,0.6,701,124)">
            <rect x="0" y="0" width="100" height="100" style="fill:none;"/>
            <g id="Group-197" serif:id="Group 197" transform="matrix(1,0,0,1.66667,-26.0512,13.7195)">
                <path id="Rectangle-194" serif:id="Rectangle 194" d="M77.471,21.988C77.471,21.797 77.316,21.642 77.125,21.642L74.877,21.642C74.686,21.642 74.531,21.797 74.531,21.988L74.531,23.198C74.531,23.389 74.686,23.544 74.877,23.544L77.125,23.544C77.316,23.544 77.471,23.389 77.471,23.198L77.471,21.988Z" style="fill:white;"/>
                <g id="Group-191" serif:id="Group 191">
                    <path id="Rectangle-187" serif:id="Rectangle 187" d="M71.125,16.201C71.125,16.01 70.97,15.855 70.779,15.855L68.531,15.855C68.34,15.855 68.185,16.01 68.185,16.201L68.185,17.411C68.185,17.602 68.34,17.757 68.531,17.757L70.779,17.757C70.97,17.757 71.125,17.602 71.125,17.411L71.125,16.201Z" style="fill:white;"/>
                    <path id="Polygon-29" serif:id="Polygon 29" d="M83.566,16.472C83.903,16.567 83.903,17.044 83.566,17.139L81.176,17.806C80.956,17.868 80.737,17.702 80.737,17.473L80.737,16.138C80.737,15.909 80.956,15.743 81.176,15.805L83.566,16.472Z" style="fill:white;fill-rule:nonzero;"/>
                </g>
                <g id="Group-192" serif:id="Group 192">
                    <g id="Ellipse-84" serif:id="Ellipse 84" transform="matrix(-3.82857e-16,-1,1,-3.82857e-16,73.42,107.638)">
                        <circle cx="90.529" cy="17.109" r="2.421" style="fill:white;"/>
                    </g>
                    <g id="Ellipse-85" serif:id="Ellipse 85" transform="matrix(-3.82857e-16,-1,1,-3.82857e-16,84.3158,118.534)">
                        <circle cx="101.425" cy="17.109" r="2.421" style="fill:white;"/>
                    </g>
                    <circle id="Ellipse-86" serif:id="Ellipse 86" cx="95.978" cy="12.18" r="2.421" style="fill:white;"/>
                    <circle id="Ellipse-87" serif:id="Ellipse 87" cx="95.978" cy="21.865" r="2.421" style="fill:white;"/>
                </g>
                <path id="Rectangle-196" serif:id="Rectangle 196" d="M58.007,15.416C58.103,15.324 58.231,15.273 58.364,15.273L60.233,15.273C60.424,15.273 60.579,15.428 60.579,15.619L60.579,18.213C60.579,18.404 60.424,18.559 60.233,18.559L58.364,18.559C58.231,18.559 58.103,18.508 58.007,18.416L56.956,17.418C56.669,17.145 56.669,16.687 56.956,16.414L58.007,15.416Z" style="fill:white;fill-rule:nonzero;"/>
                <path id="Rectangle-197" serif:id="Rectangle 197" d="M52.772,15.416C52.676,15.324 52.548,15.273 52.415,15.273L50.547,15.273C50.356,15.273 50.201,15.428 50.201,15.619L50.201,18.213C50.201,18.404 50.356,18.559 50.547,18.559L52.415,18.559C52.548,18.559 52.676,18.508 52.772,18.416L53.824,17.418C54.111,17.145 54.111,16.687 53.824,16.414L52.772,15.416Z" style="fill:white;fill-rule:nonzero;"/>
                <path id="Rectangle-198" serif:id="Rectangle 198" d="M56.804,19.447C56.895,19.543 56.946,19.671 56.946,19.804L56.946,21.672C56.946,21.863 56.791,22.018 56.6,22.018L54.006,22.018C53.815,22.018 53.66,21.863 53.66,21.672L53.66,19.804C53.66,19.671 53.711,19.543 53.803,19.447L54.802,18.395C55.074,18.108 55.532,18.108 55.805,18.395L56.804,19.447Z" style="fill:white;fill-rule:nonzero;"/>
                <path id="Rectangle-199" serif:id="Rectangle 199" d="M56.804,14.212C56.895,14.116 56.946,13.988 56.946,13.855L56.946,11.987C56.946,11.796 56.791,11.641 56.6,11.641L54.006,11.641C53.815,11.641 53.66,11.796 53.66,11.987L53.66,13.855C53.66,13.988 53.711,14.116 53.803,14.212L54.802,15.264C55.074,15.551 55.532,15.551 55.805,15.264L56.804,14.212Z" style="fill:white;fill-rule:nonzero;"/>
                <path id="Line-45" serif:id="Line 45" d="M62.594,9.64L88.719,9.64" style="fill:none;fill-rule:nonzero;stroke:white;stroke-width:2px;"/>
                <path id="Line-46" serif:id="Line 46" d="M71.469,30.911L79.5,30.911" style="fill:none;fill-rule:nonzero;stroke:white;stroke-width:2px;"/>
                <g id="Group-193" serif:id="Group 193">
                    <path id="Rectangle-180" serif:id="Rectangle 180" d="M51.251,1.738C51.371,1.411 51.635,1.157 51.975,1.083C52.584,0.95 53.688,0.768 55.166,0.768C56.645,0.768 57.749,0.95 58.357,1.083C58.698,1.157 58.962,1.411 59.081,1.738L59.69,3.407L50.642,3.407L51.251,1.738Z" style="fill:white;fill-rule:nonzero;"/>
                    <path id="Rectangle-181" serif:id="Rectangle 181" d="M61.567,8.828L61.176,6.63C60.918,5.181 60.128,3.918 58.9,3.528C57.975,3.235 56.731,2.975 55.226,2.975C53.721,2.975 52.477,3.235 51.552,3.528C50.324,3.918 49.534,5.181 49.276,6.63L48.885,8.828" style="fill:none;fill-rule:nonzero;stroke:white;stroke-width:2px;"/>
                    <path id="Rectangle-182--Stroke-" serif:id="Rectangle 182 (Stroke)" d="M60.051,31.626L55.368,38.849C54.524,40.151 53.284,41.147 51.831,41.691C46.606,43.646 41.226,39.204 42.157,33.703L45.068,16.106" style="fill:none;fill-rule:nonzero;stroke:white;stroke-width:2px;"/>
                    <circle id="Ellipse-88" serif:id="Ellipse 88" cx="65.479" cy="29.475" r="4.063" style="fill:white;"/>
                    <path id="Vector" d="M60.101,26.346L60.967,26.846L59.639,25.459L60.101,26.346ZM63.448,23.574L62.663,22.954L63.777,24.518L63.448,23.574ZM55.34,26.508C50.191,26.508 46.017,22.333 46.017,17.184L44.017,17.184C44.017,23.438 49.086,28.508 55.34,28.508L55.34,26.508ZM46.017,17.184C46.017,12.035 50.191,7.861 55.34,7.861L55.34,5.861C49.086,5.861 44.017,10.931 44.017,17.184L46.017,17.184ZM55.34,7.861C60.489,7.861 64.663,12.035 64.663,17.184L66.663,17.184C66.663,10.931 61.593,5.861 55.34,5.861L55.34,7.861ZM70.718,29.453C70.718,32.338 68.38,34.677 65.495,34.677L65.495,36.677C69.484,36.677 72.718,33.442 72.718,29.453L70.718,29.453ZM65.495,34.677C62.61,34.677 60.271,32.338 60.271,29.453L58.271,29.453C58.271,33.442 61.505,36.677 65.495,36.677L65.495,34.677ZM65.495,24.23C68.38,24.23 70.718,26.568 70.718,29.453L72.718,29.453C72.718,25.464 69.484,22.23 65.495,22.23L65.495,24.23ZM60.271,29.453C60.271,28.502 60.525,27.613 60.967,26.846L59.235,25.846C58.622,26.909 58.271,28.141 58.271,29.453L60.271,29.453ZM59.639,25.459C58.354,26.129 56.892,26.508 55.34,26.508L55.34,28.508C57.222,28.508 58.999,28.048 60.563,27.233L59.639,25.459ZM64.663,17.184C64.663,19.364 63.916,21.367 62.663,22.954L64.233,24.193C65.754,22.266 66.663,19.83 66.663,17.184L64.663,17.184ZM63.777,24.518C64.314,24.331 64.891,24.23 65.495,24.23L65.495,22.23C64.665,22.23 63.865,22.37 63.12,22.629L63.777,24.518Z" style="fill:white;fill-rule:nonzero;"/>
                </g>
                <g id="Group-194" serif:id="Group 194">
                    <path id="Rectangle-180_2" serif:id="Rectangle 180_2" d="M100.015,1.738C99.895,1.411 99.631,1.157 99.29,1.083C98.682,0.95 97.578,0.768 96.1,0.768C94.621,0.768 93.517,0.95 92.909,1.083C92.568,1.157 92.304,1.411 92.184,1.738L91.576,3.407L100.624,3.407L100.015,1.738Z" style="fill:white;fill-rule:nonzero;"/>
                    <path id="Rectangle-181_2" serif:id="Rectangle 181_2" d="M89.699,8.828L90.09,6.63C90.348,5.181 91.137,3.918 92.366,3.528C93.291,3.235 94.535,2.975 96.04,2.975C97.544,2.975 98.788,3.235 99.714,3.528C100.942,3.918 101.731,5.181 101.989,6.63L102.38,8.828" style="fill:none;fill-rule:nonzero;stroke:white;stroke-width:2px;"/>
                    <path id="Rectangle-182--Stroke-_2" serif:id="Rectangle 182 (Stroke)_2" d="M91.215,31.626L95.898,38.849C96.742,40.151 97.982,41.147 99.435,41.691C104.66,43.646 110.04,39.204 109.108,33.703L106.198,16.106" style="fill:none;fill-rule:nonzero;stroke:white;stroke-width:2px;"/>
                    <g id="Ellipse-88_2" serif:id="Ellipse 88_2" transform="matrix(-1,0,0,1,85.7865,29.4745)">
                        <circle cx="0" cy="0" r="4.063" style="fill:white;"/>
                    </g>
                    <path id="Vector_2" d="M91.165,26.346L90.299,26.846L91.626,25.459L91.165,26.346ZM87.817,23.574L88.602,22.954L87.489,24.518L87.817,23.574ZM95.926,26.508C101.075,26.508 105.249,22.333 105.249,17.184L107.249,17.184C107.249,23.438 102.18,28.508 95.926,28.508L95.926,26.508ZM105.249,17.184C105.249,12.035 101.075,7.861 95.926,7.861L95.926,5.861C102.18,5.861 107.249,10.931 107.249,17.184L105.249,17.184ZM95.926,7.861C90.777,7.861 86.603,12.035 86.603,17.184L84.603,17.184C84.603,10.931 89.672,5.861 95.926,5.861L95.926,7.861ZM80.547,29.453C80.547,32.338 82.886,34.677 85.771,34.677L85.771,36.677C81.781,36.677 78.547,33.442 78.547,29.453L80.547,29.453ZM85.771,34.677C88.656,34.677 90.994,32.338 90.994,29.453L92.994,29.453C92.994,33.442 89.76,36.677 85.771,36.677L85.771,34.677ZM85.771,24.23C82.886,24.23 80.547,26.568 80.547,29.453L78.547,29.453C78.547,25.464 81.781,22.23 85.771,22.23L85.771,24.23ZM90.994,29.453C90.994,28.502 90.741,27.613 90.299,26.846L92.031,25.846C92.644,26.909 92.994,28.141 92.994,29.453L90.994,29.453ZM91.626,25.459C92.912,26.129 94.373,26.508 95.926,26.508L95.926,28.508C94.044,28.508 92.267,28.048 90.703,27.233L91.626,25.459ZM86.603,17.184C86.603,19.364 87.35,21.367 88.602,22.954L87.032,24.193C85.511,22.266 84.603,19.83 84.603,17.184L86.603,17.184ZM87.489,24.518C86.952,24.331 86.374,24.23 85.771,24.23L85.771,22.23C86.601,22.23 87.401,22.37 88.146,22.629L87.489,24.518Z" style="fill:white;fill-rule:nonzero;"/>
                </g>
            </g>
        </g>
    </g>
</svg>
