<svg xmlns="http://www.w3.org/2000/svg" xmlns:xlink="http://www.w3.org/1999/xlink" id="Ebene_1" width="566.93" height="124.23" x="0" y="0" enable-background="new 0 0 566.93 124.23" version="1.1" viewBox="0 0 566.93 124.23" xml:space="preserve"><g><g><g id="Layer_6"><line x1="29.248" x2="28.12" y1="99.123" y2="98.282" fill="none"/></g><g id="_x33_D_PART"><linearGradient id="SVGID_1_" x1="24.415" x2="104.743" y1="564.872" y2="551.509" gradientTransform="matrix(1 0 0 1 -0.0049 -473.4258)" gradientUnits="userSpaceOnUse"><stop offset=".037" style="stop-color:#fff"/><stop offset=".896" style="stop-color:#898cbf"/></linearGradient><polygon fill="url(#SVGID_1_)" points="89.451 62.438 89.451 82.608 53.699 103.224 18.222 82.608 16.628 83.691 53.699 105.427 91.065 83.824 91.065 61.505"/></g><g id="black_line_thing"><polygon fill="#7A7EAE" points="89.451 82.52 91.065 83.685 91.065 83.824 90.963 83.9 89.308 82.69 89.451 82.608"/></g><g id="dark_purple_top_line"><linearGradient id="SVGID_2_" x1="28.461" x2="54.049" y1="68.837" y2="68.837" gradientTransform="matrix(1 0 0 -1 -0.0449 123.9897)" gradientUnits="userSpaceOnUse"><stop offset="0" style="stop-color:#6e70a9"/><stop offset=".969" style="stop-color:#514a8e"/></linearGradient><polygon fill="url(#SVGID_2_)" points="54.004 62.205 28.814 47.455 28.416 47.853 53.699 62.851"/><linearGradient id="SVGID_3_" x1="53.857" x2="54.185" y1="61.681" y2="61.681" gradientTransform="matrix(1 0 0 -1 -0.0449 123.9897)" gradientUnits="userSpaceOnUse"><stop offset="0" style="stop-color:#6e70a9"/><stop offset=".969" style="stop-color:#514a8e"/></linearGradient><polygon fill="url(#SVGID_3_)" points="53.922 62.205 54.107 62.205 54.14 62.413 53.813 62.413"/></g><g id="top_black_line"><polygon fill="#120F22" points="54.004 62.851 54.004 62.205 107.627 31.206 107.785 31.647"/></g><g id="LOGO_DARK_LINES"><polygon fill="#453D76" points="54.004 124.23 54.363 105.729 91.582 84.28 91.72 61.312 91.065 61.312 91.065 83.824 53.699 105.427 53.565 124.23"/></g><g id="LOGO"><linearGradient id="SVGID_4_" x1="64.085" x2="108.726" y1="540.326" y2="569.631" gradientTransform="matrix(1 0 0 1 -0.0049 -473.4258)" gradientUnits="userSpaceOnUse"><stop offset="0" style="stop-color:#4c5284"/><stop offset="1" style="stop-color:#8789bc"/></linearGradient><polygon fill="url(#SVGID_4_)" points="54.004 91.212 54.004 62.851 107.785 31.647 107.785 93.197 54.004 124.23 54.004 105.573 91.361 84.062 91.361 61.332 78.85 68.566 78.85 76.595"/></g><g id="BOTTOM_LAIN_LEFT_LIGHT_LINE"><linearGradient id="SVGID_5_" x1="53.464" x2="53.153" y1="596.999" y2="577.096" gradientTransform="matrix(1 0 0 1 -0.0049 -473.4258)" gradientUnits="userSpaceOnUse"><stop offset=".11" style="stop-color:#4c407e"/><stop offset=".89" style="stop-color:#669"/><stop offset="1" style="stop-color:#a7b3d9"/><stop offset="1" style="stop-color:#9ba5cd"/></linearGradient><polyline fill="url(#SVGID_5_)" points="53.402 124.23 53.699 124.23 53.699 105.427 52.642 104.806 53.402 124.23"/></g><g id="underneath"><polyline fill="#2D2868" points="16.542 40.703 16.771 40.897 16.862 83.532 16.628 83.691 16.486 83.601 16.542 40.703"/></g><g id="LEFT_3D_PURPLE_SHADOW"><polygon fill="#453D76" points="18.222 82.608 16.628 83.691 16.628 40.755 54.004 19.174 54.004 21.3 18.26 41.987"/></g><g id="MAIN_DARK_PURPLE_LINE"><polygon fill="#453D76" points="54.004 62.094 54.004 91.212 53.699 91.417 53.699 62.851 53.699 62.028"/></g><g id="logo_LEFT_side"><linearGradient id="SVGID_6_" x1="4.824" x2="66.026" y1="553.133" y2="536.124" gradientTransform="matrix(1 0 0 1 -0.0049 -473.4258)" gradientUnits="userSpaceOnUse"><stop offset=".233" style="stop-color:#669"/><stop offset=".724" style="stop-color:#a7b3d9"/></linearGradient><polygon fill="url(#SVGID_6_)" points="28.416 47.853 28.416 76.802 53.699 91.417 53.699 62.851"/><linearGradient id="SVGID_7_" x1="5.882" x2="67.08" y1="556.931" y2="539.923" gradientTransform="matrix(1 0 0 1 -0.0049 -473.4258)" gradientUnits="userSpaceOnUse"><stop offset=".233" style="stop-color:#669"/><stop offset=".991" style="stop-color:#a7b3d9"/></linearGradient><polygon fill="url(#SVGID_7_)" points="53.402 123.926 53.402 105.251 16.628 83.691 16.628 40.964 0 31.206 0 93.302 53.402 124.23"/></g><g id="left_purple_line"><rect width=".285" height="42.938" x="16.343" y="40.755" fill="#2D2868"/><polygon fill="#2D2868" points="16.628 40.755 .214 30.992 0 31.206 16.486 40.897"/></g><g id="BOTTOM_PURPLE_LINE"><linearGradient id="SVGID_8_" x1="19.586" x2="43.921" y1="559.814" y2="572.836" gradientTransform="matrix(1 0 0 1 -0.0049 -473.4258)" gradientUnits="userSpaceOnUse"><stop offset="0" style="stop-color:#6e70a9"/><stop offset=".969" style="stop-color:#514a8e"/></linearGradient><polygon fill="url(#SVGID_8_)" points="53.402 105.251 53.402 105.603 16.343 84.015 16.343 83.691 16.628 83.691"/></g><g id="top_middle_light_line"><linearGradient id="SVGID_9_" x1="55.735" x2="71.185" y1="495.654" y2="503.171" gradientTransform="matrix(1 0 0 1 -0.0049 -473.4258)" gradientUnits="userSpaceOnUse"><stop offset=".037" style="stop-color:#9ea5d3"/><stop offset=".902" style="stop-color:#7675ae"/></linearGradient><polygon fill="url(#SVGID_9_)" points="54.004 19.174 77.901 33.142 77.901 35.231 54.004 21.3"/></g><g id="top_right"><polygon fill="#484592" points="77.901 33.142 77.901 35.231 94.454 25.524 94.454 23.552"/></g><g id="MAIN_TOP"><path fill="none" d="M0,31.206"/><linearGradient id="SVGID_10_" x1=".219" x2=".219" y1="504.418" y2="504.418" gradientTransform="matrix(1 0 0 1 -0.0049 -473.4258)" gradientUnits="userSpaceOnUse"><stop offset=".233" style="stop-color:#669"/><stop offset=".991" style="stop-color:#a7b3d9"/></linearGradient><path fill="url(#SVGID_10_)" d="M0.214,30.992"/><linearGradient id="SVGID_11_" x1="49.386" x2="45.741" y1="477.947" y2="518.442" gradientTransform="matrix(1 0 0 1 -0.0049 -473.4258)" gradientUnits="userSpaceOnUse"><stop offset="0" style="stop-color:#aaacd2"/><stop offset=".626" style="stop-color:#fcfafb"/></linearGradient><polygon fill="url(#SVGID_11_)" points="53.833 0 94.454 23.552 77.901 33.142 54.004 19.174 16.628 40.755 .214 30.992"/><linearGradient id="SVGID_12_" x1="71.78" x2="68.135" y1="473.265" y2="513.761" gradientTransform="matrix(1 0 0 1 -0.0049 -473.4258)" gradientUnits="userSpaceOnUse"><stop offset=".674" style="stop-color:#aaacd2"/><stop offset="1" style="stop-color:#fcfafb"/></linearGradient><polygon fill="url(#SVGID_12_)" points="28.814 47.455 53.68 33.409 77.369 46.781 106.232 30.192 107.627 31.206 54.004 62.205"/></g></g><g><path id="path23497" d="M373.52,21.158v-4.949h-14.143c-1.816,0-3.533,0.404-5.054,1.11c-1.513,0.71-2.726,1.718-3.634,2.932 c-0.908,1.209-1.314,2.529-1.416,4.04v15.252c0.1,1.417,0.508,2.729,1.313,3.944c0.912,1.21,2.121,2.116,3.537,2.924 c1.516,0.71,3.127,1.115,5.053,1.115h14.34v-4.949h-13.739c-1.11,0-2.118-0.306-3.022-0.911c-0.815-0.604-1.318-1.312-1.318-2.319 v-5.657h18.082v-5.053h-18.082v-4.142c0-1.013,0.503-1.817,1.318-2.427c0.904-0.606,1.912-0.91,3.022-0.91h13.739"/><path id="path23501" d="M457.952,16.21v31.317h15.102c1.916-0.098,3.625-0.405,5.139-1.107c1.609-0.804,2.818-1.712,3.723-2.921 c0.908-1.203,1.307-2.615,1.408-4.127V24.266c-0.102-1.507-0.5-2.821-1.408-4.028c-0.904-1.208-2.111-2.213-3.723-2.921 c-1.514-0.705-3.225-1.107-5.139-1.107H457.952L457.952,16.21z M475.778,22.052c0.898,0.604,1.303,1.407,1.404,2.418v14.803 c-0.104,1.006-0.506,1.812-1.404,2.416c-0.809,0.703-1.82,1.005-2.928,1.005h-8.758V21.046h8.758 C473.958,21.046,474.969,21.347,475.778,22.052"/><path id="path23503" d="M531.958,17.302c-1.488-0.692-3.172-0.993-5.053-1.093h-5.453c-1.885,0.099-3.566,0.4-5.057,1.093 c-1.584,0.794-2.775,1.68-3.666,2.874c-0.895,1.186-1.389,2.576-1.389,4.063v15.359c0,1.486,0.494,2.777,1.389,3.967 c0.891,1.19,2.082,2.179,3.666,2.874c1.49,0.693,3.172,1.089,5.057,1.089h5.453c1.881,0,3.563-0.396,5.053-1.089 c1.584-0.694,2.773-1.684,3.666-2.874c0.893-1.191,1.387-2.577,1.387-3.967v-15.36c-0.096-1.487-0.494-2.877-1.387-4.063 C534.731,18.981,533.542,18.095,531.958,17.302z M529.579,21.958c0.891,0.694,1.387,1.484,1.387,2.382v15.059 c0,0.892-0.496,1.686-1.387,2.379c-0.793,0.597-1.787,0.994-2.873,0.994h-5.055c-1.094,0-2.084-0.396-2.977-0.994 c-0.789-0.694-1.285-1.487-1.285-2.379V24.34c0-0.897,0.496-1.688,1.285-2.382c0.893-0.596,1.883-0.893,2.977-0.992h5.055 C527.793,21.067,528.786,21.363,529.579,21.958"/><path id="path23515" d="M169.301,16.21h-6.163v20.003L152.634,16.21h-8.385v31.317h6.163V23.083l12.828,24.444h6.061V16.21"/><path id="path23515_1_" d="M269.711,16.21h-6.163v20.003L253.043,16.21h-8.385v31.317h6.163V23.083l12.828,24.444h6.062V16.21"/><path id="path23515_2_" d="M428.299,16.21h-6.162v20.003L411.633,16.21h-8.387v31.317h6.163V23.083l12.828,24.444h6.062V16.21"/><path id="path23517" d="M210.526,47.527V16.21h-7.07v31.317H210.526L210.526,47.527"/><path id="path23521" d="M296.922,16.21v4.949h10.401v26.369h6.671v-26.37h10.504v-4.949H296.92l0,0"/></g><g><path id="path23505" d="M543.92,69.03v-8.463h-42.717v40.229h43.113v-9.062h-31.855v-7.57h18.316v-8.457h-18.316V69.03H543.92 L543.92,69.03"/><path id="path23507" d="M496.374,68.755c0.096-2.785-0.697-4.977-2.393-6.274c-1.596-1.394-4.08-2.09-7.467-2.09h-35.148v40.325 h32.658c8.563-0.099,12.744-2.887,12.744-8.562v-4.883c0-3.382-1.492-5.87-4.582-7.262c2.789-1.298,4.188-3.487,4.188-6.576 V68.755L496.374,68.755z M485.52,68.955c0.398,0.399,0.602,0.8,0.496,1.396v3.685c0.104,0.495-0.098,0.995-0.496,1.293 l-2.795,0.495h-20.107v-7.266h20.107C484.227,68.558,485.221,68.757,485.52,68.955L485.52,68.955z M462.618,91.855v-7.867h20.211 c1.496,0,2.393,0.201,2.889,0.5c0.402,0.401,0.596,0.998,0.596,1.993v2.886c0,0.897-0.191,1.594-0.596,1.891 c-0.496,0.4-1.393,0.597-2.889,0.597L462.618,91.855"/><path id="path23509" d="M446.614,60.458h-11.25v31.167h-24.396V60.458h-11.248v30.271c-0.106,2.486,0.295,4.484,0.99,5.975 c0.6,1.395,1.797,2.49,3.389,3.089c1.597,0.695,3.684,0.993,6.47,0.896h25.093c2.789,0.097,4.977-0.201,6.57-0.896 c1.59-0.599,2.689-1.694,3.389-3.089c0.695-1.491,0.996-3.487,0.996-5.975V60.458"/><path id="path23511" d="M394.09,64.607c-0.705-1.489-1.896-2.488-3.388-3.186c-1.596-0.602-3.784-0.898-6.473-0.898h-24.591 c-2.789,0-4.881,0.298-6.478,0.898c-1.591,0.697-2.786,1.696-3.382,3.186c-0.697,1.494-1.096,3.484-0.993,5.974v20.214 c-0.103,2.484,0.296,4.48,0.993,5.971c0.596,1.396,1.791,2.491,3.382,3.093c1.597,0.693,3.688,0.991,6.478,0.893h24.592 c2.688,0.098,4.877-0.199,6.473-0.893c1.492-0.602,2.684-1.697,3.387-3.093c0.597-1.489,0.996-3.485,0.996-5.971v-7.371 l-11.256,0.105v8.162h-23.893V69.39h23.893v7.165h11.256v-5.974C395.086,67.996,394.687,66.007,394.09,64.607"/><path id="path23513" d="M340.461,69.03v-8.463h-42.718v40.229h43.116v-9.062h-31.861v-7.57h18.321v-8.457h-18.321V69.03H340.461 L340.461,69.03"/><path id="path23523" d="M282.411,60.458l-17.127,28.48l-17.025-28.48h-10.254v33.159l-20.016-33.159h-10.056l-23.994,40.228 h30.068v-9.061h-13.442l12.447-20.013l16.828,29.072h18.519V79.179l12.842,21.505h8.266l12.942-21.505v21.505h10.354V60.457 h-10.354l0,0"/><path id="path23525" d="M184.83,69.307v-8.77h-37.938c-2.685,0-4.879,0.3-6.474,0.899c-1.59,0.696-2.686,1.698-3.381,3.187 c-0.7,1.493-0.998,3.483-0.998,5.975v20.21c0,2.486,0.298,4.483,0.998,5.975c0.696,1.395,1.792,2.49,3.381,3.091 c1.594,0.692,3.789,0.991,6.474,0.895h27.584c3.978,0.097,6.768-0.599,8.458-2.091c1.595-1.595,2.391-4.183,2.294-7.868v-14.24 H159.14v8.47h15.135v6.667H147.29V69.307H184.83"/></g><g><path id="path23527" d="M566.93,91.979h-1.693l-2.041,6.45c-0.334,0.513-0.51,1.024-0.51,1.362 c-0.172-0.338-0.346-0.682-0.512-1.188l-2.211-6.626h-1.699v9.17h1.027v-7.813l2.717,7.813h1.012l2.721-7.642v7.642h1.189V91.979"/><path id="path23529" d="M554.016,93.167h2.893v-1.188h-7.139v1.188h3.063v7.982h1.186v-7.982"/></g></g></svg>