<?xml version="1.0" encoding="UTF-8" standalone="no"?>
<!DOCTYPE svg PUBLIC "-//W3C//DTD SVG 1.1//EN" "http://www.w3.org/Graphics/SVG/1.1/DTD/svg11.dtd">
<svg width="100%" height="100%" viewBox="0 0 101 60" version="1.1" xmlns="http://www.w3.org/2000/svg" xmlns:xlink="http://www.w3.org/1999/xlink" xml:space="preserve" xmlns:serif="http://www.serif.com/" style="fill-rule:evenodd;clip-rule:evenodd;stroke-linejoin:round;stroke-miterlimit:2;">
    <g transform="matrix(1,0,0,1,-280,-496)">
        <g id="Saturn" transform="matrix(1,0,0,0.6,280.4,496)">
            <rect x="0" y="0" width="100" height="100" style="fill:none;"/>
            <g id="Group-316" serif:id="Group 316" transform="matrix(1,0,0,1.66667,-27.0955,12.6608)">
                <g id="Group-315" serif:id="Group 315">
                    <path id="Vector--Stroke-" serif:id="Vector (Stroke)" d="M97.298,6.476C94.128,4.619 91.343,4.107 88.431,4.372C87.286,4.476 86.087,4.843 84.63,5.289C84.444,5.345 84.254,5.403 84.06,5.462C82.379,5.972 80.445,6.515 78.182,6.696L78.142,6.699L76.049,6.699L76.009,6.696C73.746,6.515 71.812,5.972 70.131,5.462C69.936,5.403 69.746,5.345 69.561,5.289C68.103,4.843 66.905,4.476 65.76,4.372C62.847,4.107 60.063,4.619 56.892,6.476C51.318,9.742 47.889,14.636 45.711,20.583C44.632,23.532 44.216,26.233 44.07,28.196C43.998,29.176 43.993,29.969 44.006,30.512C44.012,30.783 44.023,30.991 44.032,31.129C44.036,31.198 44.04,31.249 44.043,31.282L44.046,31.324L44.048,31.335L44.187,33.155C44.66,39.336 51.815,42.607 56.949,39.008C59.431,37.268 61.705,35.745 63.052,35.018C63.052,35.017 63.052,35.018 63.052,35.018L63.11,34.986C67.383,32.679 70.717,30.879 75.988,30.343L76.038,30.337L78.153,30.337L78.203,30.343C83.474,30.879 86.808,32.679 91.08,34.986L91.138,35.017C92.485,35.745 94.76,37.268 97.242,39.008C102.376,42.607 109.531,39.336 110.004,33.155L110.143,31.335L110.144,31.324L110.145,31.316L110.148,31.282C110.151,31.249 110.155,31.198 110.159,31.129C110.168,30.991 110.179,30.783 110.185,30.512C110.198,29.969 110.193,29.176 110.12,28.196C109.975,26.233 109.559,23.532 108.479,20.583C106.302,14.636 102.873,9.742 97.298,6.476ZM112.136,31.51L112.136,31.501L112.141,31.448C112.145,31.404 112.15,31.34 112.155,31.258C112.166,31.094 112.178,30.859 112.185,30.558C112.199,29.959 112.193,29.1 112.115,28.048C111.959,25.946 111.515,23.055 110.358,19.895C108.062,13.626 104.378,8.306 98.309,4.75C94.782,2.684 91.581,2.078 88.25,2.38C86.883,2.505 85.469,2.939 84.047,3.375C83.858,3.433 83.669,3.491 83.479,3.549C81.837,4.047 80.084,4.533 78.062,4.699L76.129,4.699C74.107,4.533 72.354,4.047 70.711,3.549C70.522,3.491 70.333,3.433 70.143,3.375C68.722,2.939 67.308,2.505 65.941,2.38C62.61,2.078 59.409,2.684 55.881,4.75C49.813,8.306 46.129,13.626 43.833,19.895C42.676,23.055 42.231,25.946 42.076,28.048C41.998,29.1 41.992,29.959 42.006,30.558C42.013,30.859 42.025,31.094 42.036,31.258C42.041,31.34 42.046,31.404 42.05,31.448L42.054,31.501L42.055,31.51L42.193,33.307C42.789,41.103 51.752,45.094 58.097,40.646C60.594,38.895 62.775,37.44 64.003,36.777L64.013,36.772C64.013,36.772 64.013,36.772 64.013,36.772C68.295,34.459 71.315,32.837 76.14,32.337L78.051,32.337C82.876,32.837 85.895,34.459 90.178,36.772C90.178,36.772 90.178,36.772 90.178,36.772L90.188,36.777C91.416,37.44 93.597,38.895 96.094,40.646C102.439,45.094 111.401,41.103 111.998,33.307L112.136,31.51Z" style="fill:white;"/>
                    <path id="Vector--Stroke-_2" serif:id="Vector (Stroke)_2" d="M77.089,8.017C70.923,7.935 65.164,8.018 58.799,9.324L58.784,9.327C55.629,9.874 48.851,13.264 47.506,22.488C46.845,27.016 48.806,30.327 51.568,32.658C54.347,35.003 57.911,36.328 60.322,36.824L60.121,37.804C57.593,37.284 53.861,35.902 50.923,33.422C47.968,30.928 45.794,27.297 46.516,22.343C47.936,12.609 55.118,8.952 58.606,8.343C65.076,7.016 70.92,6.935 77.095,7.017C83.271,6.935 89.115,7.016 95.585,8.343C99.072,8.952 106.255,12.609 107.675,22.343C108.397,27.297 106.222,30.928 103.268,33.422C100.33,35.902 96.598,37.284 94.07,37.804L93.868,36.824C96.279,36.328 99.844,35.003 102.623,32.658C105.384,30.327 107.346,27.016 106.685,22.488C105.34,13.264 98.562,9.874 95.406,9.327L95.391,9.324C89.026,8.018 83.268,7.935 77.102,8.017L77.089,8.017L77.089,8.017Z" style="fill:white;"/>
                </g>
                <path id="Ellipse-183" serif:id="Ellipse 183" d="M80.214,27.315C80.214,27.981 78.818,28.52 77.095,28.52C75.373,28.52 73.977,27.981 73.977,27.315C73.977,26.65 75.373,26.111 77.095,26.111C78.818,26.111 80.214,26.65 80.214,27.315Z" style="fill:white;fill-rule:nonzero;"/>
                <path id="Ellipse-184" serif:id="Ellipse 184" d="M92.096,28.369C92.096,30.032 90.748,31.38 89.085,31.38C87.422,31.38 86.074,30.032 86.074,28.369C86.074,26.706 87.422,25.358 89.085,25.358C90.748,25.358 92.096,26.706 92.096,28.369Z" style="fill:white;fill-rule:nonzero;"/>
                <path id="Ellipse-185" serif:id="Ellipse 185" d="M98.419,23.81C98.419,25.473 97.071,26.821 95.408,26.821C93.745,26.821 92.397,25.473 92.397,23.81C92.397,22.147 93.745,20.798 95.408,20.798C97.071,20.798 98.419,22.147 98.419,23.81Z" style="fill:white;fill-rule:nonzero;"/>
                <path id="Ellipse-186" serif:id="Ellipse 186" d="M105.13,20.798C105.13,22.461 103.782,23.81 102.119,23.81C100.456,23.81 99.108,22.461 99.108,20.798C99.108,19.135 100.456,17.787 102.119,17.787C103.782,17.787 105.13,19.135 105.13,20.798Z" style="fill:white;fill-rule:nonzero;"/>
                <path id="Ellipse-187" serif:id="Ellipse 187" d="M100.398,14.302C100.398,15.585 99.358,16.625 98.075,16.625C96.793,16.625 95.752,15.585 95.752,14.302C95.752,13.02 96.793,11.98 98.075,11.98C99.358,11.98 100.398,13.02 100.398,14.302Z" style="fill:white;fill-rule:nonzero;"/>
                <path id="Ellipse-188" serif:id="Ellipse 188" d="M89.085,20.572C89.085,21.854 88.045,22.894 86.762,22.894C85.479,22.894 84.439,21.854 84.439,20.572C84.439,19.289 85.479,18.249 86.762,18.249C88.045,18.249 89.085,19.289 89.085,20.572Z" style="fill:white;fill-rule:nonzero;"/>
                <path id="Ellipse-189" serif:id="Ellipse 189" d="M94.419,16.626C94.419,17.909 93.379,18.949 92.096,18.949C90.813,18.949 89.773,17.909 89.773,16.626C89.773,15.343 90.813,14.303 92.096,14.303C93.379,14.303 94.419,15.343 94.419,16.626Z" style="fill:white;fill-rule:nonzero;"/>
                <path id="Ellipse-190--Stroke-" serif:id="Ellipse 190 (Stroke)" d="M58.936,29.074C62.818,29.074 65.964,25.927 65.964,22.046C65.964,18.164 62.818,15.018 58.936,15.018C55.054,15.018 51.908,18.164 51.908,22.046C51.908,25.927 55.054,29.074 58.936,29.074ZM58.936,30.074C63.37,30.074 66.964,26.48 66.964,22.046C66.964,17.612 63.37,14.018 58.936,14.018C54.502,14.018 50.908,17.612 50.908,22.046C50.908,26.48 54.502,30.074 58.936,30.074Z" style="fill:white;"/>
                <path id="Exclude" d="M57.359,15.821C57.359,15.821 57.816,15.572 58.936,15.572C60.057,15.572 60.513,15.821 60.513,15.821L60.513,18.232C60.513,19.467 61.515,20.469 62.75,20.469L65.161,20.469C65.161,20.469 65.41,20.905 65.41,22.046C65.41,23.166 65.161,23.623 65.161,23.623L62.75,23.623C61.515,23.623 60.513,24.624 60.513,25.86L60.513,28.271C60.513,28.271 60.077,28.52 58.936,28.52C57.816,28.52 57.359,28.271 57.359,28.271L57.359,25.86C57.359,24.624 56.358,23.623 55.122,23.623L52.711,23.623C52.711,23.623 52.462,23.166 52.462,22.046C52.462,20.925 52.711,20.469 52.711,20.469L55.122,20.469C56.358,20.469 57.359,19.467 57.359,18.232L57.359,15.821ZM58.936,23.326C59.643,23.326 60.216,22.753 60.216,22.046C60.216,21.339 59.643,20.766 58.936,20.766C58.229,20.766 57.656,21.339 57.656,22.046C57.656,22.753 58.229,23.326 58.936,23.326Z" style="fill:white;"/>
            </g>
        </g>
    </g>
</svg>
