<?xml version="1.0" encoding="UTF-8" standalone="no"?>
<!DOCTYPE svg PUBLIC "-//W3C//DTD SVG 1.1//EN" "http://www.w3.org/Graphics/SVG/1.1/DTD/svg11.dtd">
<svg width="100%" height="100%" viewBox="0 0 100 60" version="1.1" xmlns="http://www.w3.org/2000/svg" xmlns:xlink="http://www.w3.org/1999/xlink" xml:space="preserve" xmlns:serif="http://www.serif.com/" style="fill-rule:evenodd;clip-rule:evenodd;">
    <g transform="matrix(1,0,0,1,-701,-372)">
        <g id="Neo-Geo" serif:id="Neo Geo" transform="matrix(1,0,0,0.6,701,372)">
            <rect x="0" y="0" width="100" height="100" style="fill:none;"/>
            <g transform="matrix(1,0,0,1.66667,13,10.8333)">
                <g id="MD_GENRE-INFO">
                    <g id="NEO-GEO-CONTROLLER---ICON">
                        <path id="Rectangle" d="M72.5,4.5C72.5,2.844 71.156,1.5 69.5,1.5L4.5,1.5C2.844,1.5 1.5,2.844 1.5,4.5L1.5,42.5C1.5,44.156 2.844,45.5 4.5,45.5L69.5,45.5C71.156,45.5 72.5,44.156 72.5,42.5L72.5,4.5Z" style="fill:none;stroke:white;stroke-width:3px;"/>
                        <g id="Rectangle1" serif:id="Rectangle" transform="matrix(0.965926,0.258819,-0.258819,0.965926,4.73088,-7.93458)">
                            <path d="M34,14.5C34,14.224 33.776,14 33.5,14L31.5,14C31.224,14 31,14.224 31,14.5C31,14.776 31.224,15 31.5,15L33.5,15C33.776,15 34,14.776 34,14.5Z" style="fill:none;stroke:white;stroke-width:2px;"/>
                        </g>
                        <g id="Rectangle2" serif:id="Rectangle" transform="matrix(-0.965926,0.258819,0.258819,0.965926,77.9625,-10.264)">
                            <path d="M43,14.5C43,14.224 42.776,14 42.5,14L40.5,14C40.224,14 40,14.224 40,14.5C40,14.776 40.224,15 40.5,15L42.5,15C42.776,15 43,14.776 43,14.5Z" style="fill:none;stroke:white;stroke-width:2px;"/>
                        </g>
                        <circle id="Oval" cx="62.5" cy="14.5" r="3.5" style="fill:none;stroke:white;stroke-width:2px;"/>
                        <circle id="Oval1" serif:id="Oval" cx="53.5" cy="18.5" r="3.5" style="fill:none;stroke:white;stroke-width:2px;"/>
                        <circle id="Oval2" serif:id="Oval" cx="46.5" cy="25.5" r="3.5" style="fill:none;stroke:white;stroke-width:2px;"/>
                        <circle id="Oval3" serif:id="Oval" cx="42.5" cy="34.5" r="3.5" style="fill:none;stroke:white;stroke-width:2px;"/>
                        <circle id="Oval4" serif:id="Oval" cx="18.5" cy="25.5" r="3.5" style="fill:none;stroke:white;stroke-width:2px;"/>
                        <circle id="Oval5" serif:id="Oval" cx="20" cy="24" r="8" style="fill:none;stroke:white;stroke-width:2px;"/>
                        <g id="Path" transform="matrix(1,0,0,-1,0,14)">
                            <path d="M2,11L37,3L72,11" style="fill:none;stroke:white;stroke-width:2px;"/>
                        </g>
                    </g>
                </g>
            </g>
        </g>
    </g>
</svg>
