<?xml version="1.0" encoding="UTF-8" standalone="no"?>
<!DOCTYPE svg PUBLIC "-//W3C//DTD SVG 1.1//EN" "http://www.w3.org/Graphics/SVG/1.1/DTD/svg11.dtd">
<svg width="100%" height="100%" viewBox="0 0 101 60" version="1.1" xmlns="http://www.w3.org/2000/svg" xmlns:xlink="http://www.w3.org/1999/xlink" xml:space="preserve" xmlns:serif="http://www.serif.com/" style="fill-rule:evenodd;clip-rule:evenodd;stroke-linejoin:round;stroke-miterlimit:2;">
    <g transform="matrix(1,0,0,1,-280,-744)">
        <g id="Wii-U" serif:id="Wii U" transform="matrix(1,0,0,0.6,280.4,744)">
            <rect x="0" y="0" width="100" height="100" style="fill:none;"/>
            <g id="Union" transform="matrix(1,0,0,1.66667,-27.5,4.15258)">
                <path d="M39.5,20.017C41.985,20.017 44,18.002 44,15.517C44,13.032 41.985,11.017 39.5,11.017C37.015,11.017 35,13.032 35,15.517C35,18.002 37.015,20.017 39.5,20.017ZM42,15.517C42,16.898 40.881,18.017 39.5,18.017C38.119,18.017 37,16.898 37,15.517C37,14.136 38.119,13.017 39.5,13.017C40.881,13.017 42,14.136 42,15.517Z" style="fill:white;"/>
                <path d="M115.5,20.017C117.985,20.017 120,18.002 120,15.517C120,13.032 117.985,11.017 115.5,11.017C113.015,11.017 111,13.032 111,15.517C111,18.002 113.015,20.017 115.5,20.017ZM118,15.517C118,16.898 116.881,18.017 115.5,18.017C114.119,18.017 113,16.898 113,15.517C113,14.136 114.119,13.017 115.5,13.017C116.881,13.017 118,14.136 118,15.517Z" style="fill:white;"/>
                <path d="M111.822,25.633C112.801,25.633 113.594,24.84 113.594,23.862C113.594,22.883 112.801,22.09 111.822,22.09C110.844,22.09 110.051,22.883 110.051,23.862C110.051,24.84 110.844,25.633 111.822,25.633Z" style="fill:white;fill-rule:nonzero;"/>
                <path d="M110.05,27.405C110.05,28.384 109.257,29.177 108.279,29.177C107.3,29.177 106.507,28.384 106.507,27.405C106.507,26.427 107.3,25.633 108.279,25.633C109.257,25.633 110.05,26.427 110.05,27.405Z" style="fill:white;fill-rule:nonzero;"/>
                <path d="M115.366,29.177C116.344,29.177 117.138,28.384 117.138,27.405C117.138,26.427 116.344,25.633 115.366,25.633C114.387,25.633 113.594,26.427 113.594,27.405C113.594,28.384 114.387,29.177 115.366,29.177Z" style="fill:white;fill-rule:nonzero;"/>
                <path d="M113.594,30.949C113.594,31.927 112.801,32.72 111.822,32.72C110.844,32.72 110.051,31.927 110.051,30.949C110.051,29.97 110.844,29.177 111.822,29.177C112.801,29.177 113.594,29.97 113.594,30.949Z" style="fill:white;fill-rule:nonzero;"/>
                <path d="M41.792,23.962C41.792,23.536 42.138,23.191 42.564,23.191L43.552,23.191C43.978,23.191 44.323,23.536 44.323,23.962L44.323,26.354L46.717,26.354C47.143,26.354 47.488,26.7 47.488,27.126L47.488,28.114C47.488,28.54 47.143,28.885 46.717,28.885L44.323,28.885L44.323,31.278C44.323,31.704 43.978,32.049 43.552,32.049L42.564,32.049C42.138,32.049 41.792,31.704 41.792,31.278L41.792,28.885L39.401,28.885C38.975,28.885 38.629,28.54 38.629,28.114L38.629,27.126C38.629,26.7 38.975,26.354 39.401,26.354L41.792,26.354L41.792,23.962Z" style="fill:white;fill-rule:nonzero;"/>
                <path d="M51,13.017L103,13.017L103,43.017L51,43.017L51,13.017ZM53,15.017L101,15.017L101,41.017L53,41.017L53,15.017Z" style="fill:white;"/>
                <path d="M77,7.017C77.552,7.017 78,7.465 78,8.017C78,8.569 77.552,9.017 77,9.017C76.448,9.017 76,8.569 76,8.017C76,7.465 76.448,7.017 77,7.017Z" style="fill:white;fill-rule:nonzero;"/>
                <path d="M63,6.017C61.895,6.017 61,6.912 61,8.017C61,9.121 61.895,10.017 63,10.017L91,10.017C92.105,10.017 93,9.121 93,8.017C93,6.912 92.105,6.017 91,6.017L63,6.017ZM91,7.017L63,7.017C62.448,7.017 62,7.465 62,8.017C62,8.569 62.448,9.017 63,9.017L91,9.017C91.552,9.017 92,8.569 92,8.017C92,7.465 91.552,7.017 91,7.017Z" style="fill:white;"/>
                <path d="M77,49.017C78.105,49.017 79,48.122 79,47.017C79,45.912 78.105,45.017 77,45.017C75.895,45.017 75,45.912 75,47.017C75,48.122 75.895,49.017 77,49.017ZM77,48.017C77.552,48.017 78,47.569 78,47.017C78,46.465 77.552,46.017 77,46.017C76.448,46.017 76,46.465 76,47.017C76,47.569 76.448,48.017 77,48.017Z" style="fill:white;"/>
                <path d="M103,47.517C103,48.345 102.328,49.017 101.5,49.017C100.672,49.017 100,48.345 100,47.517C100,46.689 100.672,46.017 101.5,46.017C102.328,46.017 103,46.689 103,47.517ZM102,47.517C102,47.793 101.776,48.017 101.5,48.017C101.224,48.017 101,47.793 101,47.517C101,47.241 101.224,47.017 101.5,47.017C101.776,47.017 102,47.241 102,47.517Z" style="fill:white;"/>
                <path d="M107.5,42.017C108.328,42.017 109,41.345 109,40.517C109,39.689 108.328,39.017 107.5,39.017C106.672,39.017 106,39.689 106,40.517C106,41.345 106.672,42.017 107.5,42.017ZM107.5,41.017C107.776,41.017 108,40.793 108,40.517C108,40.241 107.776,40.017 107.5,40.017C107.224,40.017 107,40.241 107,40.517C107,40.793 107.224,41.017 107.5,41.017Z" style="fill:white;"/>
                <path d="M109,36.517C109,37.345 108.328,38.017 107.5,38.017C106.672,38.017 106,37.345 106,36.517C106,35.689 106.672,35.017 107.5,35.017C108.328,35.017 109,35.689 109,36.517ZM108,36.517C108,36.793 107.776,37.017 107.5,37.017C107.224,37.017 107,36.793 107,36.517C107,36.241 107.224,36.017 107.5,36.017C107.776,36.017 108,36.241 108,36.517Z" style="fill:white;"/>
                <path d="M97.5,49.017C98.328,49.017 99,48.345 99,47.517C99,46.689 98.328,46.017 97.5,46.017C96.672,46.017 96,46.689 96,47.517C96,48.345 96.672,49.017 97.5,49.017ZM97.5,48.017C97.776,48.017 98,47.793 98,47.517C98,47.241 97.776,47.017 97.5,47.017C97.224,47.017 97,47.241 97,47.517C97,47.793 97.224,48.017 97.5,48.017Z" style="fill:white;"/>
                <path d="M41,37.017C41,36.465 41.448,36.017 42,36.017L45,36.017C45.552,36.017 46,36.465 46,37.017L46,39.017C46,39.569 45.552,40.017 45,40.017L42,40.017C41.448,40.017 41,39.569 41,39.017L41,37.017ZM42,37.017L45,37.017L45,39.017L42,39.017L42,37.017Z" style="fill:white;"/>
                <path d="M44.89,1.03C41.926,0.848 38.969,1.499 36.343,2.91C33.718,4.321 31.527,6.438 30.011,9.027L30.961,9.597C29.713,11.785 29,14.318 29,17.017L29,39.017C29,47.301 35.716,54.017 44,54.017L111,54.017C119.284,54.017 126,47.301 126,39.017L126,17.017C126,14.298 125.276,11.747 124.011,9.548L124.879,9.027C123.363,6.438 121.171,4.321 118.546,2.91C115.921,1.499 112.964,0.848 110,1.03L110.06,2.017L44.829,2.017L44.89,1.03ZM111,5.017L44,5.017C37.373,5.017 32,10.39 32,17.017L32,39.017C32,45.644 37.373,51.017 44,51.017L111,51.017C117.627,51.017 123,45.644 123,39.017L123,17.017C123,10.39 117.627,5.017 111,5.017Z" style="fill:white;"/>
            </g>
        </g>
    </g>
</svg>
