<?xml version="1.0" encoding="UTF-8" standalone="no"?>
<!DOCTYPE svg PUBLIC "-//W3C//DTD SVG 1.1//EN" "http://www.w3.org/Graphics/SVG/1.1/DTD/svg11.dtd">
<svg width="100%" height="100%" viewBox="0 0 100 60" version="1.1" xmlns="http://www.w3.org/2000/svg" xmlns:xlink="http://www.w3.org/1999/xlink" xml:space="preserve" xmlns:serif="http://www.serif.com/" style="fill-rule:evenodd;clip-rule:evenodd;stroke-linejoin:round;stroke-miterlimit:2;">
    <g transform="matrix(1,0,0,1,-701,-496)">
        <g id="SG-1000" transform="matrix(1,0,0,0.6,701,496)">
            <rect x="0" y="0" width="100" height="100" style="fill:none;"/>
            <g id="Group-350" serif:id="Group 350" transform="matrix(1,0,0,1.66667,-27.0611,23.3333)">
                <path id="Rectangle--Stroke-_4" serif:id="Rectangle (Stroke)_4" d="M59.117,11C59.117,10.448 59.565,10 60.117,10C60.67,10 61.117,10.448 61.117,11L61.117,13C61.117,13.552 60.67,14 60.117,14C59.565,14 59.117,13.552 59.117,13L59.117,11Z" style="fill:white;"/>
                <path id="Rectangle--Stroke-_5" serif:id="Rectangle (Stroke)_5" d="M59.117,19C59.117,18.448 59.565,18 60.117,18C60.67,18 61.117,18.448 61.117,19L61.117,21C61.117,21.552 60.67,22 60.117,22C59.565,22 59.117,21.552 59.117,21L59.117,19Z" style="fill:white;"/>
                <path id="Rectangle--Stroke-_6" serif:id="Rectangle (Stroke)_6" d="M55.117,17C54.565,17 54.117,16.552 54.117,16C54.117,15.448 54.565,15 55.117,15L57.117,15C57.67,15 58.117,15.448 58.117,16C58.117,16.552 57.67,17 57.117,17L55.117,17Z" style="fill:white;"/>
                <path id="Rectangle--Stroke-_7" serif:id="Rectangle (Stroke)_7" d="M63.117,17C62.565,17 62.117,16.552 62.117,16C62.117,15.448 62.565,15 63.117,15L65.117,15C65.67,15 66.117,15.448 66.117,16C66.117,16.552 65.67,17 65.117,17L63.117,17Z" style="fill:white;"/>
                <path id="Rectangle--Stroke-_8" serif:id="Rectangle (Stroke)_8" d="M103.172,4L50.95,4C48.189,4 45.95,6.239 45.95,9L45.95,23C45.95,25.761 48.189,28 50.95,28L103.172,28C105.934,28 108.172,25.761 108.172,23L108.172,9C108.172,6.239 105.934,4 103.172,4ZM50.95,2C47.084,2 43.95,5.134 43.95,9L43.95,23C43.95,26.866 47.084,30 50.95,30L103.172,30C107.038,30 110.172,26.866 110.172,23L110.172,9C110.172,5.134 107.038,2 103.172,2L50.95,2Z" style="fill:white;"/>
                <path id="Rectangle-325--Stroke-" serif:id="Rectangle 325 (Stroke)" d="M90.14,21L90.14,18C90.14,17.172 89.468,16.5 88.64,16.5C87.811,16.5 87.14,17.172 87.14,18L87.14,21C87.14,21.828 87.811,22.5 88.64,22.5C89.468,22.5 90.14,21.828 90.14,21ZM88.64,14.5C86.707,14.5 85.14,16.067 85.14,18L85.14,21C85.14,22.933 86.707,24.5 88.64,24.5C90.573,24.5 92.14,22.933 92.14,21L92.14,18C92.14,16.067 90.573,14.5 88.64,14.5Z" style="fill:white;"/>
                <path id="Rectangle-326--Stroke-" serif:id="Rectangle 326 (Stroke)" d="M100.506,21L100.506,18C100.506,17.172 99.834,16.5 99.006,16.5C98.177,16.5 97.506,17.172 97.506,18L97.506,21C97.506,21.828 98.177,22.5 99.006,22.5C99.834,22.5 100.506,21.828 100.506,21ZM99.006,14.5C97.073,14.5 95.506,16.067 95.506,18L95.506,21C95.506,22.933 97.073,24.5 99.006,24.5C100.939,24.5 102.506,22.933 102.506,21L102.506,18C102.506,16.067 100.939,14.5 99.006,14.5Z" style="fill:white;"/>
                <path id="Rectangle--Stroke-_9" serif:id="Rectangle (Stroke)_9" d="M53.617,16C53.617,19.59 56.527,22.5 60.117,22.5C63.707,22.5 66.617,19.59 66.617,16C66.617,12.41 63.707,9.5 60.117,9.5C56.527,9.5 53.617,12.41 53.617,16ZM60.117,7.5C55.423,7.5 51.617,11.306 51.617,16C51.617,20.694 55.423,24.5 60.117,24.5C64.812,24.5 68.617,20.694 68.617,16C68.617,11.306 64.812,7.5 60.117,7.5Z" style="fill:white;"/>
                <path id="Rectangle-327--Stroke-" serif:id="Rectangle 327 (Stroke)" d="M102.907,8.205L84.325,8.205L84.325,10.969L102.907,10.969L102.907,8.205ZM83.325,7.205L83.325,11.969L103.907,11.969L103.907,7.205L83.325,7.205Z" style="fill:white;"/>
                <path id="Ellipse-214" serif:id="Ellipse 214" d="M61.117,16C61.117,16.552 60.67,17 60.117,17C59.565,17 59.117,16.552 59.117,16C59.117,15.448 59.565,15 60.117,15C60.67,15 61.117,15.448 61.117,16Z" style="fill:white;fill-rule:nonzero;"/>
            </g>
        </g>
    </g>
</svg>
