<?xml version="1.0" encoding="UTF-8" standalone="no"?>
<!DOCTYPE svg PUBLIC "-//W3C//DTD SVG 1.1//EN" "http://www.w3.org/Graphics/SVG/1.1/DTD/svg11.dtd">
<svg width="100%" height="100%" viewBox="0 0 101 60" version="1.1" xmlns="http://www.w3.org/2000/svg" xmlns:xlink="http://www.w3.org/1999/xlink" xml:space="preserve" xmlns:serif="http://www.serif.com/" style="fill-rule:evenodd;clip-rule:evenodd;">
    <g transform="matrix(1,0,0,1,-560,-124)">
        <g id="Genesis" transform="matrix(1,0,0,0.6,560.8,124)">
            <rect x="0" y="0" width="100" height="100" style="fill:none;"/>
            <g id="Group-20" transform="matrix(1,0,0,1.66667,19.3342,19.885)">
                <path id="Path" d="M16.875,16.15L14.3,16.15L14.3,13.575C14.3,12.705 13.595,12 12.725,12C11.855,12 11.15,12.705 11.15,13.575L11.15,16.15L8.575,16.15C7.705,16.15 7,16.855 7,17.725C7,18.595 7.705,19.3 8.575,19.3L11.15,19.3L11.15,21.875C11.15,22.745 11.855,23.45 12.725,23.45C13.595,23.45 14.3,22.745 14.3,21.875L14.3,19.3L16.875,19.3C17.745,19.3 18.45,18.595 18.45,17.725C18.45,16.855 17.745,16.15 16.875,16.15Z" style="fill:white;fill-rule:nonzero;"/>
                <circle id="Oval" cx="38.5" cy="19.5" r="2.5" style="fill:none;stroke:white;stroke-width:2px;"/>
                <circle id="Oval1" serif:id="Oval" cx="13" cy="18" r="8" style="fill:none;stroke:white;stroke-width:2px;"/>
                <circle id="Oval2" serif:id="Oval" cx="45.5" cy="16.5" r="2.5" style="fill:none;stroke:white;stroke-width:2px;"/>
                <circle id="Oval3" serif:id="Oval" cx="52.5" cy="13.5" r="2.5" style="fill:none;stroke:white;stroke-width:2px;"/>
                <path id="Path1" serif:id="Path" d="M44.933,7.251L44.902,7.253L44.854,7.257L44.823,7.26L44.791,7.263L44.741,7.271L44.709,7.276L44.682,7.281L44.654,7.287L44.632,7.292L44.601,7.3L44.571,7.308L44.548,7.314L44.52,7.322L44.492,7.331L44.463,7.341L44.441,7.349L44.413,7.359L44.386,7.37L44.365,7.379L39.245,9.564L39.22,9.575L39.193,9.587L39.167,9.6L39.146,9.61L39.118,9.625L39.098,9.635L39.064,9.654L39.001,9.693L38.973,9.712L38.948,9.729L38.929,9.742L38.904,9.761L38.885,9.775L38.859,9.795L38.836,9.815L38.819,9.829L38.794,9.851L38.776,9.868L38.753,9.889L38.736,9.906L38.718,9.924L38.694,9.949L38.673,9.972L38.652,9.995L38.62,10.033L38.604,10.053L38.583,10.081L38.551,10.123L38.526,10.159L38.464,10.259L38.446,10.292L38.432,10.32L38.409,10.367L38.398,10.39L38.385,10.418L38.374,10.446L38.363,10.473L38.353,10.5L38.342,10.528L38.335,10.549L38.325,10.578L38.315,10.614L38.296,10.683L38.289,10.716L38.283,10.742L38.277,10.771L38.272,10.801L38.268,10.83L38.261,10.879L38.257,10.913L38.255,10.944L38.251,11.005L38.251,11.127L38.254,11.188L38.257,11.227L38.266,11.299L38.273,11.343L38.291,11.435L38.3,11.472L38.308,11.503L38.322,11.551L38.332,11.582L38.339,11.602L38.349,11.632L38.364,11.67L38.402,11.759L38.428,11.813L38.439,11.835L38.455,11.863L38.47,11.89L38.485,11.915L38.499,11.939L38.514,11.962L38.529,11.985L38.549,12.014L38.593,12.073L38.612,12.097L38.631,12.12L38.651,12.144L38.666,12.161L38.686,12.183L38.71,12.208L38.745,12.243L38.768,12.265L38.784,12.28L38.81,12.304L38.83,12.321L38.851,12.338L38.87,12.353L38.897,12.374L38.917,12.389L38.942,12.407L38.967,12.425L38.996,12.444L39.055,12.48L39.086,12.498L39.108,12.51L39.134,12.524L39.156,12.536L39.194,12.554L39.281,12.592L39.317,12.605L39.343,12.615L39.369,12.624L39.4,12.634L39.449,12.648L39.48,12.656L39.516,12.665L39.607,12.684L39.643,12.69L39.671,12.694L39.704,12.698L39.754,12.702L39.778,12.704L39.812,12.706L39.853,12.708L39.943,12.707L39.985,12.705L40.037,12.701L40.075,12.697L40.155,12.686L40.259,12.666L40.338,12.645L40.375,12.634L40.425,12.617L40.475,12.599L40.506,12.587L40.526,12.578L45.644,10.394L45.668,10.384L45.691,10.373L45.719,10.36L45.747,10.346L45.768,10.335L45.796,10.32L45.818,10.307L45.84,10.294L45.868,10.277L45.896,10.259L45.938,10.231L45.963,10.213L45.988,10.195L46.028,10.164L46.053,10.143L46.07,10.129L46.094,10.108L46.123,10.081L46.192,10.013L46.236,9.964L46.287,9.903L46.321,9.858L46.336,9.837L46.354,9.811L46.371,9.786L46.387,9.76L46.4,9.739L46.415,9.715L46.427,9.694L46.443,9.665L46.455,9.642L46.469,9.614L46.48,9.591L46.494,9.561L46.515,9.514L46.526,9.486L46.536,9.459L46.546,9.432L46.555,9.405L46.564,9.378L46.572,9.352L46.58,9.325L46.587,9.298L46.594,9.268L46.601,9.238L46.611,9.19L46.616,9.159L46.622,9.127L46.628,9.077L46.631,9.052L46.634,9.021L46.636,8.99L46.637,8.967L46.638,8.936L46.639,8.912L46.639,8.897L46.639,8.882L46.639,8.857L46.638,8.842L46.638,8.827L46.637,8.812L46.637,8.797L46.635,8.765L46.632,8.732L46.626,8.684L46.622,8.652L46.618,8.623L46.613,8.597L46.608,8.57L46.602,8.541L46.596,8.513L46.589,8.486L46.582,8.457L46.575,8.434L46.567,8.406L46.558,8.378L46.548,8.349L46.54,8.327L46.526,8.29L46.488,8.199L46.461,8.145L46.447,8.117L46.433,8.092L46.419,8.067L46.404,8.043L46.393,8.024L46.375,7.996L46.358,7.971L46.346,7.953L46.327,7.926L46.311,7.905L46.294,7.882L46.276,7.859L46.257,7.836L46.242,7.819L46.222,7.795L46.201,7.773L46.177,7.748L46.126,7.697L46.1,7.673L46.083,7.658L46.059,7.638L46.042,7.623L46.016,7.602L45.99,7.582L45.972,7.569L45.947,7.551L45.92,7.532L45.88,7.505L45.852,7.488L45.831,7.476L45.808,7.462L45.78,7.447L45.754,7.433L45.725,7.419L45.677,7.396L45.628,7.374L45.597,7.362L45.568,7.351L45.522,7.335L45.497,7.327L45.466,7.317L45.431,7.307L45.359,7.289L45.304,7.278L45.273,7.273L45.243,7.268L45.221,7.265L45.189,7.261L45.166,7.258L45.134,7.255L45.103,7.253L45.081,7.252L45.043,7.25L44.933,7.251Z" style="fill:white;stroke:white;stroke-width:1.5px;stroke-linecap:round;stroke-linejoin:round;"/>
                <path id="Path2" serif:id="Path" d="M31.338,-1.246L30.673,-1.25L30.008,-1.246L29.347,-1.235L28.691,-1.216L28.038,-1.189L27.391,-1.155L26.747,-1.114L26.109,-1.066L25.475,-1.01L24.846,-0.947L24.222,-0.878L23.603,-0.801L22.989,-0.718L22.381,-0.627L21.778,-0.531L21.18,-0.427L20.588,-0.317L20.002,-0.201L19.421,-0.078L18.846,0.05L18.277,0.185L17.715,0.327L17.158,0.474L16.608,0.627L16.064,0.786L15.526,0.95L14.996,1.121L14.471,1.297L13.954,1.478L13.443,1.665L12.94,1.858L12.443,2.056L11.954,2.259L11.472,2.467L10.997,2.68L10.53,2.898L10.071,3.121L9.619,3.348L9.175,3.581L8.74,3.817L8.312,4.058L7.892,4.304L7.481,4.553L7.078,4.806L6.683,5.063L6.298,5.324L5.92,5.59L5.547,5.862L5.187,6.133L4.837,6.409L4.495,6.688L4.163,6.97L3.839,7.256L3.526,7.544L3.222,7.835L2.927,8.13L2.642,8.427L2.503,8.577L2.367,8.728L2.102,9.03L1.973,9.183L1.847,9.336L1.602,9.644L1.368,9.954L1.255,10.111L1.037,10.425L0.829,10.742L0.633,11.06L0.538,11.221L0.359,11.541L0.273,11.703L0.11,12.025L0.033,12.187L-0.114,12.51L-0.25,12.835L-0.315,12.996L-0.436,13.321L-0.547,13.646L-0.649,13.97L-0.742,14.294L-0.825,14.618L-0.901,14.941L-0.967,15.263L-1.026,15.585L-1.077,15.904L-1.121,16.224L-1.158,16.541L-1.188,16.857L-1.212,17.166L-1.229,17.479L-1.236,17.641L-1.246,17.945L-1.25,18.254L-1.249,18.56L-1.244,18.865L-1.234,19.167L-1.221,19.467L-1.204,19.765L-1.183,20.059L-1.134,20.642L-1.105,20.93L-1.042,21.493L-1.005,21.781L-0.967,22.061L-0.926,22.342L-0.836,22.899L-0.786,23.177L-0.733,23.453L-0.677,23.728L-0.618,24.003L-0.555,24.276L-0.489,24.549L-0.418,24.821L-0.344,25.092L-0.266,25.362L-0.185,25.631L-0.098,25.9L-0.008,26.168L0.086,26.435L0.186,26.701L0.289,26.966L0.397,27.23L0.511,27.494L0.628,27.756L0.751,28.019L0.879,28.279L1.011,28.539L1.15,28.799L1.293,29.058L1.441,29.315L1.595,29.571L1.755,29.828L1.919,30.082L2.088,30.335L2.262,30.585L2.44,30.834L2.623,31.081L2.808,31.325L2.998,31.567L3.192,31.806L3.389,32.043L3.589,32.276L3.792,32.507L3.998,32.734L4.206,32.958L4.417,33.178L4.63,33.394L4.845,33.607L5.062,33.815L5.281,34.019L5.501,34.219L5.724,34.414L5.946,34.603L6.17,34.788L6.396,34.968L6.622,35.143L6.848,35.311L7.08,35.477L7.422,35.711L7.651,35.859L7.994,36.069L8.221,36.2L8.564,36.384L8.905,36.552L9.131,36.654L9.354,36.749L9.579,36.838L9.909,36.957L10.238,37.062L10.448,37.121L10.67,37.177L10.991,37.247L11.306,37.302L11.512,37.331L11.717,37.354L12.011,37.377L12.314,37.388L12.513,37.387L12.704,37.381L12.989,37.361L13.255,37.331L13.446,37.301L13.622,37.269L13.882,37.209L14.052,37.163L14.299,37.085L14.459,37.027L14.696,36.929L14.924,36.82L15.105,36.722L15.31,36.598L15.574,36.413L15.784,36.244L15.958,36.087L16.123,35.924L16.276,35.756L16.422,35.583L16.603,35.349L16.814,35.045L16.89,34.927L17.045,34.676L17.194,34.421L17.336,34.166L18.073,32.782L18.23,32.498L18.477,32.07L18.565,31.925L18.746,31.638L18.936,31.353L19.138,31.071L19.346,30.799L19.63,30.459L19.934,30.131L20.194,29.878L20.399,29.694L20.614,29.514L20.839,29.341L21.075,29.174L21.322,29.013L21.495,28.908L21.764,28.758L21.952,28.66L22.147,28.565L22.35,28.472L22.667,28.339L23.001,28.211L23.234,28.13L23.598,28.014L23.981,27.904L24.247,27.835L24.662,27.737L25.103,27.646L25.405,27.59L25.716,27.538L26.037,27.489L26.367,27.444L26.707,27.403L27.057,27.365L27.417,27.331L27.787,27.301L28.168,27.274L28.558,27.252L28.959,27.234L29.371,27.219L29.794,27.209L30.227,27.203L30.671,27.201L31.116,27.203L31.55,27.209L31.973,27.22L32.386,27.234L32.787,27.253L33.179,27.275L33.559,27.302L33.93,27.332L34.291,27.366L34.641,27.405L34.982,27.446L35.313,27.492L35.634,27.541L35.946,27.594L36.249,27.65L36.679,27.74L37.095,27.838L37.363,27.907L37.745,28.017L38.111,28.135L38.568,28.301L38.891,28.433L39.098,28.525L39.296,28.619L39.581,28.765L39.85,28.917L40.107,29.075L40.35,29.239L40.581,29.408L40.803,29.584L41.013,29.765L41.149,29.888L41.345,30.078L41.532,30.272L41.652,30.403L41.886,30.676L42.099,30.945L42.207,31.088L42.406,31.369L42.595,31.653L42.774,31.938L42.945,32.224L43.111,32.514L43.267,32.798L43.984,34.145L44.204,34.537L44.354,34.787L44.509,35.032L44.594,35.158L44.763,35.396L44.899,35.571L45.093,35.799L45.249,35.965L45.358,36.073L45.529,36.229L45.748,36.406L45.874,36.498L46.076,36.632L46.254,36.738L46.395,36.814L46.701,36.958L46.85,37.019L47.002,37.075L47.177,37.133L47.344,37.182L47.591,37.243L47.778,37.282L47.947,37.311L48.138,37.339L48.324,37.359L48.607,37.38L48.897,37.388L49.193,37.383L49.495,37.365L49.802,37.334L49.905,37.32L50.219,37.27L50.537,37.206L50.645,37.181L50.852,37.129L51.076,37.067L51.288,37.001L51.517,36.924L51.739,36.843L51.962,36.755L52.187,36.66L52.526,36.504L52.753,36.391L52.982,36.27L53.212,36.142L53.556,35.938L53.899,35.718L54.242,35.484L54.469,35.321L54.693,35.155L54.92,34.981L55.145,34.801L55.37,34.616L55.594,34.426L55.816,34.231L56.037,34.032L56.256,33.827L56.474,33.619L56.689,33.407L56.902,33.191L57.113,32.971L57.322,32.747L57.731,32.29L57.931,32.056L58.128,31.82L58.322,31.581L58.512,31.339L58.698,31.096L58.88,30.849L59.058,30.601L59.232,30.351L59.401,30.099L59.566,29.845L59.725,29.59L59.879,29.333L60.028,29.076L60.172,28.817L60.31,28.558L60.443,28.298L60.571,28.037L60.694,27.775L60.813,27.513L60.926,27.249L61.035,26.985L61.139,26.719L61.238,26.453L61.333,26.186L61.424,25.918L61.51,25.649L61.593,25.38L61.671,25.109L61.745,24.838L61.816,24.565L61.883,24.293L61.946,24.018L62.006,23.744L62.062,23.467L62.115,23.191L62.212,22.635L62.256,22.355L62.335,21.792L62.371,21.509L62.435,20.946L62.49,20.365L62.534,19.779L62.551,19.482L62.565,19.184L62.575,18.882L62.58,18.579L62.581,18.274L62.577,17.966L62.568,17.657L62.544,17.183L62.506,16.712L62.473,16.395L62.454,16.237L62.386,15.758L62.332,15.438L62.269,15.117L62.199,14.794L62.12,14.471L62.032,14.148L61.936,13.824L61.829,13.499L61.714,13.175L61.588,12.85L61.452,12.526L61.306,12.203L61.149,11.879L60.981,11.557L60.893,11.397L60.708,11.076L60.512,10.757L60.304,10.439L60.086,10.124L59.857,9.811L59.739,9.657L59.494,9.348L59.239,9.041L58.974,8.738L58.699,8.438L58.414,8.14L58.12,7.845L57.815,7.553L57.501,7.264L57.178,6.978L56.845,6.696L56.676,6.556L56.33,6.278L55.974,6.004L55.61,5.733L55.424,5.599L55.052,5.337L54.666,5.075L54.271,4.817L53.868,4.563L53.456,4.314L53.037,4.068L52.609,3.827L52.173,3.59L51.729,3.357L51.277,3.129L50.818,2.906L50.351,2.688L49.876,2.474L49.394,2.266L48.905,2.062L48.408,1.864L47.904,1.671L47.393,1.484L46.876,1.302L46.352,1.126L45.821,0.955L45.283,0.79L44.739,0.631L44.189,0.478L43.632,0.331L43.069,0.189L42.5,0.054L41.926,-0.075L41.345,-0.198L40.758,-0.314L40.166,-0.425L39.568,-0.528L38.965,-0.625L38.357,-0.715L37.743,-0.799L37.124,-0.876L36.5,-0.946L35.871,-1.009L35.237,-1.064L34.598,-1.113L33.955,-1.155L33.307,-1.189L32.655,-1.215L31.999,-1.234L31.338,-1.246ZM30.666,1.249L31.309,1.254L31.941,1.265L32.568,1.283L33.191,1.309L33.81,1.341L34.424,1.381L35.033,1.427L35.637,1.48L36.237,1.54L36.831,1.607L37.421,1.68L38.005,1.76L38.584,1.845L39.157,1.938L39.725,2.036L40.287,2.141L40.843,2.251L41.394,2.368L41.938,2.49L42.476,2.618L43.008,2.751L43.534,2.891L44.053,3.035L44.566,3.185L45.072,3.341L45.571,3.501L46.064,3.667L46.549,3.837L47.028,4.013L47.499,4.193L47.962,4.378L48.419,4.568L48.868,4.762L49.309,4.96L49.743,5.163L50.169,5.37L50.587,5.581L50.996,5.796L51.398,6.014L51.792,6.236L52.177,6.461L52.554,6.69L52.922,6.922L53.281,7.157L53.632,7.395L54.137,7.753L54.465,7.997L54.785,8.243L55.095,8.492L55.395,8.742L55.686,8.994L55.967,9.248L56.238,9.503L56.5,9.759L56.752,10.017L56.994,10.276L57.111,10.406L57.338,10.665L57.555,10.925L57.761,11.186L57.957,11.446L58.143,11.706L58.318,11.967L58.482,12.226L58.561,12.356L58.71,12.615L58.85,12.875L58.981,13.135L59.103,13.395L59.217,13.656L59.322,13.917L59.418,14.178L59.508,14.44L59.628,14.834L59.699,15.096L59.763,15.359L59.821,15.623L59.872,15.887L59.917,16.151L59.975,16.556L60.004,16.815L60.04,17.214L60.058,17.481L60.07,17.753L60.078,18.02L60.082,18.287L60.081,18.553L60.076,18.82L60.067,19.087L60.039,19.62L59.999,20.152L59.975,20.417L59.949,20.682L59.889,21.212L59.821,21.725L59.744,22.234L59.657,22.736L59.609,22.983L59.559,23.229L59.506,23.473L59.45,23.716L59.391,23.956L59.329,24.195L59.264,24.432L59.125,24.903L59.05,25.136L58.971,25.367L58.889,25.598L58.803,25.827L58.714,26.055L58.621,26.282L58.524,26.507L58.423,26.732L58.317,26.956L58.208,27.179L58.094,27.401L57.976,27.623L57.853,27.844L57.725,28.064L57.593,28.284L57.456,28.504L57.313,28.724L57.166,28.942L57.015,29.16L56.859,29.378L56.699,29.594L56.535,29.809L56.367,30.023L56.022,30.443L55.844,30.65L55.664,30.854L55.482,31.055L55.297,31.253L55.11,31.448L54.921,31.639L54.731,31.827L54.539,32.01L54.347,32.19L54.153,32.364L53.959,32.534L53.765,32.699L53.571,32.859L53.377,33.014L53.183,33.162L52.9,33.371L52.709,33.505L52.334,33.753L52.149,33.867L51.967,33.974L51.7,34.121L51.438,34.253L51.182,34.371L51.014,34.442L50.85,34.507L50.527,34.62L50.294,34.69L50.057,34.751L49.918,34.782L49.701,34.823L49.423,34.861L49.223,34.878L49.032,34.887L48.847,34.887L48.727,34.883L48.447,34.858L48.343,34.843L48.19,34.815L47.915,34.744L47.74,34.683L47.527,34.585L47.388,34.504L47.23,34.392L47.134,34.31L47.003,34.183L46.897,34.064L46.819,33.968L46.71,33.823L46.539,33.568L46.424,33.381L46.306,33.176L46.179,32.949L45.465,31.607L45.291,31.291L45.107,30.969L44.906,30.632L44.694,30.294L44.465,29.951L44.344,29.778L44.218,29.604L44.018,29.34L43.81,29.08L43.669,28.912L43.436,28.649L43.195,28.394L43.027,28.226L42.765,27.978L42.487,27.734L42.196,27.497L41.994,27.343L41.786,27.192L41.57,27.044L41.347,26.901L41.118,26.762L40.762,26.562L40.393,26.372L40.138,26.252L39.877,26.136L39.61,26.024L39.335,25.918L39.054,25.815L38.766,25.718L38.322,25.58L38.016,25.494L37.703,25.413L37.22,25.299L36.725,25.196L36.382,25.132L36.03,25.073L35.671,25.018L35.304,24.967L34.928,24.921L34.543,24.879L34.15,24.842L33.748,24.809L33.337,24.78L32.917,24.756L32.487,24.736L32.048,24.721L31.599,24.71L31.14,24.703L30.671,24.701L30.203,24.703L29.745,24.709L29.297,24.72L28.858,24.736L28.429,24.755L28.009,24.779L27.599,24.808L27.198,24.84L26.805,24.878L26.421,24.919L26.046,24.965L25.679,25.015L25.32,25.07L24.97,25.128L24.627,25.192L24.292,25.26L23.96,25.333L23.639,25.41L23.328,25.491L23.023,25.577L22.578,25.714L22.149,25.861L22.009,25.913L21.735,26.019L21.467,26.13L21.079,26.305L20.705,26.49L20.345,26.686L20.227,26.754L19.999,26.892L19.667,27.108L19.454,27.257L19.248,27.41L19.049,27.565L18.761,27.805L18.578,27.967L18.314,28.216L18.146,28.384L17.904,28.64L17.674,28.898L17.458,29.157L17.253,29.418L17.125,29.587L16.878,29.934L16.647,30.28L16.433,30.62L16.233,30.953L16.05,31.275L15.875,31.591L15.141,32.97L14.959,33.292L14.781,33.585L14.669,33.754L14.559,33.907L14.423,34.078L14.31,34.203L14.182,34.324L13.996,34.47L13.87,34.549L13.662,34.653L13.48,34.723L13.353,34.763L13.121,34.819L12.916,34.854L12.755,34.872L12.527,34.886L12.34,34.888L12.154,34.881L11.957,34.866L11.684,34.831L11.397,34.779L11.099,34.707L10.868,34.64L10.63,34.561L10.385,34.47L10.22,34.402L9.966,34.288L9.706,34.16L9.441,34.018L9.17,33.86L8.894,33.687L8.613,33.499L8.327,33.296L8.131,33.149L7.745,32.846L7.552,32.687L7.358,32.522L7.164,32.352L6.971,32.177L6.779,31.998L6.588,31.814L6.398,31.627L6.209,31.436L6.023,31.241L5.838,31.042L5.476,30.637L5.298,30.43L5.124,30.22L4.953,30.009L4.785,29.795L4.622,29.58L4.461,29.363L4.306,29.145L4.154,28.926L4.007,28.707L3.865,28.487L3.727,28.266L3.596,28.046L3.468,27.825L3.345,27.604L3.227,27.383L3.114,27.16L3.005,26.937L2.9,26.713L2.799,26.489L2.702,26.262L2.61,26.036L2.521,25.808L2.435,25.579L2.354,25.349L2.276,25.118L2.13,24.651L2.062,24.415L1.998,24.179L1.936,23.94L1.822,23.458L1.719,22.969L1.672,22.721L1.585,22.221L1.545,21.967L1.473,21.455L1.441,21.196L1.381,20.665L1.331,20.139L1.31,19.872L1.276,19.338L1.264,19.071L1.255,18.803L1.251,18.535L1.25,18.267L1.254,17.999L1.262,17.731L1.283,17.33L1.315,16.936L1.343,16.67L1.396,16.271L1.462,15.873L1.541,15.476L1.603,15.213L1.671,14.95L1.786,14.555L1.872,14.293L1.966,14.032L2.068,13.771L2.177,13.51L2.296,13.249L2.422,12.989L2.558,12.73L2.703,12.47L2.858,12.212L3.023,11.952L3.198,11.693L3.384,11.433L3.58,11.173L3.786,10.913L4.003,10.654L4.229,10.395L4.467,10.136L4.713,9.879L4.971,9.622L5.374,9.24L5.655,8.986L6.095,8.609L6.4,8.36L6.715,8.113L7.038,7.868L7.37,7.626L7.717,7.382L8.067,7.145L8.427,6.911L8.795,6.68L9.172,6.451L9.557,6.226L9.95,6.005L10.352,5.787L10.762,5.572L11.18,5.362L11.605,5.155L12.039,4.952L12.48,4.754L12.929,4.561L13.385,4.371L13.849,4.187L14.32,4.007L14.798,3.831L15.284,3.661L15.776,3.496L16.275,3.336L16.781,3.181L17.294,3.031L17.813,2.886L18.338,2.747L18.871,2.614L19.409,2.486L19.953,2.364L20.503,2.248L21.06,2.138L21.622,2.033L22.189,1.935L22.763,1.843L23.341,1.757L23.926,1.678L24.515,1.605L25.109,1.539L25.709,1.479L26.313,1.426L26.922,1.38L27.536,1.34L28.155,1.308L28.778,1.283L29.405,1.264L30.037,1.254L30.666,1.249Z" style="fill:white;fill-rule:nonzero;"/>
            </g>
        </g>
    </g>
</svg>
