<?xml version="1.0" encoding="UTF-8" standalone="no"?>
<!DOCTYPE svg PUBLIC "-//W3C//DTD SVG 1.1//EN" "http://www.w3.org/Graphics/SVG/1.1/DTD/svg11.dtd">
<svg width="100%" height="100%" viewBox="0 0 100 60" version="1.1" xmlns="http://www.w3.org/2000/svg" xmlns:xlink="http://www.w3.org/1999/xlink" xml:space="preserve" xmlns:serif="http://www.serif.com/" style="fill-rule:evenodd;clip-rule:evenodd;">
    <g transform="matrix(1,0,0,1,-701,-248)">
        <g id="GBA" transform="matrix(1,0,0,0.6,701,248)">
            <rect x="0" y="0" width="100" height="100" style="fill:none;"/>
            <g id="Group-209" serif:id="Group 209" transform="matrix(1,0,0,1.66667,-24.9192,9.19717)">
                <path id="Vector" d="M74.121,3.485L74.121,3.485L75.707,3.485L75.717,3.485L87.596,3.357L92.186,3.357C93.519,3.357 94.835,3.82 96,4.607C99.335,6.858 102.767,8.236 108.466,9.179C109.28,9.314 109.907,9.928 110.039,10.695C111.192,17.401 111.764,22.857 112.273,30.727C112.382,32.418 112.193,34.223 111.611,35.71C111.032,37.187 110.105,38.268 108.763,38.733C106.165,39.633 104.185,40.288 102.698,40.762C100.02,41.615 97.326,42.401 94.609,43.084C90.324,44.161 83.173,45.607 75.707,45.607L74.132,45.607C66.665,45.607 59.515,44.161 55.23,43.084C52.513,42.401 49.818,41.615 47.14,40.762C45.653,40.288 43.673,39.633 41.075,38.733C39.733,38.268 38.806,37.187 38.228,35.71C37.646,34.223 37.456,32.418 37.566,30.727C38.075,22.857 38.647,17.401 39.799,10.695C39.931,9.928 40.558,9.314 41.372,9.179C47.071,8.236 50.503,6.858 53.839,4.607C55.004,3.82 56.319,3.357 57.653,3.357L62.243,3.357L74.121,3.485Z" style="fill:none;fill-rule:nonzero;stroke:white;stroke-width:2px;"/>
                <g id="Group-207" serif:id="Group 207">
                    <path id="Vector-7" serif:id="Vector 7" d="M54.919,4.044L43.665,4.999C42.112,5.13 40.919,6.429 40.919,7.988L40.919,8.794" style="fill:none;fill-rule:nonzero;stroke:white;stroke-width:2px;"/>
                    <path id="Vector-8" serif:id="Vector 8" d="M94.919,4.044L106.172,4.999C107.725,5.13 108.919,6.429 108.919,7.988L108.919,8.794" style="fill:none;fill-rule:nonzero;stroke:white;stroke-width:2px;"/>
                </g>
                <g id="Group-206" serif:id="Group 206">
                    <path id="Rectangle-203" serif:id="Rectangle 203" d="M47.935,17.181C47.935,16.834 47.653,16.551 47.305,16.551L45.256,16.551C44.909,16.551 44.627,16.834 44.627,17.181L44.627,25.505C44.627,25.853 44.909,26.135 45.256,26.135L47.305,26.135C47.653,26.135 47.935,25.853 47.935,25.505L47.935,17.181Z" style="fill:white;"/>
                    <g id="Rectangle-204" serif:id="Rectangle 204" transform="matrix(-3.82857e-16,-1,1,-3.82857e-16,18.5701,64.4075)">
                        <path d="M44.64,23.549C44.64,23.201 44.358,22.919 44.01,22.919L42.119,22.919C41.771,22.919 41.489,23.201 41.489,23.549L41.489,31.873C41.489,32.22 41.771,32.503 42.119,32.503L44.01,32.503C44.358,32.503 44.64,32.22 44.64,31.873L44.64,23.549Z" style="fill:white;"/>
                    </g>
                </g>
                <circle id="Ellipse-103" serif:id="Ellipse 103" cx="51.397" cy="32.06" r="1.161" style="fill:white;"/>
                <circle id="Ellipse-104" serif:id="Ellipse 104" cx="51.397" cy="36.469" r="1.161" style="fill:white;"/>
                <circle id="Ellipse-105" serif:id="Ellipse 105" cx="99.879" cy="22.592" r="2.52" style="fill:white;"/>
                <circle id="Ellipse-106" serif:id="Ellipse 106" cx="105.808" cy="20.151" r="2.52" style="fill:white;"/>
                <g id="Vector_2">
                    <path d="M97.241,31.174C97.241,31 97.382,30.859 97.556,30.859L105.626,28.812C105.8,28.812 105.941,28.953 105.941,29.127C105.941,29.301 105.8,29.442 105.626,29.442L97.556,31.489C97.382,31.489 97.241,31.348 97.241,31.174Z" style="fill:white;fill-rule:nonzero;"/>
                    <path d="M97.241,32.749C97.241,32.575 97.382,32.434 97.556,32.434L105.626,30.387C105.8,30.387 105.941,30.528 105.941,30.702C105.941,30.876 105.8,31.017 105.626,31.017L97.556,33.064C97.382,33.064 97.241,32.923 97.241,32.749Z" style="fill:white;fill-rule:nonzero;"/>
                    <path d="M97.241,34.403C97.241,34.229 97.382,34.088 97.556,34.088L105.626,32.041C105.8,32.041 105.941,32.182 105.941,32.355C105.941,32.529 105.8,32.67 105.626,32.67L97.556,34.718C97.382,34.718 97.241,34.577 97.241,34.403Z" style="fill:white;fill-rule:nonzero;"/>
                    <path d="M97.241,36.017C97.241,35.843 97.382,35.702 97.556,35.702L105.626,33.655C105.8,33.655 105.941,33.796 105.941,33.969C105.941,34.143 105.8,34.285 105.626,34.285L97.556,36.332C97.382,36.332 97.241,36.191 97.241,36.017Z" style="fill:white;fill-rule:nonzero;"/>
                    <path d="M97.241,37.552C97.241,37.378 97.382,37.237 97.556,37.237L105.626,35.19C105.8,35.19 105.941,35.331 105.941,35.505C105.941,35.679 105.8,35.82 105.626,35.82L97.556,37.867C97.382,37.867 97.241,37.726 97.241,37.552Z" style="fill:white;fill-rule:nonzero;"/>
                </g>
                <path id="Vector_3" d="M59.741,8.777C60.867,8.586 64.764,8.093 74.904,8.093C85.037,8.093 88.93,8.586 90.057,8.777C90.228,8.806 90.412,8.832 90.588,8.856C90.696,8.872 90.802,8.886 90.898,8.901C92.498,9.146 93.749,10.44 93.897,12.082C94.222,15.671 94.706,21.444 94.973,26.636C95.106,29.233 95.185,31.677 95.163,33.627C95.152,34.603 95.116,35.447 95.05,36.121C94.982,36.811 94.888,37.271 94.785,37.513C94.489,38.204 93.887,38.778 93.056,39.253C92.227,39.728 91.21,40.082 90.152,40.35C88.538,40.758 86.91,40.947 85.784,41.079C85.426,41.12 85.119,41.156 84.879,41.191C83.016,41.463 78.06,41.894 74.895,41.894C73.399,41.894 71.07,41.736 69.024,41.567C68.846,41.553 68.669,41.538 68.491,41.524C65.904,41.312 63.344,41.103 60.831,40.613C59.582,40.369 58.294,40.021 57.226,39.507C56.152,38.989 55.366,38.334 55.015,37.513C54.911,37.271 54.817,36.811 54.75,36.121C54.684,35.447 54.648,34.603 54.637,33.627C54.614,31.677 54.693,29.233 54.827,26.636C55.093,21.444 55.577,15.671 55.902,12.082C56.05,10.44 57.302,9.145 58.902,8.901C58.998,8.886 59.103,8.872 59.211,8.856C59.386,8.832 59.57,8.806 59.741,8.777Z" style="fill:none;fill-rule:nonzero;stroke:white;stroke-width:1px;"/>
                <circle id="Ellipse-107" serif:id="Ellipse 107" cx="99.839" cy="10.742" r="0.787" style="fill:white;"/>
                <rect id="Rectangle-228" serif:id="Rectangle 228" x="58.834" y="12.726" width="32.054" height="19.928" style="fill:none;stroke:white;stroke-width:2px;"/>
            </g>
        </g>
    </g>
</svg>
