<?xml version="1.0" encoding="UTF-8" standalone="no"?>
<!DOCTYPE svg PUBLIC "-//W3C//DTD SVG 1.1//EN" "http://www.w3.org/Graphics/SVG/1.1/DTD/svg11.dtd">
<svg width="100%" height="100%" viewBox="0 0 101 60" version="1.1" xmlns="http://www.w3.org/2000/svg" xmlns:xlink="http://www.w3.org/1999/xlink" xml:space="preserve" xmlns:serif="http://www.serif.com/" style="fill-rule:evenodd;clip-rule:evenodd;">
    <g transform="matrix(1,0,0,1,-560,-620)">
        <g id="N64" transform="matrix(1,0,0,0.6,560.8,620)">
            <rect x="0" y="0" width="100" height="100" style="fill:none;"/>
            <g id="Group-99" serif:id="Group 99" transform="matrix(1,0,0,1.66667,-24.9999,6.083)">
                <g id="Group-98" serif:id="Group 98">
                    <path id="Oval_29" d="M64.871,15.318C64.871,17.788 62.87,19.789 60.401,19.789C57.931,19.789 55.93,17.788 55.93,15.318C55.93,12.849 57.931,10.848 60.401,10.848C62.87,10.848 64.871,12.849 64.871,15.318Z" style="fill:none;fill-rule:nonzero;stroke:white;stroke-width:2px;"/>
                    <g id="Group-39" serif:id="Group 39">
                        <path id="Rectangle_33" d="M61.441,12.443C61.441,12.017 61.096,11.671 60.67,11.671L60.129,11.671C59.703,11.671 59.357,12.017 59.357,12.443L59.357,18.194C59.357,18.62 59.703,18.966 60.129,18.966L60.67,18.966C61.096,18.966 61.441,18.62 61.441,18.194L61.441,12.443Z" style="fill:white;"/>
                        <path id="Rectangle_34" d="M57.524,16.36C57.098,16.36 56.753,16.015 56.753,15.589L56.753,15.048C56.753,14.622 57.098,14.276 57.524,14.276L63.276,14.276C63.702,14.276 64.047,14.622 64.047,15.048L64.047,15.589C64.047,16.015 63.702,16.36 63.276,16.36L57.524,16.36Z" style="fill:white;"/>
                    </g>
                </g>
                <path id="Oval_30" d="M91.132,10.577C91.132,10.83 90.926,11.036 90.673,11.036C90.419,11.036 90.214,10.83 90.214,10.577C90.214,10.324 90.419,10.118 90.673,10.118C90.926,10.118 91.132,10.324 91.132,10.577Z" style="fill:white;fill-rule:nonzero;stroke:white;stroke-width:2px;"/>
                <path id="Oval_31" d="M88.214,13.495C88.214,13.748 88.009,13.954 87.755,13.954C87.502,13.954 87.296,13.748 87.296,13.495C87.296,13.241 87.502,13.036 87.755,13.036C88.009,13.036 88.214,13.241 88.214,13.495Z" style="fill:white;fill-rule:nonzero;stroke:white;stroke-width:2px;"/>
                <path id="Oval_32" d="M94.049,13.495C94.049,13.748 93.844,13.954 93.591,13.954C93.337,13.954 93.132,13.748 93.132,13.495C93.132,13.241 93.337,13.036 93.591,13.036C93.844,13.036 94.049,13.241 94.049,13.495Z" style="fill:white;fill-rule:nonzero;stroke:white;stroke-width:2px;"/>
                <path id="Oval_33" d="M91.132,16.413C91.132,16.666 90.926,16.872 90.673,16.872C90.419,16.872 90.214,16.666 90.214,16.413C90.214,16.159 90.419,15.954 90.673,15.954C90.926,15.954 91.132,16.159 91.132,16.413Z" style="fill:white;fill-rule:nonzero;stroke:white;stroke-width:2px;"/>
                <path id="Oval_34" d="M85.296,16.777C85.296,17.232 84.927,17.601 84.473,17.601C84.018,17.601 83.649,17.232 83.649,16.777C83.649,16.323 84.018,15.954 84.473,15.954C84.927,15.954 85.296,16.323 85.296,16.777Z" style="fill:white;fill-rule:nonzero;stroke:white;stroke-width:2px;"/>
                <path id="Oval_35" d="M75.813,17.142C75.813,17.395 75.608,17.601 75.354,17.601C75.101,17.601 74.896,17.395 74.896,17.142C74.896,16.889 75.101,16.683 75.354,16.683C75.608,16.683 75.813,16.889 75.813,17.142Z" style="fill:white;fill-rule:nonzero;stroke:white;stroke-width:2px;"/>
                <path id="Oval_36" d="M88.214,19.695C88.214,20.15 87.845,20.519 87.39,20.519C86.935,20.519 86.567,20.15 86.567,19.695C86.567,19.24 86.935,18.872 87.39,18.872C87.845,18.872 88.214,19.24 88.214,19.695Z" style="fill:white;fill-rule:nonzero;stroke:white;stroke-width:2px;"/>
                <path id="Rectangle-16" serif:id="Rectangle 16" d="M81.385,6.2C81.385,5.671 80.955,5.241 80.426,5.241L70.213,5.241C69.684,5.241 69.254,5.671 69.254,6.2L69.254,6.2C69.254,6.73 69.684,7.159 70.213,7.159L80.426,7.159C80.955,7.159 81.385,6.73 81.385,6.2L81.385,6.2Z" style="fill:none;stroke:white;stroke-width:1px;"/>
                <path id="Subtract" d="M75.354,32.461C78.175,32.461 80.461,30.174 80.461,27.354C80.461,24.534 78.175,22.248 75.354,22.248C72.534,22.248 70.248,24.534 70.248,27.354C70.248,30.174 72.534,32.461 75.354,32.461ZM76.433,24.75L75.354,24.291L74.276,24.75L73.188,25.188L72.75,26.276L72.291,27.354L72.75,28.433L73.188,29.521L74.276,29.958L75.354,30.418L76.433,29.958L77.521,29.521L77.958,28.433L78.418,27.354L77.958,26.276L77.521,25.188L76.433,24.75Z" style="fill:white;"/>
                <circle id="Ellipse-7" serif:id="Ellipse 7" cx="75.354" cy="27.354" r="1.702" style="fill:white;"/>
                <path id="Union" d="M60.5,27.512C62.555,27.918 64.686,28.332 66.667,28.703C66.837,28.735 66.952,28.87 66.965,29.027L66.986,29.296C67.292,33.232 67.729,38.831 68.774,43.489C69.306,45.865 70.016,48.088 71.003,49.741C71.984,51.386 73.39,52.7 75.352,52.7C77.317,52.7 78.724,51.375 79.704,49.723C80.691,48.061 81.402,45.826 81.936,43.44C82.987,38.741 83.425,33.098 83.729,29.167L83.747,28.943C83.759,28.786 83.874,28.652 84.044,28.62C85.814,28.286 87.688,27.922 89.511,27.562C90.221,30.92 91.142,34.404 92.295,37.097C92.929,38.579 93.668,39.905 94.541,40.835C95.421,41.775 96.574,42.443 97.95,42.215C99.709,41.925 100.657,40.364 101.176,38.734C101.714,37.045 101.94,34.854 101.989,32.523C102.087,27.915 101.496,22.437 100.938,18.397C101.107,17.619 101.196,16.814 101.196,15.991L101.196,15.166C101.196,9.824 97.454,5.175 92.149,4.257C90.255,3.93 88.175,3.592 86.074,3.291C85.908,2.411 85.361,1.588 84.369,1.219C82.872,0.664 80.105,0 75.42,0C70.735,0 67.967,0.664 66.471,1.219C65.51,1.576 64.967,2.359 64.783,3.208C62.482,3.529 60.188,3.899 58.117,4.257C52.812,5.175 49.07,9.824 49.07,15.166L49.07,15.991C49.07,16.524 49.107,17.049 49.179,17.565C48.608,21.537 47.95,27.221 48.003,32.05C48.03,34.486 48.238,36.787 48.77,38.561C49.281,40.264 50.234,41.916 52.05,42.215C53.43,42.443 54.584,41.772 55.466,40.829C56.339,39.894 57.079,38.564 57.714,37.076C58.868,34.373 59.79,30.877 60.5,27.512ZM75.42,2.188C70.938,2.188 68.437,2.824 67.232,3.271C67.118,3.313 67.038,3.387 66.981,3.496C66.919,3.614 66.881,3.789 66.906,4.001L67.039,5.112L65.969,5.254C63.407,5.597 60.811,6.012 58.489,6.414C54.277,7.142 51.258,10.845 51.258,15.166L51.258,15.991C51.258,16.467 51.295,16.936 51.366,17.395C51.94,21.102 54.756,24.134 58.519,24.887C58.959,24.975 59.406,25.064 59.86,25.154L60.056,25.193C62.368,25.652 64.818,26.13 67.071,26.553C68.198,26.764 69.056,27.698 69.146,28.857L69.163,29.067C69.472,33.039 69.899,38.508 70.909,43.01C71.425,45.309 72.074,47.265 72.882,48.62C73.696,49.985 74.521,50.512 75.352,50.512C76.18,50.512 77.005,49.983 77.822,48.607C78.632,47.241 79.283,45.273 79.8,42.962C80.817,38.418 81.244,32.904 81.552,28.938L81.565,28.774C81.655,27.616 82.512,26.682 83.638,26.469C85.722,26.076 87.953,25.641 90.074,25.22L90.151,25.205C90.692,25.098 91.225,24.991 91.747,24.887C92.54,24.728 93.291,24.469 93.987,24.123C95.272,23.484 96.373,22.552 97.214,21.422C97.892,20.509 98.401,19.467 98.7,18.345C98.722,18.263 98.743,18.18 98.762,18.098C98.923,17.419 99.008,16.713 99.008,15.991L99.008,15.166C99.008,10.845 95.989,7.142 91.776,6.414C89.624,6.041 87.236,5.657 84.857,5.33L83.792,5.184L83.934,4.001C83.959,3.789 83.92,3.614 83.859,3.496C83.802,3.387 83.722,3.313 83.607,3.271C82.403,2.824 79.902,2.188 75.42,2.188ZM50.81,22.019C52.405,24.546 54.986,26.412 58.09,27.033C58.177,27.05 58.265,27.068 58.353,27.085C57.656,30.387 56.772,33.711 55.702,36.217C55.106,37.613 54.485,38.673 53.867,39.335C53.256,39.988 52.786,40.119 52.407,40.056C51.918,39.976 51.331,39.481 50.866,37.932C50.422,36.454 50.217,34.396 50.191,32.026C50.156,28.841 50.444,25.24 50.81,22.019ZM94.306,36.236C93.238,33.741 92.355,30.43 91.658,27.136L92.176,27.033C92.607,26.947 93.028,26.836 93.437,26.704C95.842,25.925 97.856,24.373 99.229,22.365C99.594,25.652 99.869,29.298 99.802,32.476C99.754,34.739 99.533,36.681 99.091,38.07C98.631,39.517 98.066,39.978 97.593,40.056C97.214,40.119 96.746,39.989 96.138,39.339C95.521,38.681 94.902,37.626 94.306,36.236Z" style="fill:white;"/>
            </g>
        </g>
    </g>
</svg>
